{
classes = (
{
code = " zero one two three four five six seven eight nine parenleft parenright ";
name = standard;
},
{
code = " zerosuperior onesuperior twosuperior threesuperior foursuperior fivesuperior sixsuperior sevensuperior eightsuperior ninesuperior parenleftsuperior parenrightsuperior ";
name = sups;
},
{
code = " zeroinferior oneinferior twoinferior threeinferior fourinferior fiveinferior sixinferior seveninferior eightinferior nineinferior parenleftinferior parenrightinferior ";
name = subs;
},
{
code = " zero.numerator one.numerator two.numerator three.numerator four.numerator five.numerator six.numerator seven.numerator eight.numerator nine.numerator parenleft.numerator parenright.numerator ";
name = numerator;
},
{
code = " zero.denominator one.denominator two.denominator three.denominator four.denominator five.denominator six.denominator seven.denominator eight.denominator nine.denominator parenleft.denominator parenright.denominator ";
name = denominator;
},
{
code = " zero.otlf one.otlf two.otlf three.otlf four.otlf five.otlf six.otlf seven.otlf eight.otlf nine.otlf parenleft.otlf parenright.otlf ";
name = tnum1;
}
);
copyright = "Copyright (c) 2015 by Hubert & Fischer. All rights reserved.";
customParameters = (
{
name = glyphOrder;
value = (
    ".notdef",
    ".null",
    CR,
    space,
    commaaccent,
    dieresis,
    dotaccent,
    hungarumlaut,
    grave,
    macron,
    ogonek,
    ring,
    tilde,
    Acute,
    Breve,
    Caron,
    Cedilla,
    Circumflex,
    "commaaccent.cap",
    Dieresis,
    Dotaccent,
    Hungarumlaut,
    Grave,
    Macron,
    Ogonek,
    Ring,
    Tilde,
    A,
    Aacute,
    Abreve,
    Acircumflex,
    Agrave,
    Adieresis,
    Amacron,
    Aogonek,
    Aring,
    Atilde,
    AE,
    AEacute,
    B,
    C,
    Cacute,
    Ccaron,
    Ccedilla,
    Ccircumflex,
    Cdotaccent,
    D,
    Dcaron,
    Dcroat,
    E,
    Eacute,
    Ebreve,
    Ecaron,
    Ecircumflex,
    Edieresis,
    Edotaccent,

glyphs = (
{
glyphname = commaaccent;
lastChange = "2015-11-19 08:48:24 +0000";
layers = (
{
guideLines = (
{
position = "{0, -210}";
},
{
position = "{0, -50}";
},
{
position = "{0, -217}";
}
);
hints = (
{
horizontal = 1;
origin = "{0, 0}";
type = Tag;
name = hr00;
}
);
layerId = "7891CA1A-7632-4D56-9F64-CBE5433B6847";
name = Light;
paths = (
{
closed = 1;
nodes = (
"74 -189 LINE SMOOTH",
"72 -201 OFFCURVE",
"77 -210 OFFCURVE",
"88 -210 CURVE SMOOTH",
"106 -210 LINE SMOOTH",
"121 -210 OFFCURVE",
"126 -202 OFFCURVE",
"132 -189 CURVE",
"172 -84 LINE SMOOTH",
"175 -77 OFFCURVE",
"176 -71 OFFCURVE",
"176 -66 CURVE SMOOTH",
"176 -58 OFFCURVE",
"170 -50 OFFCURVE",
"161 -50 CURVE SMOOTH",
"116 -50 LINE SMOOTH",
"100 -50 OFFCURVE",
"93 -61 OFFCURVE",
"91 -77 CURVE SMOOTH"
);
}
);
width = 245;
},
{
associatedMasterId = "7891CA1A-7632-4D56-9F64-CBE5433B6847";
layerId = "2C2961A1-FB91-4944-9F77-3476E1CA3B43";
width = 600;
},
{
guideLines = (
{
position = "{0, -250}";
}
);
hints = (
{
horizontal = 1;
place = "{9223372036854775808.000000, 0.000000}";
type = Tag;
name = hr00;
}
);
layerId = "794B2617-B5E8-46A3-BB57-9FF4B4129D38";
name = Regular;
paths = (
{
closed = 1;
nodes = (
"95 -226 LINE SMOOTH",
"95 -228 OFFCURVE",
"95 -226 OFFCURVE",
"95 -228 CURVE SMOOTH",
"95 -240 OFFCURVE",
"105 -250 OFFCURVE",
"117 -250 CURVE SMOOTH",
"163 -250 LINE SMOOTH",
"189 -250 OFFCURVE",
"201 -231 OFFCURVE",
"206 -218 CURVE SMOOTH",
"261 -79 LINE SMOOTH",
"262 -76 OFFCURVE",
"262 -74 OFFCURVE",
"262 -72 CURVE SMOOTH",
"262 -60 OFFCURVE",
"252 -50 OFFCURVE",
"240 -50 CURVE SMOOTH",
"159 -50 LINE SMOOTH",
"132 -50 OFFCURVE",
"119 -71 OFFCURVE",
"116 -89 CURVE SMOOTH"
);
}
);
width = 358;
},
{
associatedMasterId = "7891CA1A-7632-4D56-9F64-CBE5433B6847";
layerId = "B59C78E1-B6F6-4A7C-9E53-DC2ADEC481BE";
width = 600;
},
{
guideLines = (
{
position = "{0, -250}";
}
);
hints = (
{
horizontal = 1;
place = "{9223372036854775808.000000, 0.000000}";
type = Tag;
name = hr00;
}
);
layerId = "A67CAC85-0E07-4E45-8FAE-4EA88B7D3365";
name = SemiBold;
paths = (
{
closed = 1;
nodes = (
"59 -226 LINE SMOOTH",
"59 -228 OFFCURVE",
"59 -226 OFFCURVE",
"59 -228 CURVE SMOOTH",
"59 -240 OFFCURVE",
"69 -250 OFFCURVE",
"81 -250 CURVE SMOOTH",
"162 -250 LINE SMOOTH",
"188 -250 OFFCURVE",
"200 -231 OFFCURVE",
"205 -218 CURVE SMOOTH",
"260 -79 LINE SMOOTH",
"261 -76 OFFCURVE",
"261 -74 OFFCURVE",
"261 -72 CURVE SMOOTH",
"261 -60 OFFCURVE",
"251 -50 OFFCURVE",
"239 -50 CURVE SMOOTH",
"124 -50 LINE SMOOTH",
"97 -50 OFFCURVE",
"84 -71 OFFCURVE",
"81 -89 CURVE SMOOTH"
);
}
);
width = 320;
},
{
associatedMasterId = "7891CA1A-7632-4D56-9F64-CBE5433B6847";
layerId = "EBCD298A-9C51-488A-B43D-5D3FB5B7406C";
width = 600;
},
{
guideLines = (
{
position = "{0, -50}";
},
{
position = "{0, -250}";
}
);
hints = (
{
horizontal = 1;
place = "{9223372036854775808.000000, 0.000000}";
type = Tag;
name = hr00;
}
);
layerId = "23D188E6-7019-4CFD-8C83-9B160EBC8A6F";
name = Bold;
paths = (
{
closed = 1;
nodes = (
"50 -226 LINE SMOOTH",
"50 -228 OFFCURVE",
"50 -226 OFFCURVE",
"50 -228 CURVE SMOOTH",
"50 -240 OFFCURVE",
"60 -250 OFFCURVE",
"72 -250 CURVE SMOOTH",
"177 -250 LINE SMOOTH",
"203 -250 OFFCURVE",
"215 -231 OFFCURVE",
"220 -218 CURVE SMOOTH",
"275 -79 LINE SMOOTH",
"276 -76 OFFCURVE",
"276 -74 OFFCURVE",
"276 -72 CURVE SMOOTH",
"276 -60 OFFCURVE",
"266 -50 OFFCURVE",
"254 -50 CURVE SMOOTH",
"114 -50 LINE SMOOTH",
"87 -50 OFFCURVE",
"74 -71 OFFCURVE",
"71 -89 CURVE SMOOTH"
);
}
);
width = 326;
},
{
guideLines = (
{
position = "{0, -250}";
},
{
position = "{0, -50}";
}
);
hints = (
{
horizontal = 1;
place = "{9223372036854775808.000000, 0.000000}";
type = Tag;
name = hr00;
}
);
layerId = "3B5D4880-7EC1-45C7-ACF2-835190E6862B";
name = SemiLight;
paths = (
{
closed = 1;
nodes = (
"67 -226 LINE SMOOTH",
"67 -228 OFFCURVE",
"67 -226 OFFCURVE",
"67 -228 CURVE SMOOTH",
"67 -240 OFFCURVE",
"77 -250 OFFCURVE",
"89 -250 CURVE SMOOTH",
"107 -250 LINE SMOOTH",
"133 -250 OFFCURVE",
"145 -231 OFFCURVE",
"150 -218 CURVE SMOOTH",
"204 -79 LINE SMOOTH",
"205 -76 OFFCURVE",
"205 -74 OFFCURVE",
"205 -72 CURVE SMOOTH",
"205 -60 OFFCURVE",
"195 -50 OFFCURVE",
"183 -50 CURVE SMOOTH",
"131 -50 LINE SMOOTH",
"104 -50 OFFCURVE",
"91 -71 OFFCURVE",
"88 -89 CURVE SMOOTH"
);
}
);
width = 273;
}
);
unicode = F6C3;
userData = {
com.typemytype.robofont.guides = (
{
angle = 0;
isGlobal = 0;
x = 0;
y = -210;
},
{
angle = 0;
isGlobal = 0;
x = 0;
y = -50;
},
{
angle = 0;
isGlobal = 0;
x = 0;
y = -217;
}
);
};
},
{
glyphname = dieresis;
lastChange = "2015-11-19 08:48:24 +0000";
layers = (
{
guideLines = (
{
position = "{0, 575}";
},
{
angle = 90;
position = "{153, 0}";
}
);
hints = (
{
horizontal = 1;
origin = "{0, 0}";
type = Tag;
name = hr00;
}
);
layerId = "7891CA1A-7632-4D56-9F64-CBE5433B6847";
name = Light;
paths = (
{
closed = 1;
nodes = (
"306 687 LINE SMOOTH",
"306 700 OFFCURVE",
"296 710 OFFCURVE",
"283 710 CURVE SMOOTH",
"245 710 LINE SMOOTH",
"232 710 OFFCURVE",
"223 700 OFFCURVE",
"223 687 CURVE SMOOTH",
"223 649 LINE SMOOTH",
"223 636 OFFCURVE",
"232 627 OFFCURVE",
"245 627 CURVE SMOOTH",
"283 627 LINE SMOOTH",
"296 627 OFFCURVE",
"306 636 OFFCURVE",
"306 649 CURVE SMOOTH"
);
},
{
closed = 1;
nodes = (
"153 687 LINE SMOOTH",
"153 700 OFFCURVE",
"143 710 OFFCURVE",
"130 710 CURVE SMOOTH",
"92 710 LINE SMOOTH",
"79 710 OFFCURVE",
"70 700 OFFCURVE",
"70 687 CURVE SMOOTH",
"70 649 LINE SMOOTH",
"70 636 OFFCURVE",
"79 627 OFFCURVE",
"92 627 CURVE SMOOTH",
"130 627 LINE SMOOTH",
"143 627 OFFCURVE",
"153 636 OFFCURVE",
"153 649 CURVE SMOOTH"
);
}
);
width = 376;
},
{
associatedMasterId = "7891CA1A-7632-4D56-9F64-CBE5433B6847";
layerId = "2C2961A1-FB91-4944-9F77-3476E1CA3B43";
width = 600;
},
{
guideLines = (
{
position = "{0, 595}";
}
);
hints = (
{
horizontal = 1;
place = "{9223372036854775808.000000, 0.000000}";
type = Tag;
name = hr00;
}
);
layerId = "794B2617-B5E8-46A3-BB57-9FF4B4129D38";
name = Regular;
paths = (
{
closed = 1;
nodes = (
"87 737 LINE SMOOTH",
"72 737 OFFCURVE",
"60 725 OFFCURVE",
"60 710 CURVE SMOOTH",
"60 622 LINE SMOOTH",
"60 607 OFFCURVE",
"72 595 OFFCURVE",
"87 595 CURVE SMOOTH",
"170 595 LINE SMOOTH",
"185 595 OFFCURVE",
"197 607 OFFCURVE",
"197 622 CURVE SMOOTH",
"197 710 LINE SMOOTH",
"197 725 OFFCURVE",
"185 737 OFFCURVE",
"170 737 CURVE SMOOTH"
);
},
{
closed = 1;
nodes = (
"294 737 LINE SMOOTH",
"279 737 OFFCURVE",
"267 725 OFFCURVE",
"267 710 CURVE SMOOTH",
"267 622 LINE SMOOTH",
"267 607 OFFCURVE",
"279 595 OFFCURVE",
"294 595 CURVE SMOOTH",
"377 595 LINE SMOOTH",
"392 595 OFFCURVE",
"404 607 OFFCURVE",
"404 622 CURVE SMOOTH",
"404 710 LINE SMOOTH",
"404 725 OFFCURVE",
"392 737 OFFCURVE",
"377 737 CURVE SMOOTH"
);
}
);
width = 464;
},
{
associatedMasterId = "7891CA1A-7632-4D56-9F64-CBE5433B6847";
layerId = "B59C78E1-B6F6-4A7C-9E53-DC2ADEC481BE";
width = 600;
},
{
guideLines = (
{
position = "{0, 595}";
}
);
hints = (
{
horizontal = 1;
place = "{9223372036854775808.000000, 0.000000}";
type = Tag;
name = hr00;
}
);
layerId = "A67CAC85-0E07-4E45-8FAE-4EA88B7D3365";
name = SemiBold;
paths = (
{
closed = 1;
nodes = (
"210 723 LINE SMOOTH",
"210 738 OFFCURVE",
"198 750 OFFCURVE",
"183 750 CURVE SMOOTH",
"82 750 LINE SMOOTH",
"67 750 OFFCURVE",
"55 738 OFFCURVE",
"55 723 CURVE SMOOTH",
"55 622 LINE SMOOTH",
"55 607 OFFCURVE",
"67 595 OFFCURVE",
"82 595 CURVE SMOOTH",
"183 595 LINE SMOOTH",
"198 595 OFFCURVE",
"210 607 OFFCURVE",
"210 622 CURVE SMOOTH"
);
},
{
closed = 1;
nodes = (
"435 723 LINE SMOOTH",
"435 738 OFFCURVE",
"423 750 OFFCURVE",
"408 750 CURVE SMOOTH",
"307 750 LINE SMOOTH",
"292 750 OFFCURVE",
"280 738 OFFCURVE",
"280 723 CURVE SMOOTH",
"280 622 LINE SMOOTH",
"280 607 OFFCURVE",
"292 595 OFFCURVE",
"307 595 CURVE SMOOTH",
"408 595 LINE SMOOTH",
"423 595 OFFCURVE",
"435 607 OFFCURVE",
"435 622 CURVE SMOOTH"
);
}
);
width = 490;
},
{
associatedMasterId = "7891CA1A-7632-4D56-9F64-CBE5433B6847";
layerId = "EBCD298A-9C51-488A-B43D-5D3FB5B7406C";
width = 600;
},
{
guideLines = (
{
position = "{0, 595}";
}
);
hints = (
{
horizontal = 1;
place = "{9223372036854775808.000000, 0.000000}";
type = Tag;
name = hr00;
}
);
layerId = "23D188E6-7019-4CFD-8C83-9B160EBC8A6F";
name = Bold;
paths = (
{
closed = 1;
nodes = (
"73 765 LINE SMOOTH",
"60 765 OFFCURVE",
"50 755 OFFCURVE",
"50 742 CURVE SMOOTH",
"50 618 LINE SMOOTH",
"50 605 OFFCURVE",
"60 595 OFFCURVE",
"73 595 CURVE SMOOTH",
"197 595 LINE SMOOTH",
"210 595 OFFCURVE",
"220 605 OFFCURVE",
"220 618 CURVE SMOOTH",
"220 742 LINE SMOOTH",
"220 755 OFFCURVE",
"210 765 OFFCURVE",
"197 765 CURVE SMOOTH"
);
},
{
closed = 1;
nodes = (
"312 765 LINE SMOOTH",
"299 765 OFFCURVE",
"289 755 OFFCURVE",
"289 742 CURVE SMOOTH",
"289 618 LINE SMOOTH",
"289 605 OFFCURVE",
"299 595 OFFCURVE",
"312 595 CURVE SMOOTH",
"436 595 LINE SMOOTH",
"449 595 OFFCURVE",
"459 605 OFFCURVE",
"459 618 CURVE SMOOTH",
"459 742 LINE SMOOTH",
"459 755 OFFCURVE",
"449 765 OFFCURVE",
"436 765 CURVE SMOOTH"
);
}
);
width = 509;
},
{
guideLines = (
{
position = "{0, 600}";
}
);
hints = (
{
horizontal = 1;
place = "{9223372036854775808.000000, 0.000000}";
type = Tag;
name = hr00;
}
);
layerId = "3B5D4880-7EC1-45C7-ACF2-835190E6862B";
name = SemiLight;
paths = (
{
closed = 1;
nodes = (
"176 684 LINE SMOOTH",
"176 699 OFFCURVE",
"164 711 OFFCURVE",
"149 711 CURVE SMOOTH",
"92 711 LINE SMOOTH",
"77 711 OFFCURVE",
"65 699 OFFCURVE",
"65 684 CURVE SMOOTH",
"65 627 LINE SMOOTH",
"65 612 OFFCURVE",
"77 600 OFFCURVE",
"92 600 CURVE SMOOTH",
"149 600 LINE SMOOTH",
"164 600 OFFCURVE",
"176 612 OFFCURVE",
"176 627 CURVE SMOOTH"
);
},
{
closed = 1;
nodes = (
"357 684 LINE SMOOTH",
"357 699 OFFCURVE",
"345 711 OFFCURVE",
"330 711 CURVE SMOOTH",
"273 711 LINE SMOOTH",
"258 711 OFFCURVE",
"246 699 OFFCURVE",
"246 684 CURVE SMOOTH",
"246 627 LINE SMOOTH",
"246 612 OFFCURVE",
"258 600 OFFCURVE",
"273 600 CURVE SMOOTH",
"330 600 LINE SMOOTH",
"345 600 OFFCURVE",
"357 612 OFFCURVE",
"357 627 CURVE SMOOTH"
);
}
);
width = 422;
}
);
unicode = 00A8;
userData = {
com.typemytype.robofont.guides = (
{
angle = 0;
isGlobal = 0;
x = 0;
y = 575;
},
{
angle = 90;
isGlobal = 0;
x = 153;
y = 0;
}
);
};
},
{
glyphname = dotaccent;
lastChange = "2015-11-19 08:48:24 +0000";
layers = (
{
hints = (
{
horizontal = 1;
origin = "{0, 0}";
type = Tag;
name = hr00;
}
);
layerId = "7891CA1A-7632-4D56-9F64-CBE5433B6847";
name = Light;
paths = (
{
closed = 1;
nodes = (
"163 687 LINE SMOOTH",
"163 700 OFFCURVE",
"153 710 OFFCURVE",
"140 710 CURVE SMOOTH",
"92 710 LINE SMOOTH",
"79 710 OFFCURVE",
"70 700 OFFCURVE",
"70 687 CURVE SMOOTH",
"70 639 LINE SMOOTH",
"70 626 OFFCURVE",
"79 617 OFFCURVE",
"92 617 CURVE SMOOTH",
"140 617 LINE SMOOTH",
"153 617 OFFCURVE",
"163 626 OFFCURVE",
"163 639 CURVE SMOOTH"
);
}
);
width = 233;
},
{
associatedMasterId = "7891CA1A-7632-4D56-9F64-CBE5433B6847";
layerId = "2C2961A1-FB91-4944-9F77-3476E1CA3B43";
width = 600;
},
{
guideLines = (
{
position = "{0, 595}";
}
);
hints = (
{
horizontal = 1;
place = "{9223372036854775808.000000, 0.000000}";
type = Tag;
name = hr00;
}
);
layerId = "794B2617-B5E8-46A3-BB57-9FF4B4129D38";
name = Regular;
paths = (
{
closed = 1;
nodes = (
"87 742 LINE SMOOTH",
"72 742 OFFCURVE",
"60 730 OFFCURVE",
"60 715 CURVE SMOOTH",
"60 622 LINE SMOOTH",
"60 607 OFFCURVE",
"72 595 OFFCURVE",
"87 595 CURVE SMOOTH",
"175 595 LINE SMOOTH",
"190 595 OFFCURVE",
"202 607 OFFCURVE",
"202 622 CURVE SMOOTH",
"202 715 LINE SMOOTH",
"202 730 OFFCURVE",
"190 742 OFFCURVE",
"175 742 CURVE SMOOTH"
);
}
);
width = 262;
},
{
associatedMasterId = "7891CA1A-7632-4D56-9F64-CBE5433B6847";
layerId = "B59C78E1-B6F6-4A7C-9E53-DC2ADEC481BE";
width = 600;
},
{
hints = (
{
horizontal = 1;
place = "{9223372036854775808.000000, 0.000000}";
type = Tag;
name = hr00;
}
);
layerId = "A67CAC85-0E07-4E45-8FAE-4EA88B7D3365";
name = SemiBold;
paths = (
{
closed = 1;
nodes = (
"220 733 LINE SMOOTH",
"220 748 OFFCURVE",
"208 760 OFFCURVE",
"193 760 CURVE SMOOTH",
"82 760 LINE SMOOTH",
"67 760 OFFCURVE",
"55 748 OFFCURVE",
"55 733 CURVE SMOOTH",
"55 622 LINE SMOOTH",
"55 607 OFFCURVE",
"67 595 OFFCURVE",
"82 595 CURVE SMOOTH",
"193 595 LINE SMOOTH",
"208 595 OFFCURVE",
"220 607 OFFCURVE",
"220 622 CURVE SMOOTH"
);
}
);
width = 295;
},
{
associatedMasterId = "7891CA1A-7632-4D56-9F64-CBE5433B6847";
layerId = "EBCD298A-9C51-488A-B43D-5D3FB5B7406C";
width = 600;
},
{
guideLines = (
{
position = "{0, 595}";
}
);
hints = (
{
horizontal = 1;
place = "{9223372036854775808.000000, 0.000000}";
type = Tag;
name = hr00;
}
);
layerId = "23D188E6-7019-4CFD-8C83-9B160EBC8A6F";
name = Bold;
paths = (
{
closed = 1;
nodes = (
"73 772 LINE SMOOTH",
"60 772 OFFCURVE",
"50 762 OFFCURVE",
"50 749 CURVE SMOOTH",
"50 618 LINE SMOOTH",
"50 605 OFFCURVE",
"60 595 OFFCURVE",
"73 595 CURVE SMOOTH",
"204 595 LINE SMOOTH",
"217 595 OFFCURVE",
"227 605 OFFCURVE",
"227 618 CURVE SMOOTH",
"227 749 LINE SMOOTH",
"227 762 OFFCURVE",
"217 772 OFFCURVE",
"204 772 CURVE SMOOTH"
);
}
);
width = 277;
},
{
guideLines = (
{
position = "{0, 600}";
}
);
hints = (
{
horizontal = 1;
place = "{9223372036854775808.000000, 0.000000}";
type = Tag;
name = hr00;
}
);
layerId = "3B5D4880-7EC1-45C7-ACF2-835190E6862B";
name = SemiLight;
paths = (
{
closed = 1;
nodes = (
"175 684 LINE SMOOTH",
"175 699 OFFCURVE",
"163 711 OFFCURVE",
"148 711 CURVE SMOOTH",
"91 711 LINE SMOOTH",
"76 711 OFFCURVE",
"64 699 OFFCURVE",
"64 684 CURVE SMOOTH",
"64 627 LINE SMOOTH",
"64 612 OFFCURVE",
"76 600 OFFCURVE",
"91 600 CURVE SMOOTH",
"148 600 LINE SMOOTH",
"163 600 OFFCURVE",
"175 612 OFFCURVE",
"175 627 CURVE SMOOTH"
);
}
);
width = 241;
}
);
unicode = 02D9;
},
{
glyphname = hungarumlaut;
lastChange = "2015-11-19 08:48:24 +0000";
layers = (
{
guideLines = (
{
position = "{0, 595}";
}
);
hints = (
{
horizontal = 1;
origin = "{0, 0}";
type = Tag;
name = hr00;
}
);
layerId = "7891CA1A-7632-4D56-9F64-CBE5433B6847";
name = Light;
paths = (
{
closed = 1;
nodes = (
"75 626 LINE SMOOTH",
"73 622 OFFCURVE",
"70 616 OFFCURVE",
"70 611 CURVE SMOOTH",
"70 601 OFFCURVE",
"76 595 OFFCURVE",
"86 595 CURVE SMOOTH",
"96 595 LINE SMOOTH",
"109 595 OFFCURVE",
"118 600 OFFCURVE",
"126 609 CURVE SMOOTH",
"197 693 LINE SMOOTH",
"201 697 OFFCURVE",
"203 701 OFFCURVE",
"203 706 CURVE SMOOTH",
"203 718 OFFCURVE",
"195 725 OFFCURVE",
"183 725 CURVE SMOOTH",
"148 725 LINE SMOOTH",
"127 725 OFFCURVE",
"117 719 OFFCURVE",
"111 706 CURVE SMOOTH"
);
},
{
closed = 1;
nodes = (
"218 626 LINE SMOOTH",
"216 622 OFFCURVE",
"213 616 OFFCURVE",
"213 611 CURVE SMOOTH",
"213 601 OFFCURVE",
"219 595 OFFCURVE",
"229 595 CURVE SMOOTH",
"239 595 LINE SMOOTH",
"252 595 OFFCURVE",
"261 600 OFFCURVE",
"269 609 CURVE SMOOTH",
"340 693 LINE SMOOTH",
"344 697 OFFCURVE",
"346 701 OFFCURVE",
"346 706 CURVE SMOOTH",
"346 718 OFFCURVE",
"338 725 OFFCURVE",
"326 725 CURVE SMOOTH",
"291 725 LINE SMOOTH",
"270 725 OFFCURVE",
"260 719 OFFCURVE",
"254 706 CURVE SMOOTH"
);
}
);
width = 416;
},
{
associatedMasterId = "7891CA1A-7632-4D56-9F64-CBE5433B6847";
layerId = "2C2961A1-FB91-4944-9F77-3476E1CA3B43";
width = 600;
},
{
guideLines = (
{
position = "{0, 595}";
}
);
hints = (
{
horizontal = 1;
place = "{9223372036854775808.000000, 0.000000}";
type = Tag;
name = hr00;
}
);
layerId = "794B2617-B5E8-46A3-BB57-9FF4B4129D38";
name = Regular;
paths = (
{
closed = 1;
nodes = (
"65 626 LINE SMOOTH",
"63 622 OFFCURVE",
"60 616 OFFCURVE",
"60 611 CURVE SMOOTH",
"60 601 OFFCURVE",
"66 595 OFFCURVE",
"76 595 CURVE SMOOTH",
"124 595 LINE SMOOTH",
"137 595 OFFCURVE",
"150 600 OFFCURVE",
"158 609 CURVE SMOOTH",
"254 713 LINE SMOOTH",
"257 716 OFFCURVE",
"260 721 OFFCURVE",
"260 726 CURVE SMOOTH",
"260 738 OFFCURVE",
"252 745 OFFCURVE",
"240 745 CURVE SMOOTH",
"147 745 LINE SMOOTH",
"126 745 OFFCURVE",
"116 739 OFFCURVE",
"110 726 CURVE SMOOTH"
);
},
{
closed = 1;
nodes = (
"266 626 LINE SMOOTH",
"264 622 OFFCURVE",
"261 616 OFFCURVE",
"261 611 CURVE SMOOTH",
"261 601 OFFCURVE",
"267 595 OFFCURVE",
"277 595 CURVE SMOOTH",
"325 595 LINE SMOOTH",
"338 595 OFFCURVE",
"351 600 OFFCURVE",
"359 609 CURVE SMOOTH",
"455 713 LINE SMOOTH",
"458 716 OFFCURVE",
"461 721 OFFCURVE",
"461 726 CURVE SMOOTH",
"461 738 OFFCURVE",
"453 745 OFFCURVE",
"441 745 CURVE SMOOTH",
"348 745 LINE SMOOTH",
"327 745 OFFCURVE",
"317 739 OFFCURVE",
"311 726 CURVE SMOOTH"
);
}
);
width = 521;
},
{
associatedMasterId = "7891CA1A-7632-4D56-9F64-CBE5433B6847";
layerId = "B59C78E1-B6F6-4A7C-9E53-DC2ADEC481BE";
width = 600;
},
{
guideLines = (
{
position = "{0, 595}";
}
);
hints = (
{
horizontal = 1;
place = "{9223372036854775808.000000, 0.000000}";
type = Tag;
name = hr00;
}
);
layerId = "A67CAC85-0E07-4E45-8FAE-4EA88B7D3365";
name = SemiBold;
paths = (
{
closed = 1;
nodes = (
"60 626 LINE SMOOTH",
"58 622 OFFCURVE",
"55 616 OFFCURVE",
"55 611 CURVE SMOOTH",
"55 601 OFFCURVE",
"61 595 OFFCURVE",
"71 595 CURVE SMOOTH",
"134 595 LINE SMOOTH",
"147 595 OFFCURVE",
"160 600 OFFCURVE",
"168 609 CURVE SMOOTH",
"273 723 LINE SMOOTH",
"276 726 OFFCURVE",
"279 731 OFFCURVE",
"279 736 CURVE SMOOTH",
"279 748 OFFCURVE",
"271 755 OFFCURVE",
"259 755 CURVE SMOOTH",
"147 755 LINE SMOOTH",
"126 755 OFFCURVE",
"116 749 OFFCURVE",
"110 736 CURVE SMOOTH"
);
},
{
closed = 1;
nodes = (
"280 626 LINE SMOOTH",
"278 622 OFFCURVE",
"275 616 OFFCURVE",
"275 611 CURVE SMOOTH",
"275 601 OFFCURVE",
"281 595 OFFCURVE",
"291 595 CURVE SMOOTH",
"354 595 LINE SMOOTH",
"367 595 OFFCURVE",
"380 600 OFFCURVE",
"388 609 CURVE SMOOTH",
"493 723 LINE SMOOTH",
"496 726 OFFCURVE",
"499 731 OFFCURVE",
"499 736 CURVE SMOOTH",
"499 748 OFFCURVE",
"491 755 OFFCURVE",
"479 755 CURVE SMOOTH",
"367 755 LINE SMOOTH",
"346 755 OFFCURVE",
"336 749 OFFCURVE",
"330 736 CURVE SMOOTH"
);
}
);
width = 554;
},
{
associatedMasterId = "7891CA1A-7632-4D56-9F64-CBE5433B6847";
layerId = "EBCD298A-9C51-488A-B43D-5D3FB5B7406C";
width = 600;
},
{
guideLines = (
{
position = "{0, 595}";
}
);
hints = (
{
horizontal = 1;
place = "{9223372036854775808.000000, 0.000000}";
type = Tag;
name = hr00;
}
);
layerId = "23D188E6-7019-4CFD-8C83-9B160EBC8A6F";
name = Bold;
paths = (
{
closed = 1;
nodes = (
"57 626 LINE SMOOTH",
"55 622 OFFCURVE",
"52 616 OFFCURVE",
"52 611 CURVE SMOOTH",
"52 601 OFFCURVE",
"58 595 OFFCURVE",
"68 595 CURVE SMOOTH",
"161 595 LINE SMOOTH",
"174 595 OFFCURVE",
"187 600 OFFCURVE",
"195 609 CURVE SMOOTH",
"309 733 LINE SMOOTH",
"312 736 OFFCURVE",
"315 741 OFFCURVE",
"315 746 CURVE SMOOTH",
"315 758 OFFCURVE",
"307 765 OFFCURVE",
"295 765 CURVE SMOOTH",
"148 765 LINE SMOOTH",
"127 765 OFFCURVE",
"117 759 OFFCURVE",
"111 746 CURVE SMOOTH"
);
},
{
closed = 1;
nodes = (
"313 626 LINE SMOOTH",
"311 622 OFFCURVE",
"308 616 OFFCURVE",
"308 611 CURVE SMOOTH",
"308 601 OFFCURVE",
"314 595 OFFCURVE",
"324 595 CURVE SMOOTH",
"417 595 LINE SMOOTH",
"430 595 OFFCURVE",
"443 600 OFFCURVE",
"451 609 CURVE SMOOTH",
"565 733 LINE SMOOTH",
"568 736 OFFCURVE",
"571 741 OFFCURVE",
"571 746 CURVE SMOOTH",
"571 758 OFFCURVE",
"563 765 OFFCURVE",
"551 765 CURVE SMOOTH",
"404 765 LINE SMOOTH",
"383 765 OFFCURVE",
"373 759 OFFCURVE",
"367 746 CURVE SMOOTH"
);
}
);
width = 622;
},
{
guideLines = (
{
position = "{0, 595}";
}
);
hints = (
{
horizontal = 1;
place = "{9223372036854775808.000000, 0.000000}";
type = Tag;
name = hr00;
}
);
layerId = "3B5D4880-7EC1-45C7-ACF2-835190E6862B";
name = SemiLight;
paths = (
{
closed = 1;
nodes = (
"70 626 LINE SMOOTH",
"68 622 OFFCURVE",
"65 616 OFFCURVE",
"65 611 CURVE SMOOTH",
"65 601 OFFCURVE",
"71 595 OFFCURVE",
"81 595 CURVE SMOOTH",
"109 595 LINE SMOOTH",
"122 595 OFFCURVE",
"135 600 OFFCURVE",
"143 609 CURVE SMOOTH",
"230 703 LINE SMOOTH",
"233 706 OFFCURVE",
"236 711 OFFCURVE",
"236 716 CURVE SMOOTH",
"236 728 OFFCURVE",
"228 735 OFFCURVE",
"216 735 CURVE SMOOTH",
"147 735 LINE SMOOTH",
"126 735 OFFCURVE",
"116 729 OFFCURVE",
"110 716 CURVE SMOOTH"
);
},
{
closed = 1;
nodes = (
"247 626 LINE SMOOTH",
"245 622 OFFCURVE",
"242 616 OFFCURVE",
"242 611 CURVE SMOOTH",
"242 601 OFFCURVE",
"248 595 OFFCURVE",
"258 595 CURVE SMOOTH",
"286 595 LINE SMOOTH",
"299 595 OFFCURVE",
"312 600 OFFCURVE",
"320 609 CURVE SMOOTH",
"407 703 LINE SMOOTH",
"410 706 OFFCURVE",
"413 711 OFFCURVE",
"413 716 CURVE SMOOTH",
"413 728 OFFCURVE",
"405 735 OFFCURVE",
"393 735 CURVE SMOOTH",
"324 735 LINE SMOOTH",
"303 735 OFFCURVE",
"293 729 OFFCURVE",
"287 716 CURVE SMOOTH"
);
}
);
width = 478;
}
);
unicode = 02DD;
userData = {
com.typemytype.robofont.guides = (
{
angle = 0;
isGlobal = 0;
x = 0;
y = 595;
}
);
};
},
{
glyphname = grave;
lastChange = "2015-11-19 08:48:24 +0000";
layers = (
{
guideLines = (
{
position = "{0, 595}";
},
{
position = "{0, 725}";
}
);
hints = (
{
horizontal = 1;
origin = "{0, 0}";
type = Tag;
name = hr00;
}
);
layerId = "7891CA1A-7632-4D56-9F64-CBE5433B6847";
name = Light;
paths = (
{
closed = 1;
nodes = (
"167 707 LINE SMOOTH",
"156 720 OFFCURVE",
"150 725 OFFCURVE",
"130 725 CURVE SMOOTH",
"89 725 LINE SMOOTH",
"77 725 OFFCURVE",
"70 718 OFFCURVE",
"70 706 CURVE SMOOTH",
"70 701 OFFCURVE",
"72 697 OFFCURVE",
"75 694 CURVE SMOOTH",
"184 605 LINE SMOOTH",
"195 596 OFFCURVE",
"202 595 OFFCURVE",
"215 595 CURVE SMOOTH",
"225 595 LINE SMOOTH",
"235 595 OFFCURVE",
"241 601 OFFCURVE",
"241 611 CURVE SMOOTH",
"241 616 OFFCURVE",
"239 621 OFFCURVE",
"236 624 CURVE SMOOTH"
);
}
);
width = 311;
},
{
associatedMasterId = "7891CA1A-7632-4D56-9F64-CBE5433B6847";
layerId = "2C2961A1-FB91-4944-9F77-3476E1CA3B43";
width = 600;
},
{
guideLines = (
{
position = "{0, 595}";
}
);
hints = (
{
horizontal = 1;
place = "{9223372036854775808.000000, 0.000000}";
type = Tag;
name = hr00;
}
);
layerId = "794B2617-B5E8-46A3-BB57-9FF4B4129D38";
name = Regular;
paths = (
{
closed = 1;
nodes = (
"211 726 LINE SMOOTH",
"196 743 OFFCURVE",
"189 745 OFFCURVE",
"174 745 CURVE SMOOTH",
"79 745 LINE SMOOTH",
"67 745 OFFCURVE",
"60 737 OFFCURVE",
"60 725 CURVE SMOOTH",
"60 720 OFFCURVE",
"62 716 OFFCURVE",
"65 713 CURVE SMOOTH",
"188 612 LINE SMOOTH",
"199 603 OFFCURVE",
"209 595 OFFCURVE",
"230 595 CURVE SMOOTH",
"285 595 LINE SMOOTH",
"295 595 OFFCURVE",
"301 601 OFFCURVE",
"301 611 CURVE SMOOTH",
"301 616 OFFCURVE",
"299 620 OFFCURVE",
"296 624 CURVE SMOOTH"
);
}
);
width = 361;
},
{
associatedMasterId = "7891CA1A-7632-4D56-9F64-CBE5433B6847";
layerId = "B59C78E1-B6F6-4A7C-9E53-DC2ADEC481BE";
width = 600;
},
{
hints = (
{
horizontal = 1;
place = "{9223372036854775808.000000, 0.000000}";
type = Tag;
name = hr00;
}
);
layerId = "A67CAC85-0E07-4E45-8FAE-4EA88B7D3365";
name = SemiBold;
paths = (
{
closed = 1;
nodes = (
"244 736 LINE SMOOTH",
"229 753 OFFCURVE",
"222 755 OFFCURVE",
"207 755 CURVE SMOOTH",
"74 755 LINE SMOOTH",
"62 755 OFFCURVE",
"55 747 OFFCURVE",
"55 735 CURVE SMOOTH",
"55 730 OFFCURVE",
"57 726 OFFCURVE",
"60 723 CURVE SMOOTH",
"195 612 LINE SMOOTH",
"206 603 OFFCURVE",
"216 595 OFFCURVE",
"237 595 CURVE SMOOTH",
"325 595 LINE SMOOTH",
"335 595 OFFCURVE",
"341 601 OFFCURVE",
"341 611 CURVE SMOOTH",
"341 616 OFFCURVE",
"339 621 OFFCURVE",
"336 624 CURVE SMOOTH"
);
}
);
width = 396;
},
{
associatedMasterId = "7891CA1A-7632-4D56-9F64-CBE5433B6847";
layerId = "EBCD298A-9C51-488A-B43D-5D3FB5B7406C";
width = 600;
},
{
guideLines = (
{
position = "{0, 595}";
}
);
hints = (
{
horizontal = 1;
place = "{9223372036854775808.000000, 0.000000}";
type = Tag;
name = hr00;
}
);
layerId = "23D188E6-7019-4CFD-8C83-9B160EBC8A6F";
name = Bold;
paths = (
{
closed = 1;
nodes = (
"295 746 LINE",
"280 763 OFFCURVE",
"273 765 OFFCURVE",
"258 765 CURVE SMOOTH",
"72 765 LINE SMOOTH",
"60 765 OFFCURVE",
"53 757 OFFCURVE",
"53 745 CURVE SMOOTH",
"53 740 OFFCURVE",
"55 736 OFFCURVE",
"58 733 CURVE SMOOTH",
"205 612 LINE SMOOTH",
"216 603 OFFCURVE",
"226 595 OFFCURVE",
"247 595 CURVE SMOOTH",
"384 595 LINE SMOOTH",
"394 595 OFFCURVE",
"400 601 OFFCURVE",
"400 611 CURVE SMOOTH",
"400 616 OFFCURVE",
"398 621 OFFCURVE",
"395 624 CURVE SMOOTH"
);
}
);
width = 450;
},
{
guideLines = (
{
position = "{0, 876}";
},
{
position = "{0, 595}";
}
);
hints = (
{
horizontal = 1;
place = "{9223372036854775808.000000, 0.000000}";
type = Tag;
name = hr00;
}
);
layerId = "3B5D4880-7EC1-45C7-ACF2-835190E6862B";
name = SemiLight;
paths = (
{
closed = 1;
nodes = (
"195 716 LINE SMOOTH",
"180 733 OFFCURVE",
"173 735 OFFCURVE",
"158 735 CURVE SMOOTH",
"84 735 LINE SMOOTH",
"72 735 OFFCURVE",
"65 727 OFFCURVE",
"65 715 CURVE SMOOTH",
"65 710 OFFCURVE",
"67 706 OFFCURVE",
"70 703 CURVE SMOOTH",
"181 612 LINE SMOOTH",
"192 603 OFFCURVE",
"202 595 OFFCURVE",
"223 595 CURVE SMOOTH",
"260 595 LINE SMOOTH",
"270 595 OFFCURVE",
"276 601 OFFCURVE",
"276 611 CURVE SMOOTH",
"276 616 OFFCURVE",
"274 621 OFFCURVE",
"271 624 CURVE SMOOTH"
);
}
);
width = 331;
}
);
unicode = 0060;
userData = {
com.typemytype.robofont.guides = (
{
angle = 0;
isGlobal = 0;
x = 0;
y = 595;
},
{
angle = 0;
isGlobal = 0;
x = 0;
y = 725;
}
);
};
},
{
glyphname = macron;
lastChange = "2015-11-19 08:48:24 +0000";
layers = (
{
guideLines = (
{
position = "{0, 595}";
}
);
hints = (
{
horizontal = 1;
origin = "{0, 0}";
type = Tag;
name = hr00;
}
);
layerId = "7891CA1A-7632-4D56-9F64-CBE5433B6847";
name = Light;
paths = (
{
closed = 1;
nodes = (
"291 622 LINE SMOOTH",
"304 622 OFFCURVE",
"313 631 OFFCURVE",
"313 644 CURVE SMOOTH",
"313 658 LINE SMOOTH",
"313 671 OFFCURVE",
"304 680 OFFCURVE",
"291 680 CURVE SMOOTH",
"92 680 LINE SMOOTH",
"79 680 OFFCURVE",
"70 671 OFFCURVE",
"70 658 CURVE SMOOTH",
"70 644 LINE SMOOTH",
"70 631 OFFCURVE",
"79 622 OFFCURVE",
"92 622 CURVE SMOOTH"
);
}
);
width = 383;
},
{
associatedMasterId = "7891CA1A-7632-4D56-9F64-CBE5433B6847";
layerId = "2C2961A1-FB91-4944-9F77-3476E1CA3B43";
width = 600;
},
{
guideLines = (
{
position = "{0, 595}";
},
{
position = "{0, 695}";
}
);
hints = (
{
horizontal = 1;
place = "{9223372036854775808.000000, 0.000000}";
type = Tag;
name = hr00;
}
);
layerId = "794B2617-B5E8-46A3-BB57-9FF4B4129D38";
name = Regular;
paths = (
{
closed = 1;
nodes = (
"346 595 LINE SMOOTH",
"361 595 OFFCURVE",
"373 607 OFFCURVE",
"373 622 CURVE SMOOTH",
"373 688 LINE SMOOTH",
"373 703 OFFCURVE",
"361 715 OFFCURVE",
"346 715 CURVE SMOOTH",
"87 715 LINE SMOOTH",
"72 715 OFFCURVE",
"60 703 OFFCURVE",
"60 688 CURVE SMOOTH",
"60 622 LINE SMOOTH",
"60 607 OFFCURVE",
"72 595 OFFCURVE",
"87 595 CURVE SMOOTH"
);
}
);
width = 433;
},
{
associatedMasterId = "7891CA1A-7632-4D56-9F64-CBE5433B6847";
layerId = "B59C78E1-B6F6-4A7C-9E53-DC2ADEC481BE";
width = 600;
},
{
hints = (
{
horizontal = 1;
place = "{9223372036854775808.000000, 0.000000}";
type = Tag;
name = hr00;
}
);
layerId = "A67CAC85-0E07-4E45-8FAE-4EA88B7D3365";
name = SemiBold;
paths = (
{
closed = 1;
nodes = (
"371 595 LINE SMOOTH",
"386 595 OFFCURVE",
"398 607 OFFCURVE",
"398 622 CURVE SMOOTH",
"398 708 LINE SMOOTH",
"398 723 OFFCURVE",
"386 735 OFFCURVE",
"371 735 CURVE SMOOTH",
"82 735 LINE SMOOTH",
"67 735 OFFCURVE",
"55 723 OFFCURVE",
"55 708 CURVE SMOOTH",
"55 622 LINE SMOOTH",
"55 607 OFFCURVE",
"67 595 OFFCURVE",
"82 595 CURVE SMOOTH"
);
}
);
width = 453;
},
{
associatedMasterId = "7891CA1A-7632-4D56-9F64-CBE5433B6847";
layerId = "EBCD298A-9C51-488A-B43D-5D3FB5B7406C";
width = 600;
},
{
guideLines = (
{
position = "{0, 595}";
}
);
hints = (
{
horizontal = 1;
place = "{9223372036854775808.000000, 0.000000}";
type = Tag;
name = hr00;
}
);
layerId = "23D188E6-7019-4CFD-8C83-9B160EBC8A6F";
name = Bold;
paths = (
{
closed = 1;
nodes = (
"73 745 LINE SMOOTH",
"60 745 OFFCURVE",
"50 735 OFFCURVE",
"50 722 CURVE SMOOTH",
"50 618 LINE SMOOTH",
"50 605 OFFCURVE",
"60 595 OFFCURVE",
"73 595 CURVE SMOOTH",
"400 595 LINE SMOOTH",
"413 595 OFFCURVE",
"423 605 OFFCURVE",
"423 618 CURVE SMOOTH",
"423 722 LINE SMOOTH",
"423 735 OFFCURVE",
"413 745 OFFCURVE",
"400 745 CURVE SMOOTH"
);
}
);
width = 473;
},
{
guideLines = (
{
position = "{0, 595}";
},
{
angle = 90;
position = "{338, 0}";
}
);
hints = (
{
horizontal = 1;
place = "{9223372036854775808.000000, 0.000000}";
type = Tag;
name = hr00;
}
);
layerId = "3B5D4880-7EC1-45C7-ACF2-835190E6862B";
name = SemiLight;
paths = (
{
closed = 1;
nodes = (
"311 605 LINE SMOOTH",
"326 605 OFFCURVE",
"338 617 OFFCURVE",
"338 632 CURVE SMOOTH",
"338 664 LINE SMOOTH",
"338 679 OFFCURVE",
"326 691 OFFCURVE",
"311 691 CURVE SMOOTH",
"92 691 LINE SMOOTH",
"77 691 OFFCURVE",
"65 679 OFFCURVE",
"65 664 CURVE SMOOTH",
"65 632 LINE SMOOTH",
"65 617 OFFCURVE",
"77 605 OFFCURVE",
"92 605 CURVE SMOOTH"
);
}
);
width = 403;
}
);
unicode = 00AF;
userData = {
com.typemytype.robofont.guides = (
{
angle = 0;
isGlobal = 0;
x = 0;
y = 595;
}
);
};
},
{
glyphname = ogonek;
lastChange = "2015-11-19 08:48:24 +0000";
layers = (
{
guideLines = (
{
position = "{0, -220}";
}
);
hints = (
{
horizontal = 1;
origin = "{0, 11}";
type = Tag;
name = hr01;
},
{
horizontal = 1;
origin = "{0, 18}";
type = Tag;
name = hr02;
}
);
layerId = "7891CA1A-7632-4D56-9F64-CBE5433B6847";
name = Light;
paths = (
{
closed = 1;
nodes = (
"221 -220 LINE SMOOTH",
"234 -220 OFFCURVE",
"243 -211 OFFCURVE",
"243 -198 CURVE SMOOTH",
"243 -185 LINE SMOOTH",
"243 -172 OFFCURVE",
"234 -163 OFFCURVE",
"221 -163 CURVE SMOOTH",
"206 -163 LINE SMOOTH",
"162 -163 OFFCURVE",
"130 -133 OFFCURVE",
"130 -82 CURVE SMOOTH",
"130 -31 OFFCURVE",
"162 0 OFFCURVE",
"206 0 CURVE SMOOTH",
"221 0 LINE SMOOTH",
"234 0 OFFCURVE",
"243 9 OFFCURVE",
"243 22 CURVE SMOOTH",
"243 35 LINE SMOOTH",
"243 48 OFFCURVE",
"234 57 OFFCURVE",
"221 57 CURVE SMOOTH",
"202 57 LINE SMOOTH",
"121 57 OFFCURVE",
"70 3 OFFCURVE",
"70 -82 CURVE SMOOTH",
"70 -167 OFFCURVE",
"121 -220 OFFCURVE",
"202 -220 CURVE SMOOTH"
);
}
);
width = 313;
},
{
associatedMasterId = "7891CA1A-7632-4D56-9F64-CBE5433B6847";
layerId = "2C2961A1-FB91-4944-9F77-3476E1CA3B43";
width = 600;
},
{
guideLines = (
{
position = "{0, -220}";
}
);
hints = (
{
horizontal = 1;
place = "{9223372036854775808.000000, 0.000000}";
type = Tag;
name = hr01;
},
{
horizontal = 1;
place = "{9223372036854775808.000000, 0.000000}";
type = Tag;
name = hr02;
}
);
layerId = "794B2617-B5E8-46A3-BB57-9FF4B4129D38";
name = Regular;
paths = (
{
closed = 1;
nodes = (
"232 -220 LINE SMOOTH",
"245 -220 OFFCURVE",
"254 -211 OFFCURVE",
"254 -198 CURVE SMOOTH",
"254 -150 LINE SMOOTH",
"254 -137 OFFCURVE",
"245 -128 OFFCURVE",
"232 -128 CURVE SMOOTH",
"217 -128 LINE SMOOTH",
"183 -128 OFFCURVE",
"159 -105 OFFCURVE",
"159 -64 CURVE SMOOTH",
"159 -23 OFFCURVE",
"183 0 OFFCURVE",
"217 0 CURVE SMOOTH",
"232 0 LINE SMOOTH",
"245 0 OFFCURVE",
"254 9 OFFCURVE",
"254 22 CURVE SMOOTH",
"254 70 LINE SMOOTH",
"254 83 OFFCURVE",
"245 92 OFFCURVE",
"232 92 CURVE SMOOTH",
"213 92 LINE SMOOTH",
"122 92 OFFCURVE",
"60 31 OFFCURVE",
"60 -64 CURVE SMOOTH",
"60 -159 OFFCURVE",
"122 -220 OFFCURVE",
"213 -220 CURVE SMOOTH"
);
}
);
width = 314;
},
{
associatedMasterId = "7891CA1A-7632-4D56-9F64-CBE5433B6847";
layerId = "B59C78E1-B6F6-4A7C-9E53-DC2ADEC481BE";
width = 600;
},
{
guideLines = (
{
position = "{0, -220}";
},
{
angle = 90;
position = "{769, 0}";
},
{
angle = 90;
position = "{754, 0}";
}
);
hints = (
{
horizontal = 1;
place = "{9223372036854775808.000000, 0.000000}";
type = Tag;
name = hr01;
},
{
horizontal = 1;
place = "{9223372036854775808.000000, 0.000000}";
type = Tag;
name = hr02;
}
);
layerId = "A67CAC85-0E07-4E45-8FAE-4EA88B7D3365";
name = SemiBold;
paths = (
{
closed = 1;
nodes = (
"236 -220 LINE SMOOTH",
"249 -220 OFFCURVE",
"258 -211 OFFCURVE",
"258 -198 CURVE SMOOTH",
"258 -134 LINE SMOOTH",
"258 -121 OFFCURVE",
"249 -112 OFFCURVE",
"236 -112 CURVE SMOOTH",
"221 -112 LINE SMOOTH",
"187 -112 OFFCURVE",
"167 -87 OFFCURVE",
"167 -56 CURVE SMOOTH",
"167 -25 OFFCURVE",
"187 0 OFFCURVE",
"221 0 CURVE SMOOTH",
"236 0 LINE SMOOTH",
"249 0 OFFCURVE",
"258 9 OFFCURVE",
"258 22 CURVE SMOOTH",
"258 86 LINE SMOOTH",
"258 99 OFFCURVE",
"249 108 OFFCURVE",
"236 108 CURVE SMOOTH",
"217 108 LINE SMOOTH",
"116 108 OFFCURVE",
"55 39 OFFCURVE",
"55 -56 CURVE SMOOTH",
"55 -151 OFFCURVE",
"116 -220 OFFCURVE",
"217 -220 CURVE SMOOTH"
);
}
);
width = 313;
},
{
associatedMasterId = "7891CA1A-7632-4D56-9F64-CBE5433B6847";
layerId = "EBCD298A-9C51-488A-B43D-5D3FB5B7406C";
width = 600;
},
{
guideLines = (
{
position = "{0, 27}";
},
{
position = "{0, 112}";
},
{
position = "{0, 85}";
},
{
position = "{0, -190}";
},
{
position = "{0, -220}";
},
{
angle = 90;
position = "{764, 0}";
},
{
angle = 90;
position = "{749, 0}";
}
);
hints = (
{
horizontal = 1;
place = "{9223372036854775808.000000, 0.000000}";
type = Tag;
name = hr01;
}
);
layerId = "23D188E6-7019-4CFD-8C83-9B160EBC8A6F";
name = Bold;
paths = (
{
closed = 1;
nodes = (
"226 -98 LINE SMOOTH",
"241 -98 OFFCURVE",
"253 -110 OFFCURVE",
"253 -125 CURVE SMOOTH",
"253 -193 LINE SMOOTH",
"253 -208 OFFCURVE",
"241 -220 OFFCURVE",
"226 -220 CURVE SMOOTH",
"212 -220 LINE SMOOTH",
"91 -220 OFFCURVE",
"40 -144 OFFCURVE",
"40 -49 CURVE SMOOTH",
"40 46 OFFCURVE",
"91 122 OFFCURVE",
"212 122 CURVE SMOOTH",
"226 122 LINE SMOOTH",
"241 122 OFFCURVE",
"253 110 OFFCURVE",
"253 95 CURVE SMOOTH",
"253 27 LINE SMOOTH",
"253 12 OFFCURVE",
"241 0 OFFCURVE",
"226 0 CURVE SMOOTH",
"216 0 LINE SMOOTH",
"177 0 OFFCURVE",
"166 -28 OFFCURVE",
"166 -49 CURVE SMOOTH",
"166 -70 OFFCURVE",
"177 -98 OFFCURVE",
"216 -98 CURVE SMOOTH"
);
}
);
width = 303;
},
{
guideLines = (
{
position = "{0, -220}";
},
{
angle = 90;
position = "{760, 0}";
},
{
angle = 90;
position = "{745, 0}";
}
);
hints = (
{
horizontal = 1;
place = "{9223372036854775808.000000, 0.000000}";
type = Tag;
name = hr01;
},
{
horizontal = 1;
place = "{9223372036854775808.000000, 0.000000}";
type = Tag;
name = hr02;
}
);
layerId = "3B5D4880-7EC1-45C7-ACF2-835190E6862B";
name = SemiLight;
paths = (
{
closed = 1;
nodes = (
"208 -220 LINE SMOOTH",
"127 -220 OFFCURVE",
"65 -169 OFFCURVE",
"65 -74 CURVE SMOOTH",
"65 21 OFFCURVE",
"127 72 OFFCURVE",
"208 72 CURVE SMOOTH",
"227 72 LINE SMOOTH",
"240 72 OFFCURVE",
"249 63 OFFCURVE",
"249 50 CURVE SMOOTH",
"249 22 LINE SMOOTH",
"249 9 OFFCURVE",
"240 0 OFFCURVE",
"227 0 CURVE SMOOTH",
"212 0 LINE SMOOTH",
"168 0 OFFCURVE",
"146 -23 OFFCURVE",
"146 -74 CURVE SMOOTH",
"146 -125 OFFCURVE",
"168 -148 OFFCURVE",
"212 -148 CURVE SMOOTH",
"227 -148 LINE SMOOTH",
"240 -148 OFFCURVE",
"249 -157 OFFCURVE",
"249 -170 CURVE SMOOTH",
"249 -198 LINE SMOOTH",
"249 -211 OFFCURVE",
"240 -220 OFFCURVE",
"227 -220 CURVE SMOOTH"
);
}
);
width = 314;
}
);
unicode = 02DB;
userData = {
com.typemytype.robofont.guides = (
{
angle = 0;
isGlobal = 0;
x = 0;
y = -220;
}
);
};
},
{
glyphname = ring;
lastChange = "2015-11-19 08:48:24 +0000";
layers = (
{
guideLines = (
{
position = "{0, 590}";
}
);
hints = (
{
horizontal = 1;
origin = "{0, 0}";
type = Tag;
name = hr00;
}
);
layerId = "7891CA1A-7632-4D56-9F64-CBE5433B6847";
name = Light;
paths = (
{
closed = 1;
nodes = (
"120 665 CURVE SMOOTH",
"120 682 OFFCURVE",
"133 695 OFFCURVE",
"150 695 CURVE SMOOTH",
"167 695 OFFCURVE",
"180 682 OFFCURVE",
"180 665 CURVE SMOOTH",
"180 648 OFFCURVE",
"167 635 OFFCURVE",
"150 635 CURVE SMOOTH",
"133 635 OFFCURVE",
"120 648 OFFCURVE"
);
},
{
closed = 1;
nodes = (
"70 665 CURVE SMOOTH",
"70 621 OFFCURVE",
"106 590 OFFCURVE",
"150 590 CURVE SMOOTH",
"194 590 OFFCURVE",
"230 621 OFFCURVE",
"230 665 CURVE SMOOTH",
"230 709 OFFCURVE",
"194 740 OFFCURVE",
"150 740 CURVE SMOOTH",
"106 740 OFFCURVE",
"70 709 OFFCURVE"
);
}
);
width = 300;
},
{
associatedMasterId = "7891CA1A-7632-4D56-9F64-CBE5433B6847";
layerId = "2C2961A1-FB91-4944-9F77-3476E1CA3B43";
width = 600;
},
{
guideLines = (
{
position = "{0, 595}";
}
);
hints = (
{
horizontal = 1;
place = "{9223372036854775808.000000, 0.000000}";
type = Tag;
name = hr00;
}
);
layerId = "794B2617-B5E8-46A3-BB57-9FF4B4129D38";
name = Regular;
paths = (
{
closed = 1;
nodes = (
"120 675 CURVE SMOOTH",
"120 692 OFFCURVE",
"133 705 OFFCURVE",
"150 705 CURVE SMOOTH",
"167 705 OFFCURVE",
"180 692 OFFCURVE",
"180 675 CURVE SMOOTH",
"180 658 OFFCURVE",
"167 645 OFFCURVE",
"150 645 CURVE SMOOTH",
"133 645 OFFCURVE",
"120 658 OFFCURVE"
);
},
{
closed = 1;
nodes = (
"60 675 CURVE SMOOTH",
"60 625 OFFCURVE",
"100 590 OFFCURVE",
"150 590 CURVE SMOOTH",
"200 590 OFFCURVE",
"240 625 OFFCURVE",
"240 675 CURVE SMOOTH",
"240 725 OFFCURVE",
"200 760 OFFCURVE",
"150 760 CURVE SMOOTH",
"100 760 OFFCURVE",
"60 725 OFFCURVE"
);
}
);
width = 300;
},
{
associatedMasterId = "7891CA1A-7632-4D56-9F64-CBE5433B6847";
layerId = "B59C78E1-B6F6-4A7C-9E53-DC2ADEC481BE";
width = 600;
},
{
guideLines = (
{
position = "{0, 590}";
}
);
hints = (
{
horizontal = 1;
place = "{9223372036854775808.000000, 0.000000}";
type = Tag;
name = hr00;
}
);
layerId = "A67CAC85-0E07-4E45-8FAE-4EA88B7D3365";
name = SemiBold;
paths = (
{
closed = 1;
nodes = (
"120 680 CURVE SMOOTH",
"120 697 OFFCURVE",
"133 710 OFFCURVE",
"150 710 CURVE SMOOTH",
"167 710 OFFCURVE",
"180 697 OFFCURVE",
"180 680 CURVE SMOOTH",
"180 663 OFFCURVE",
"167 650 OFFCURVE",
"150 650 CURVE SMOOTH",
"133 650 OFFCURVE",
"120 663 OFFCURVE"
);
},
{
closed = 1;
nodes = (
"55 680 CURVE SMOOTH",
"55 628 OFFCURVE",
"98 590 OFFCURVE",
"150 590 CURVE SMOOTH",
"202 590 OFFCURVE",
"245 628 OFFCURVE",
"245 680 CURVE SMOOTH",
"245 732 OFFCURVE",
"202 770 OFFCURVE",
"150 770 CURVE SMOOTH",
"98 770 OFFCURVE",
"55 732 OFFCURVE"
);
}
);
width = 300;
},
{
associatedMasterId = "7891CA1A-7632-4D56-9F64-CBE5433B6847";
layerId = "EBCD298A-9C51-488A-B43D-5D3FB5B7406C";
width = 600;
},
{
guideLines = (
{
position = "{0, 750}";
},
{
position = "{0, 590}";
},
{
position = "{0, 655}";
}
);
hints = (
{
horizontal = 1;
place = "{9223372036854775808.000000, 0.000000}";
type = Tag;
name = hr00;
}
);
layerId = "23D188E6-7019-4CFD-8C83-9B160EBC8A6F";
name = Bold;
paths = (
{
closed = 1;
nodes = (
"120 685 CURVE SMOOTH",
"120 702 OFFCURVE",
"133 715 OFFCURVE",
"150 715 CURVE SMOOTH",
"167 715 OFFCURVE",
"180 702 OFFCURVE",
"180 685 CURVE SMOOTH",
"180 668 OFFCURVE",
"167 655 OFFCURVE",
"150 655 CURVE SMOOTH",
"133 655 OFFCURVE",
"120 668 OFFCURVE"
);
},
{
closed = 1;
nodes = (
"50 685 CURVE SMOOTH",
"50 630 OFFCURVE",
"95 590 OFFCURVE",
"150 590 CURVE SMOOTH",
"205 590 OFFCURVE",
"250 630 OFFCURVE",
"250 685 CURVE SMOOTH",
"250 740 OFFCURVE",
"205 780 OFFCURVE",
"150 780 CURVE SMOOTH",
"95 780 OFFCURVE",
"50 740 OFFCURVE"
);
}
);
width = 300;
},
{
guideLines = (
{
position = "{0, 590}";
}
);
hints = (
{
horizontal = 1;
place = "{9223372036854775808.000000, 0.000000}";
type = Tag;
name = hr00;
}
);
layerId = "3B5D4880-7EC1-45C7-ACF2-835190E6862B";
name = SemiLight;
paths = (
{
closed = 1;
nodes = (
"120 670 CURVE SMOOTH",
"120 687 OFFCURVE",
"133 700 OFFCURVE",
"150 700 CURVE SMOOTH",
"167 700 OFFCURVE",
"180 687 OFFCURVE",
"180 670 CURVE SMOOTH",
"180 653 OFFCURVE",
"167 640 OFFCURVE",
"150 640 CURVE SMOOTH",
"133 640 OFFCURVE",
"120 653 OFFCURVE"
);
},
{
closed = 1;
nodes = (
"65 670 CURVE SMOOTH",
"65 623 OFFCURVE",
"103 590 OFFCURVE",
"150 590 CURVE SMOOTH",
"197 590 OFFCURVE",
"235 623 OFFCURVE",
"235 670 CURVE SMOOTH",
"235 717 OFFCURVE",
"197 750 OFFCURVE",
"150 750 CURVE SMOOTH",
"103 750 OFFCURVE",
"65 717 OFFCURVE"
);
}
);
width = 300;
}
);
unicode = 02DA;
userData = {
com.typemytype.robofont.guides = (
{
angle = 0;
isGlobal = 0;
x = 0;
y = 590;
}
);
};
},
{
glyphname = tilde;
lastChange = "2015-11-19 08:48:24 +0000";
layers = (
{
guideLines = (
{
position = "{0, 680}";
},
{
position = "{0, 595}";
},
{
angle = 90;
position = "{179, 0}";
}
);
hints = (
{
horizontal = 1;
origin = "{0, 10}";
type = Tag;
name = hr01;
},
{
horizontal = 1;
origin = "{0, 23}";
type = Tag;
name = hr02;
}
);
layerId = "7891CA1A-7632-4D56-9F64-CBE5433B6847";
name = Light;
paths = (
{
closed = 1;
nodes = (
"70 611 CURVE SMOOTH",
"70 603 OFFCURVE",
"76 595 OFFCURVE",
"86 595 CURVE SMOOTH",
"106 595 LINE SMOOTH",
"127 595 OFFCURVE",
"124 624 OFFCURVE",
"147 624 CURVE SMOOTH",
"175 624 OFFCURVE",
"191 590 OFFCURVE",
"237 590 CURVE SMOOTH",
"277 590 OFFCURVE",
"309 626 OFFCURVE",
"309 664 CURVE SMOOTH",
"309 672 OFFCURVE",
"303 680 OFFCURVE",
"293 680 CURVE SMOOTH",
"273 680 LINE SMOOTH",
"251 680 OFFCURVE",
"256 650 OFFCURVE",
"232 650 CURVE SMOOTH",
"203 650 OFFCURVE",
"188 684 OFFCURVE",
"141 684 CURVE SMOOTH",
"100 684 OFFCURVE",
"70 649 OFFCURVE"
);
}
);
width = 379;
},
{
associatedMasterId = "7891CA1A-7632-4D56-9F64-CBE5433B6847";
layerId = "2C2961A1-FB91-4944-9F77-3476E1CA3B43";
width = 600;
},
{
guideLines = (
{
position = "{0, 595}";
}
);
hints = (
{
horizontal = 1;
place = "{9223372036854775808.000000, 0.000000}";
type = Tag;
name = hr01;
}
);
layerId = "794B2617-B5E8-46A3-BB57-9FF4B4129D38";
name = Regular;
paths = (
{
closed = 1;
nodes = (
"293 590 CURVE SMOOTH",
"360 590 OFFCURVE",
"398 656 OFFCURVE",
"398 706 CURVE SMOOTH",
"398 716 OFFCURVE",
"391 725 OFFCURVE",
"379 725 CURVE SMOOTH",
"323 725 LINE SMOOTH",
"300 725 OFFCURVE",
"308 696 OFFCURVE",
"277 696 CURVE SMOOTH",
"240 696 OFFCURVE",
"233 730 OFFCURVE",
"165 730 CURVE SMOOTH",
"98 730 OFFCURVE",
"60 664 OFFCURVE",
"60 614 CURVE SMOOTH",
"60 604 OFFCURVE",
"67 595 OFFCURVE",
"79 595 CURVE SMOOTH",
"135 595 LINE SMOOTH",
"158 595 OFFCURVE",
"150 624 OFFCURVE",
"181 624 CURVE SMOOTH",
"218 624 OFFCURVE",
"225 590 OFFCURVE"
);
}
);
width = 458;
},
{
associatedMasterId = "7891CA1A-7632-4D56-9F64-CBE5433B6847";
layerId = "B59C78E1-B6F6-4A7C-9E53-DC2ADEC481BE";
width = 600;
},
{
guideLines = (
{
position = "{0, 595}";
}
);
hints = (
{
horizontal = 1;
place = "{9223372036854775808.000000, 0.000000}";
type = Tag;
name = hr01;
}
);
layerId = "A67CAC85-0E07-4E45-8FAE-4EA88B7D3365";
name = SemiBold;
paths = (
{
closed = 1;
nodes = (
"331 590 CURVE SMOOTH",
"398 590 OFFCURVE",
"443 666 OFFCURVE",
"443 726 CURVE SMOOTH",
"443 736 OFFCURVE",
"436 745 OFFCURVE",
"424 745 CURVE SMOOTH",
"348 745 LINE SMOOTH",
"327 745 OFFCURVE",
"331 705 OFFCURVE",
"299 705 CURVE SMOOTH",
"256 705 OFFCURVE",
"246 750 OFFCURVE",
"167 750 CURVE SMOOTH",
"90 750 OFFCURVE",
"55 674 OFFCURVE",
"55 614 CURVE SMOOTH",
"55 604 OFFCURVE",
"62 595 OFFCURVE",
"74 595 CURVE SMOOTH",
"150 595 LINE SMOOTH",
"171 595 OFFCURVE",
"167 635 OFFCURVE",
"199 635 CURVE SMOOTH",
"242 635 OFFCURVE",
"252 590 OFFCURVE"
);
}
);
width = 498;
},
{
associatedMasterId = "7891CA1A-7632-4D56-9F64-CBE5433B6847";
layerId = "EBCD298A-9C51-488A-B43D-5D3FB5B7406C";
width = 600;
},
{
guideLines = (
{
position = "{0, 595}";
}
);
hints = (
{
horizontal = 1;
place = "{9223372036854775808.000000, 0.000000}";
type = Tag;
name = hr01;
},
{
horizontal = 1;
place = "{9223372036854775808.000000, 0.000000}";
type = Tag;
name = hr02;
}
);
layerId = "23D188E6-7019-4CFD-8C83-9B160EBC8A6F";
name = Bold;
paths = (
{
closed = 1;
nodes = (
"321 590 CURVE SMOOTH",
"430 590 OFFCURVE",
"457 700 OFFCURVE",
"457 746 CURVE SMOOTH",
"457 756 OFFCURVE",
"450 765 OFFCURVE",
"438 765 CURVE SMOOTH",
"354 765 LINE SMOOTH",
"332 765 OFFCURVE",
"334 734 OFFCURVE",
"304 734 CURVE SMOOTH",
"265 734 OFFCURVE",
"246 770 OFFCURVE",
"186 770 CURVE SMOOTH",
"76 770 OFFCURVE",
"50 659 OFFCURVE",
"50 613 CURVE SMOOTH",
"50 603 OFFCURVE",
"59 595 OFFCURVE",
"69 595 CURVE SMOOTH",
"153 595 LINE SMOOTH",
"175 595 OFFCURVE",
"172 626 OFFCURVE",
"203 626 CURVE SMOOTH",
"242 626 OFFCURVE",
"261 590 OFFCURVE"
);
}
);
width = 507;
},
{
guideLines = (
{
position = "{0, 595}";
}
);
hints = (
{
horizontal = 1;
place = "{9223372036854775808.000000, 0.000000}";
type = Tag;
name = hr01;
}
);
layerId = "3B5D4880-7EC1-45C7-ACF2-835190E6862B";
name = SemiLight;
paths = (
{
closed = 1;
nodes = (
"272 590 CURVE SMOOTH",
"334 590 OFFCURVE",
"358 656 OFFCURVE",
"358 686 CURVE SMOOTH",
"358 696 OFFCURVE",
"351 705 OFFCURVE",
"339 705 CURVE SMOOTH",
"302 705 LINE SMOOTH",
"281 705 OFFCURVE",
"290 678 OFFCURVE",
"259 678 CURVE SMOOTH",
"224 678 OFFCURVE",
"210 710 OFFCURVE",
"151 710 CURVE SMOOTH",
"89 710 OFFCURVE",
"65 644 OFFCURVE",
"65 614 CURVE SMOOTH",
"65 604 OFFCURVE",
"72 595 OFFCURVE",
"84 595 CURVE SMOOTH",
"121 595 LINE SMOOTH",
"142 595 OFFCURVE",
"133 622 OFFCURVE",
"164 622 CURVE SMOOTH",
"196 622 OFFCURVE",
"214 590 OFFCURVE"
);
}
);
width = 423;
}
);
unicode = 02DC;
userData = {
com.typemytype.robofont.guides = (
{
angle = 0;
isGlobal = 0;
x = 0;
y = 680;
},
{
angle = 0;
isGlobal = 0;
x = 0;
y = 595;
},
{
angle = 90;
isGlobal = 0;
x = 179;
y = 0;
}
);
};
},
{
glyphname = Acute;
lastChange = "2015-11-19 08:48:24 +0000";
layers = (
{
guideLines = (
{
position = "{0, 766}";
}
);
hints = (
{
horizontal = 1;
origin = "{0, 0}";
type = Tag;
name = hr00;
}
);
layerId = "7891CA1A-7632-4D56-9F64-CBE5433B6847";
name = Light;
paths = (
{
closed = 1;
nodes = (
"75 779 LINE SMOOTH",
"72 776 OFFCURVE",
"70 771 OFFCURVE",
"70 766 CURVE SMOOTH",
"70 756 OFFCURVE",
"76 750 OFFCURVE",
"86 750 CURVE SMOOTH",
"101 750 LINE SMOOTH",
"114 750 OFFCURVE",
"121 751 OFFCURVE",
"132 760 CURVE SMOOTH",
"241 849 LINE SMOOTH",
"244 852 OFFCURVE",
"246 856 OFFCURVE",
"246 861 CURVE SMOOTH",
"246 873 OFFCURVE",
"239 880 OFFCURVE",
"227 880 CURVE SMOOTH",
"181 880 LINE SMOOTH",
"161 880 OFFCURVE",
"155 875 OFFCURVE",
"144 862 CURVE SMOOTH"
);
}
);
width = 316;
},
{
associatedMasterId = "7891CA1A-7632-4D56-9F64-CBE5433B6847";
layerId = "2C2961A1-FB91-4944-9F77-3476E1CA3B43";
width = 600;
},
{
guideLines = (
{
position = "{0, 750}";
},
{
position = "{0, 900}";
}
);
hints = (
{
horizontal = 1;
place = "{9223372036854775808.000000, 0.000000}";
type = Tag;
name = hr00;
}
);
layerId = "794B2617-B5E8-46A3-BB57-9FF4B4129D38";
name = Regular;
paths = (
{
closed = 1;
nodes = (
"65 779 LINE SMOOTH",
"62 775 OFFCURVE",
"60 771 OFFCURVE",
"60 766 CURVE SMOOTH",
"60 756 OFFCURVE",
"66 750 OFFCURVE",
"76 750 CURVE SMOOTH",
"136 750 LINE SMOOTH",
"157 750 OFFCURVE",
"167 758 OFFCURVE",
"178 767 CURVE SMOOTH",
"301 868 LINE SMOOTH",
"304 871 OFFCURVE",
"306 875 OFFCURVE",
"306 880 CURVE SMOOTH",
"306 892 OFFCURVE",
"299 900 OFFCURVE",
"287 900 CURVE SMOOTH",
"187 900 LINE SMOOTH",
"172 900 OFFCURVE",
"165 898 OFFCURVE",
"150 881 CURVE SMOOTH"
);
}
);
width = 366;
},
{
associatedMasterId = "7891CA1A-7632-4D56-9F64-CBE5433B6847";
layerId = "B59C78E1-B6F6-4A7C-9E53-DC2ADEC481BE";
width = 600;
},
{
guideLines = (
{
position = "{0, 750}";
}
);
hints = (
{
horizontal = 1;
place = "{9223372036854775808.000000, 0.000000}";
type = Tag;
name = hr00;
}
);
layerId = "A67CAC85-0E07-4E45-8FAE-4EA88B7D3365";
name = SemiBold;
paths = (
{
closed = 1;
nodes = (
"60 779 LINE SMOOTH",
"57 776 OFFCURVE",
"55 771 OFFCURVE",
"55 766 CURVE SMOOTH",
"55 756 OFFCURVE",
"61 750 OFFCURVE",
"71 750 CURVE SMOOTH",
"169 750 LINE SMOOTH",
"190 750 OFFCURVE",
"200 758 OFFCURVE",
"211 767 CURVE SMOOTH",
"346 878 LINE SMOOTH",
"349 881 OFFCURVE",
"351 885 OFFCURVE",
"351 890 CURVE SMOOTH",
"351 902 OFFCURVE",
"344 910 OFFCURVE",
"332 910 CURVE SMOOTH",
"189 910 LINE SMOOTH",
"174 910 OFFCURVE",
"167 908 OFFCURVE",
"152 891 CURVE SMOOTH"
);
}
);
width = 406;
},
{
associatedMasterId = "7891CA1A-7632-4D56-9F64-CBE5433B6847";
layerId = "EBCD298A-9C51-488A-B43D-5D3FB5B7406C";
width = 600;
},
{
guideLines = (
{
position = "{0, 750}";
},
{
position = "{0, 920}";
},
{
position = "{0, 880}";
},
{
position = "{0, 910}";
},
{
position = "{0, 900}";
},
{
position = "{0, 890}";
},
{
angle = 90;
position = "{226, 0}";
},
{
angle = 90;
position = "{407, 0}";
},
{
angle = 90;
position = "{256, 0}";
},
{
angle = 90;
position = "{296, 0}";
},
{
angle = 90;
position = "{346, 0}";
}
);
hints = (
{
horizontal = 1;
place = "{9223372036854775808.000000, 0.000000}";
type = Tag;
name = hr00;
}
);
layerId = "23D188E6-7019-4CFD-8C83-9B160EBC8A6F";
name = Bold;
paths = (
{
closed = 1;
nodes = (
"55 779 LINE SMOOTH",
"52 776 OFFCURVE",
"50 771 OFFCURVE",
"50 766 CURVE SMOOTH",
"50 756 OFFCURVE",
"56 750 OFFCURVE",
"66 750 CURVE SMOOTH",
"213 750 LINE SMOOTH",
"234 750 OFFCURVE",
"244 758 OFFCURVE",
"255 767 CURVE SMOOTH",
"402 888 LINE SMOOTH",
"405 891 OFFCURVE",
"407 895 OFFCURVE",
"407 900 CURVE SMOOTH",
"407 912 OFFCURVE",
"400 920 OFFCURVE",
"388 920 CURVE SMOOTH",
"192 920 LINE SMOOTH",
"177 920 OFFCURVE",
"170 918 OFFCURVE",
"155 901 CURVE"
);
}
);
width = 460;
},
{
guideLines = (
{
position = "{0, 750}";
}
);
hints = (
{
horizontal = 1;
place = "{9223372036854775808.000000, 0.000000}";
type = Tag;
name = hr00;
}
);
layerId = "3B5D4880-7EC1-45C7-ACF2-835190E6862B";
name = SemiLight;
paths = (
{
closed = 1;
nodes = (
"60 779 LINE SMOOTH",
"57 776 OFFCURVE",
"55 771 OFFCURVE",
"55 766 CURVE SMOOTH",
"55 756 OFFCURVE",
"61 750 OFFCURVE",
"71 750 CURVE SMOOTH",
"113 750 LINE SMOOTH",
"134 750 OFFCURVE",
"144 758 OFFCURVE",
"155 767 CURVE SMOOTH",
"266 858 LINE SMOOTH",
"269 861 OFFCURVE",
"271 865 OFFCURVE",
"271 870 CURVE SMOOTH",
"271 882 OFFCURVE",
"264 890 OFFCURVE",
"252 890 CURVE SMOOTH",
"173 890 LINE SMOOTH",
"158 890 OFFCURVE",
"151 888 OFFCURVE",
"136 871 CURVE SMOOTH"
);
}
);
width = 336;
}
);
unicode = F6C9;
userData = {
com.typemytype.robofont.guides = (
{
angle = 0;
isGlobal = 0;
x = 0;
y = 766;
}
);
};
},
{
glyphname = Breve;
lastChange = "2015-11-19 08:48:24 +0000";
layers = (
{
hints = (
{
horizontal = 1;
origin = "{0, 16}";
type = Tag;
name = hr01;
},
{
horizontal = 1;
origin = "{0, 22}";
type = Tag;
name = hr02;
}
);
layerId = "7891CA1A-7632-4D56-9F64-CBE5433B6847";
name = Light;
paths = (
{
closed = 1;
nodes = (
"70 856 CURVE SMOOTH",
"70 799 OFFCURVE",
"94 740 OFFCURVE",
"185 740 CURVE SMOOTH",
"276 740 OFFCURVE",
"300 799 OFFCURVE",
"300 856 CURVE SMOOTH",
"300 866 OFFCURVE",
"293 875 OFFCURVE",
"281 875 CURVE SMOOTH",
"266 875 LINE SMOOTH",
"254 875 OFFCURVE",
"247 866 OFFCURVE",
"247 856 CURVE SMOOTH",
"247 824 OFFCURVE",
"234 790 OFFCURVE",
"185 790 CURVE SMOOTH",
"136 790 OFFCURVE",
"123 824 OFFCURVE",
"123 856 CURVE SMOOTH",
"123 866 OFFCURVE",
"116 875 OFFCURVE",
"104 875 CURVE SMOOTH",
"89 875 LINE SMOOTH",
"77 875 OFFCURVE",
"70 866 OFFCURVE"
);
}
);
width = 370;
},
{
associatedMasterId = "7891CA1A-7632-4D56-9F64-CBE5433B6847";
layerId = "2C2961A1-FB91-4944-9F77-3476E1CA3B43";
width = 600;
},
{
guideLines = (
{
position = "{0, 900}";
}
);
hints = (
{
horizontal = 1;
place = "{9223372036854775808.000000, 0.000000}";
type = Tag;
name = hr01;
},
{
horizontal = 1;
place = "{9223372036854775808.000000, 0.000000}";
type = Tag;
name = hr02;
}
);
layerId = "794B2617-B5E8-46A3-BB57-9FF4B4129D38";
name = Regular;
paths = (
{
closed = 1;
nodes = (
"237 745 CURVE SMOOTH",
"350 745 OFFCURVE",
"386 818 OFFCURVE",
"386 881 CURVE SMOOTH",
"386 891 OFFCURVE",
"379 900 OFFCURVE",
"367 900 CURVE SMOOTH",
"310 900 LINE SMOOTH",
"298 900 OFFCURVE",
"291 891 OFFCURVE",
"291 881 CURVE SMOOTH",
"291 852 OFFCURVE",
"273 831 OFFCURVE",
"237 831 CURVE SMOOTH",
"201 831 OFFCURVE",
"183 852 OFFCURVE",
"183 881 CURVE SMOOTH",
"183 891 OFFCURVE",
"176 900 OFFCURVE",
"164 900 CURVE SMOOTH",
"107 900 LINE SMOOTH",
"95 900 OFFCURVE",
"88 891 OFFCURVE",
"88 881 CURVE SMOOTH",
"88 818 OFFCURVE",
"124 745 OFFCURVE"
);
}
);
width = 475;
},
{
associatedMasterId = "7891CA1A-7632-4D56-9F64-CBE5433B6847";
layerId = "B59C78E1-B6F6-4A7C-9E53-DC2ADEC481BE";
width = 600;
},
{
guideLines = (
{
position = "{0, 910}";
}
);
hints = (
{
horizontal = 1;
place = "{9223372036854775808.000000, 0.000000}";
type = Tag;
name = hr01;
},
{
horizontal = 1;
place = "{9223372036854775808.000000, 0.000000}";
type = Tag;
name = hr02;
}
);
layerId = "A67CAC85-0E07-4E45-8FAE-4EA88B7D3365";
name = SemiBold;
paths = (
{
closed = 1;
nodes = (
"224 745 CURVE SMOOTH",
"347 745 OFFCURVE",
"393 826 OFFCURVE",
"393 891 CURVE SMOOTH",
"393 901 OFFCURVE",
"386 910 OFFCURVE",
"374 910 CURVE SMOOTH",
"290 910 LINE SMOOTH",
"278 910 OFFCURVE",
"271 901 OFFCURVE",
"271 891 CURVE SMOOTH",
"271 866 OFFCURVE",
"255 841 OFFCURVE",
"224 841 CURVE SMOOTH",
"193 841 OFFCURVE",
"177 866 OFFCURVE",
"177 891 CURVE SMOOTH",
"177 901 OFFCURVE",
"170 910 OFFCURVE",
"158 910 CURVE SMOOTH",
"74 910 LINE SMOOTH",
"62 910 OFFCURVE",
"55 901 OFFCURVE",
"55 891 CURVE SMOOTH",
"55 826 OFFCURVE",
"101 745 OFFCURVE"
);
}
);
width = 448;
},
{
associatedMasterId = "7891CA1A-7632-4D56-9F64-CBE5433B6847";
layerId = "EBCD298A-9C51-488A-B43D-5D3FB5B7406C";
width = 600;
},
{
guideLines = (
{
position = "{0, 915}";
},
{
position = "{0, 875}";
},
{
position = "{0, 920}";
},
{
position = "{0, 745}";
},
{
angle = 90;
position = "{227, 0}";
}
);
hints = (
{
horizontal = 1;
place = "{9223372036854775808.000000, 0.000000}";
type = Tag;
name = hr01;
}
);
layerId = "23D188E6-7019-4CFD-8C83-9B160EBC8A6F";
name = Bold;
paths = (
{
closed = 1;
nodes = (
"267 901 CURVE SMOOTH",
"267 871 OFFCURVE",
"259 846 OFFCURVE",
"227 846 CURVE SMOOTH",
"195 846 OFFCURVE",
"187 871 OFFCURVE",
"187 901 CURVE SMOOTH",
"187 911 OFFCURVE",
"180 920 OFFCURVE",
"168 920 CURVE SMOOTH",
"69 920 LINE SMOOTH",
"57 920 OFFCURVE",
"50 911 OFFCURVE",
"50 901 CURVE SMOOTH",
"50 811 OFFCURVE",
"107 745 OFFCURVE",
"227 745 CURVE SMOOTH",
"347 745 OFFCURVE",
"404 811 OFFCURVE",
"404 901 CURVE SMOOTH",
"404 911 OFFCURVE",
"397 920 OFFCURVE",
"385 920 CURVE SMOOTH",
"286 920 LINE SMOOTH",
"274 920 OFFCURVE",
"267 911 OFFCURVE"
);
}
);
width = 454;
},
{
guideLines = (
{
position = "{0, 1000}";
},
{
position = "{0, 890}";
},
{
position = "{0, 745}";
}
);
hints = (
{
horizontal = 1;
place = "{9223372036854775808.000000, 0.000000}";
type = Tag;
name = hr01;
},
{
horizontal = 1;
place = "{9223372036854775808.000000, 0.000000}";
type = Tag;
name = hr02;
}
);
layerId = "3B5D4880-7EC1-45C7-ACF2-835190E6862B";
name = SemiLight;
paths = (
{
closed = 1;
nodes = (
"194 745 CURVE SMOOTH",
"285 745 OFFCURVE",
"323 811 OFFCURVE",
"323 871 CURVE SMOOTH",
"323 881 OFFCURVE",
"316 890 OFFCURVE",
"304 890 CURVE SMOOTH",
"272 890 LINE SMOOTH",
"260 890 OFFCURVE",
"253 881 OFFCURVE",
"253 871 CURVE SMOOTH",
"253 837 OFFCURVE",
"230 811 OFFCURVE",
"194 811 CURVE SMOOTH",
"158 811 OFFCURVE",
"135 837 OFFCURVE",
"135 871 CURVE SMOOTH",
"135 881 OFFCURVE",
"128 890 OFFCURVE",
"116 890 CURVE SMOOTH",
"84 890 LINE SMOOTH",
"72 890 OFFCURVE",
"65 881 OFFCURVE",
"65 871 CURVE SMOOTH",
"65 811 OFFCURVE",
"103 745 OFFCURVE"
);
}
);
width = 388;
}
);
},
{
glyphname = Caron;
lastChange = "2015-11-19 08:48:24 +0000";
layers = (
{
guideLines = (
{
position = "{0, 750}";
}
);
hints = (
{
horizontal = 1;
origin = "{0, 0}";
type = Tag;
name = hr00;
}
);
layerId = "7891CA1A-7632-4D56-9F64-CBE5433B6847";
name = Light;
paths = (
{
closed = 1;
nodes = (
"211 750 LINE SMOOTH",
"221 750 OFFCURVE",
"229 750 OFFCURVE",
"243 764 CURVE SMOOTH",
"330 849 LINE SMOOTH",
"338 857 OFFCURVE",
"342 863 OFFCURVE",
"342 869 CURVE SMOOTH",
"342 877 OFFCURVE",
"338 880 OFFCURVE",
"328 880 CURVE SMOOTH",
"311 880 LINE SMOOTH",
"303 880 OFFCURVE",
"291 877 OFFCURVE",
"286 873 CURVE SMOOTH",
"206 813 LINE",
"126 873 LINE SMOOTH",
"121 877 OFFCURVE",
"109 880 OFFCURVE",
"101 880 CURVE SMOOTH",
"84 880 LINE SMOOTH",
"74 880 OFFCURVE",
"70 877 OFFCURVE",
"70 869 CURVE SMOOTH",
"70 863 OFFCURVE",
"74 857 OFFCURVE",
"82 849 CURVE SMOOTH",
"169 764 LINE SMOOTH",
"183 750 OFFCURVE",
"191 750 OFFCURVE",
"201 750 CURVE SMOOTH"
);
}
);
width = 412;
},
{
associatedMasterId = "7891CA1A-7632-4D56-9F64-CBE5433B6847";
layerId = "2C2961A1-FB91-4944-9F77-3476E1CA3B43";
width = 600;
},
{
guideLines = (
{
position = "{0, 750}";
}
);
hints = (
{
horizontal = 1;
place = "{9223372036854775808.000000, 0.000000}";
type = Tag;
name = hr00;
}
);
layerId = "794B2617-B5E8-46A3-BB57-9FF4B4129D38";
name = Regular;
paths = (
{
closed = 1;
nodes = (
"264 750 LINE SMOOTH",
"279 750 OFFCURVE",
"288 755 OFFCURVE",
"301 769 CURVE SMOOTH",
"393 871 LINE SMOOTH",
"396 874 OFFCURVE",
"398 879 OFFCURVE",
"398 884 CURVE SMOOTH",
"398 894 OFFCURVE",
"392 900 OFFCURVE",
"382 900 CURVE SMOOTH",
"334 900 LINE SMOOTH",
"321 900 OFFCURVE",
"315 897 OFFCURVE",
"303 889 CURVE SMOOTH",
"229 842 LINE",
"155 889 LINE SMOOTH",
"143 897 OFFCURVE",
"137 900 OFFCURVE",
"124 900 CURVE SMOOTH",
"76 900 LINE SMOOTH",
"66 900 OFFCURVE",
"60 894 OFFCURVE",
"60 884 CURVE SMOOTH",
"60 879 OFFCURVE",
"62 874 OFFCURVE",
"65 871 CURVE SMOOTH",
"157 769 LINE SMOOTH",
"170 755 OFFCURVE",
"179 750 OFFCURVE",
"194 750 CURVE SMOOTH"
);
}
);
width = 458;
},
{
associatedMasterId = "7891CA1A-7632-4D56-9F64-CBE5433B6847";
layerId = "B59C78E1-B6F6-4A7C-9E53-DC2ADEC481BE";
width = 600;
},
{
guideLines = (
{
position = "{0, 750}";
},
{
position = "{0, 910}";
}
);
hints = (
{
horizontal = 1;
place = "{9223372036854775808.000000, 0.000000}";
type = Tag;
name = hr00;
}
);
layerId = "A67CAC85-0E07-4E45-8FAE-4EA88B7D3365";
name = SemiBold;
paths = (
{
closed = 1;
nodes = (
"297 750 LINE SMOOTH",
"312 750 OFFCURVE",
"321 755 OFFCURVE",
"334 769 CURVE SMOOTH",
"436 881 LINE SMOOTH",
"439 884 OFFCURVE",
"441 889 OFFCURVE",
"441 894 CURVE SMOOTH",
"441 904 OFFCURVE",
"435 910 OFFCURVE",
"425 910 CURVE SMOOTH",
"353 910 LINE SMOOTH",
"340 910 OFFCURVE",
"334 906 OFFCURVE",
"322 899 CURVE SMOOTH",
"248 856 LINE",
"174 899 LINE SMOOTH",
"162 906 OFFCURVE",
"156 910 OFFCURVE",
"143 910 CURVE SMOOTH",
"71 910 LINE SMOOTH",
"61 910 OFFCURVE",
"55 904 OFFCURVE",
"55 894 CURVE SMOOTH",
"55 889 OFFCURVE",
"57 884 OFFCURVE",
"60 881 CURVE SMOOTH",
"162 769 LINE SMOOTH",
"175 755 OFFCURVE",
"184 750 OFFCURVE",
"199 750 CURVE SMOOTH"
);
}
);
width = 496;
},
{
associatedMasterId = "7891CA1A-7632-4D56-9F64-CBE5433B6847";
layerId = "EBCD298A-9C51-488A-B43D-5D3FB5B7406C";
width = 600;
},
{
guideLines = (
{
position = "{0, 750}";
}
);
hints = (
{
horizontal = 1;
place = "{9223372036854775808.000000, 0.000000}";
type = Tag;
name = hr00;
}
);
layerId = "23D188E6-7019-4CFD-8C83-9B160EBC8A6F";
name = Bold;
paths = (
{
closed = 1;
nodes = (
"340 750 LINE SMOOTH",
"355 750 OFFCURVE",
"364 755 OFFCURVE",
"377 769 CURVE SMOOTH",
"489 891 LINE SMOOTH",
"492 894 OFFCURVE",
"494 899 OFFCURVE",
"494 904 CURVE SMOOTH",
"494 914 OFFCURVE",
"488 920 OFFCURVE",
"478 920 CURVE SMOOTH",
"407 920 LINE SMOOTH",
"394 920 OFFCURVE",
"381 920 OFFCURVE",
"367 913 CURVE SMOOTH",
"275 871 LINE",
"183 913 LINE SMOOTH",
"169 920 OFFCURVE",
"156 920 OFFCURVE",
"143 920 CURVE SMOOTH",
"72 920 LINE SMOOTH",
"62 920 OFFCURVE",
"56 914 OFFCURVE",
"56 904 CURVE SMOOTH",
"56 899 OFFCURVE",
"58 894 OFFCURVE",
"61 891 CURVE SMOOTH",
"173 769 LINE SMOOTH",
"186 755 OFFCURVE",
"195 750 OFFCURVE",
"210 750 CURVE SMOOTH"
);
}
);
width = 548;
},
{
guideLines = (
{
position = "{0, 750}";
}
);
hints = (
{
horizontal = 1;
place = "{9223372036854775808.000000, 0.000000}";
type = Tag;
name = hr00;
}
);
layerId = "3B5D4880-7EC1-45C7-ACF2-835190E6862B";
name = SemiLight;
paths = (
{
closed = 1;
nodes = (
"229 750 LINE SMOOTH",
"244 750 OFFCURVE",
"253 755 OFFCURVE",
"266 769 CURVE SMOOTH",
"358 861 LINE SMOOTH",
"361 864 OFFCURVE",
"363 869 OFFCURVE",
"363 874 CURVE SMOOTH",
"363 884 OFFCURVE",
"357 890 OFFCURVE",
"347 890 CURVE SMOOTH",
"321 890 LINE SMOOTH",
"308 890 OFFCURVE",
"302 887 OFFCURVE",
"290 879 CURVE SMOOTH",
"214 828 LINE",
"138 879 LINE SMOOTH",
"126 887 OFFCURVE",
"120 890 OFFCURVE",
"107 890 CURVE SMOOTH",
"81 890 LINE SMOOTH",
"71 890 OFFCURVE",
"65 884 OFFCURVE",
"65 874 CURVE SMOOTH",
"65 869 OFFCURVE",
"67 864 OFFCURVE",
"70 861 CURVE SMOOTH",
"162 769 LINE SMOOTH",
"175 755 OFFCURVE",
"184 750 OFFCURVE",
"199 750 CURVE SMOOTH"
);
}
);
width = 428;
}
);
unicode = F6CA;
userData = {
com.typemytype.robofont.guides = (
{
angle = 0;
isGlobal = 0;
x = 0;
y = 750;
}
);
};
},
{
glyphname = Cedilla;
lastChange = "2015-11-19 08:48:24 +0000";
layers = (
{
guideLines = (
{
position = "{0, -220}";
},
{
position = "{0, -50}";
},
{
angle = 90;
position = "{222, 0}";
}
);
hints = (
{
horizontal = 1;
origin = "{0, 0}";
type = Tag;
name = hr00;
}
);
layerId = "7891CA1A-7632-4D56-9F64-CBE5433B6847";
name = Light;
paths = (
{
closed = 1;
nodes = (
"120 27 LINE",
"85 -53 LINE SMOOTH",
"81 -63 OFFCURVE",
"73 -75 OFFCURVE",
"80 -83 CURVE SMOOTH",
"96 -100 LINE SMOOTH",
"111 -116 OFFCURVE",
"124 -96 OFFCURVE",
"156 -96 CURVE SMOOTH",
"179 -96 OFFCURVE",
"199 -110 OFFCURVE",
"199 -134 CURVE SMOOTH",
"199 -159 OFFCURVE",
"179 -174 OFFCURVE",
"156 -174 CURVE SMOOTH",
"112 -174 OFFCURVE",
"105 -140 OFFCURVE",
"88 -156 CURVE SMOOTH",
"74 -169 LINE SMOOTH",
"58 -184 OFFCURVE",
"99 -219 OFFCURVE",
"156 -220 CURVE SMOOTH",
"219 -221 OFFCURVE",
"250 -180 OFFCURVE",
"250 -132 CURVE SMOOTH",
"250 -84 OFFCURVE",
"218 -50 OFFCURVE",
"174 -50 CURVE SMOOTH",
"159 -50 OFFCURVE",
"144 -53 OFFCURVE",
"136 -58 CURVE",
"178 27 LINE"
);
}
);
width = 320;
},
{
associatedMasterId = "7891CA1A-7632-4D56-9F64-CBE5433B6847";
layerId = "2C2961A1-FB91-4944-9F77-3476E1CA3B43";
width = 600;
},
{
guideLines = (
{
position = "{0, -50}";
}
);
hints = (
{
horizontal = 1;
place = "{9223372036854775808.000000, 0.000000}";
type = Tag;
name = hr01;
}
);
layerId = "794B2617-B5E8-46A3-BB57-9FF4B4129D38";
name = Regular;
paths = (
{
closed = 1;
nodes = (
"109 27 LINE",
"71 -55 LINE SMOOTH",
"62 -74 OFFCURVE",
"65 -78 OFFCURVE",
"73 -88 CURVE SMOOTH",
"89 -106 LINE SMOOTH",
"105 -122 OFFCURVE",
"121 -102 OFFCURVE",
"143 -102 CURVE SMOOTH",
"168 -102 OFFCURVE",
"181 -113 OFFCURVE",
"181 -132 CURVE SMOOTH",
"181 -152 OFFCURVE",
"167 -164 OFFCURVE",
"143 -164 CURVE SMOOTH",
"102 -164 OFFCURVE",
"102 -136 OFFCURVE",
"80 -156 CURVE SMOOTH",
"66 -169 LINE SMOOTH",
"44 -190 OFFCURVE",
"95 -220 OFFCURVE",
"143 -220 CURVE SMOOTH",
"208 -220 OFFCURVE",
"242 -180 OFFCURVE",
"242 -132 CURVE SMOOTH",
"242 -84 OFFCURVE",
"220 -46 OFFCURVE",
"166 -46 CURVE SMOOTH",
"151 -46 OFFCURVE",
"139 -51 OFFCURVE",
"131 -56 CURVE",
"170 27 LINE"
);
}
);
width = 302;
},
{
associatedMasterId = "7891CA1A-7632-4D56-9F64-CBE5433B6847";
layerId = "B59C78E1-B6F6-4A7C-9E53-DC2ADEC481BE";
width = 600;
},
{
guideLines = (
{
position = "{0, -50}";
}
);
hints = (
{
horizontal = 1;
place = "{9223372036854775808.000000, 0.000000}";
type = Tag;
name = hr01;
}
);
layerId = "A67CAC85-0E07-4E45-8FAE-4EA88B7D3365";
name = SemiBold;
paths = (
{
closed = 1;
nodes = (
"102 27 LINE",
"64 -52 LINE SMOOTH",
"55 -71 OFFCURVE",
"58 -75 OFFCURVE",
"66 -85 CURVE SMOOTH",
"84 -106 LINE",
"97 -119 OFFCURVE",
"120 -105 OFFCURVE",
"138 -105 CURVE SMOOTH",
"158 -105 OFFCURVE",
"171 -113 OFFCURVE",
"171 -132 CURVE SMOOTH",
"171 -152 OFFCURVE",
"157 -159 OFFCURVE",
"138 -159 CURVE SMOOTH",
"103 -159 OFFCURVE",
"101 -133 OFFCURVE",
"79 -153 CURVE SMOOTH",
"61 -169 LINE SMOOTH",
"38 -189 OFFCURVE",
"95 -220 OFFCURVE",
"138 -220 CURVE SMOOTH",
"198 -220 OFFCURVE",
"237 -180 OFFCURVE",
"237 -132 CURVE SMOOTH",
"237 -84 OFFCURVE",
"212 -44 OFFCURVE",
"161 -44 CURVE SMOOTH",
"146 -44 OFFCURVE",
"132 -49 OFFCURVE",
"124 -54 CURVE",
"163 27 LINE"
);
}
);
width = 292;
},
{
associatedMasterId = "7891CA1A-7632-4D56-9F64-CBE5433B6847";
layerId = "EBCD298A-9C51-488A-B43D-5D3FB5B7406C";
width = 600;
},
{
guideLines = (
{
position = "{0, -220}";
}
);
hints = (
{
horizontal = 1;
place = "{9223372036854775808.000000, 0.000000}";
type = Tag;
name = hr01;
},
{
horizontal = 1;
place = "{9223372036854775808.000000, 0.000000}";
type = Tag;
name = hr02;
}
);
layerId = "23D188E6-7019-4CFD-8C83-9B160EBC8A6F";
name = Bold;
paths = (
{
closed = 1;
nodes = (
"91 27 LINE",
"56 -52 LINE SMOOTH",
"47 -71 OFFCURVE",
"49 -76 OFFCURVE",
"58 -85 CURVE SMOOTH",
"79 -106 LINE SMOOTH",
"92 -119 OFFCURVE",
"115 -106 OFFCURVE",
"133 -106 CURVE SMOOTH",
"153 -106 OFFCURVE",
"161 -118 OFFCURVE",
"161 -130 CURVE SMOOTH",
"161 -142 OFFCURVE",
"152 -154 OFFCURVE",
"133 -154 CURVE SMOOTH",
"99 -154 OFFCURVE",
"94 -136 OFFCURVE",
"77 -151 CURVE SMOOTH",
"56 -169 LINE SMOOTH",
"33 -189 OFFCURVE",
"80 -220 OFFCURVE",
"133 -220 CURVE SMOOTH",
"193 -220 OFFCURVE",
"232 -183 OFFCURVE",
"232 -130 CURVE SMOOTH",
"232 -77 OFFCURVE",
"202 -40 OFFCURVE",
"151 -40 CURVE SMOOTH",
"147 -40 OFFCURVE",
"129 -42 OFFCURVE",
"121 -45 CURVE",
"158 27 LINE"
);
}
);
width = 282;
},
{
guideLines = (
{
position = "{0, -50}";
},
{
position = "{0, -220}";
},
{
position = "{0, -117}";
},
{
position = "{0, -154}";
},
{
angle = 90;
position = "{-252, 0}";
},
{
angle = 90;
position = "{193, 0}";
},
{
angle = 90;
position = "{415, 0}";
}
);
hints = (
{
horizontal = 1;
place = "{9223372036854775808.000000, 0.000000}";
type = Tag;
name = hr01;
}
);
layerId = "3B5D4880-7EC1-45C7-ACF2-835190E6862B";
name = SemiLight;
paths = (
{
closed = 1;
nodes = (
"114 27 LINE",
"79 -53 LINE SMOOTH",
"75 -63 OFFCURVE",
"70 -75 OFFCURVE",
"77 -83 CURVE SMOOTH",
"94 -101 LINE SMOOTH",
"109 -117 OFFCURVE",
"116 -99 OFFCURVE",
"148 -99 CURVE SMOOTH",
"177 -99 OFFCURVE",
"191 -110 OFFCURVE",
"191 -134 CURVE SMOOTH",
"191 -159 OFFCURVE",
"176 -169 OFFCURVE",
"148 -169 CURVE SMOOTH",
"112 -169 OFFCURVE",
"106 -137 OFFCURVE",
"85 -156 CURVE SMOOTH",
"71 -169 LINE SMOOTH",
"52 -187 OFFCURVE",
"101 -220 OFFCURVE",
"148 -220 CURVE SMOOTH",
"218 -220 OFFCURVE",
"247 -180 OFFCURVE",
"247 -132 CURVE SMOOTH",
"247 -84 OFFCURVE",
"215 -48 OFFCURVE",
"171 -48 CURVE SMOOTH",
"156 -48 OFFCURVE",
"144 -51 OFFCURVE",
"136 -56 CURVE",
"175 27 LINE"
);
}
);
width = 311;
}
);
userData = {
com.typemytype.robofont.guides = (
{
angle = 0;
isGlobal = 0;
x = 0;
y = -220;
},
{
angle = 0;
isGlobal = 0;
x = 0;
y = -50;
},
{
angle = 90;
isGlobal = 0;
x = 222;
y = 0;
}
);
};
},
{
glyphname = Circumflex;
lastChange = "2015-11-19 08:48:24 +0000";
layers = (
{
guideLines = (
{
position = "{0, 750}";
}
);
hints = (
{
horizontal = 1;
origin = "{0, 0}";
type = Tag;
name = hr00;
}
);
layerId = "7891CA1A-7632-4D56-9F64-CBE5433B6847";
name = Light;
paths = (
{
closed = 1;
nodes = (
"201 880 LINE SMOOTH",
"191 880 OFFCURVE",
"183 880 OFFCURVE",
"169 866 CURVE SMOOTH",
"82 781 LINE SMOOTH",
"74 773 OFFCURVE",
"70 767 OFFCURVE",
"70 761 CURVE SMOOTH",
"70 753 OFFCURVE",
"74 750 OFFCURVE",
"84 750 CURVE SMOOTH",
"101 750 LINE SMOOTH",
"109 750 OFFCURVE",
"121 753 OFFCURVE",
"126 757 CURVE SMOOTH",
"206 817 LINE",
"286 757 LINE SMOOTH",
"291 753 OFFCURVE",
"303 750 OFFCURVE",
"311 750 CURVE SMOOTH",
"328 750 LINE SMOOTH",
"338 750 OFFCURVE",
"342 753 OFFCURVE",
"342 761 CURVE SMOOTH",
"342 767 OFFCURVE",
"338 773 OFFCURVE",
"330 781 CURVE SMOOTH",
"243 866 LINE SMOOTH",
"229 880 OFFCURVE",
"221 880 OFFCURVE",
"211 880 CURVE SMOOTH"
);
}
);
width = 412;
},
{
associatedMasterId = "7891CA1A-7632-4D56-9F64-CBE5433B6847";
layerId = "2C2961A1-FB91-4944-9F77-3476E1CA3B43";
width = 600;
},
{
guideLines = (
{
position = "{0, 750}";
},
{
position = "{0, 900}";
}
);
hints = (
{
horizontal = 1;
place = "{9223372036854775808.000000, 0.000000}";
type = Tag;
name = hr00;
}
);
layerId = "794B2617-B5E8-46A3-BB57-9FF4B4129D38";
name = Regular;
paths = (
{
closed = 1;
nodes = (
"194 900 LINE SMOOTH",
"179 900 OFFCURVE",
"170 895 OFFCURVE",
"157 881 CURVE SMOOTH",
"65 779 LINE SMOOTH",
"62 776 OFFCURVE",
"60 771 OFFCURVE",
"60 766 CURVE SMOOTH",
"60 756 OFFCURVE",
"66 750 OFFCURVE",
"76 750 CURVE SMOOTH",
"124 750 LINE SMOOTH",
"137 750 OFFCURVE",
"143 753 OFFCURVE",
"155 761 CURVE SMOOTH",
"229 808 LINE",
"303 761 LINE SMOOTH",
"315 753 OFFCURVE",
"321 750 OFFCURVE",
"334 750 CURVE SMOOTH",
"382 750 LINE SMOOTH",
"392 750 OFFCURVE",
"398 756 OFFCURVE",
"398 766 CURVE SMOOTH",
"398 771 OFFCURVE",
"396 776 OFFCURVE",
"393 779 CURVE SMOOTH",
"301 881 LINE SMOOTH",
"288 895 OFFCURVE",
"279 900 OFFCURVE",
"264 900 CURVE SMOOTH"
);
}
);
width = 458;
},
{
associatedMasterId = "7891CA1A-7632-4D56-9F64-CBE5433B6847";
layerId = "B59C78E1-B6F6-4A7C-9E53-DC2ADEC481BE";
width = 600;
},
{
guideLines = (
{
position = "{0, 750}";
},
{
position = "{0, 910}";
}
);
hints = (
{
horizontal = 1;
place = "{9223372036854775808.000000, 0.000000}";
type = Tag;
name = hr00;
}
);
layerId = "A67CAC85-0E07-4E45-8FAE-4EA88B7D3365";
name = SemiBold;
paths = (
{
closed = 1;
nodes = (
"199 910 LINE SMOOTH",
"184 910 OFFCURVE",
"175 905 OFFCURVE",
"162 891 CURVE SMOOTH",
"60 779 LINE SMOOTH",
"57 776 OFFCURVE",
"55 771 OFFCURVE",
"55 766 CURVE SMOOTH",
"55 756 OFFCURVE",
"61 750 OFFCURVE",
"71 750 CURVE SMOOTH",
"143 750 LINE SMOOTH",
"156 750 OFFCURVE",
"162 754 OFFCURVE",
"174 761 CURVE SMOOTH",
"248 804 LINE",
"322 761 LINE SMOOTH",
"334 754 OFFCURVE",
"340 750 OFFCURVE",
"353 750 CURVE SMOOTH",
"425 750 LINE SMOOTH",
"435 750 OFFCURVE",
"441 756 OFFCURVE",
"441 766 CURVE SMOOTH",
"441 771 OFFCURVE",
"439 776 OFFCURVE",
"436 779 CURVE SMOOTH",
"334 891 LINE SMOOTH",
"321 905 OFFCURVE",
"312 910 OFFCURVE",
"297 910 CURVE SMOOTH"
);
}
);
width = 496;
},
{
associatedMasterId = "7891CA1A-7632-4D56-9F64-CBE5433B6847";
layerId = "EBCD298A-9C51-488A-B43D-5D3FB5B7406C";
width = 600;
},
{
guideLines = (
{
position = "{0, 750}";
},
{
position = "{0, 920}";
}
);
hints = (
{
horizontal = 1;
place = "{9223372036854775808.000000, 0.000000}";
type = Tag;
name = hr00;
}
);
layerId = "23D188E6-7019-4CFD-8C83-9B160EBC8A6F";
name = Bold;
paths = (
{
closed = 1;
nodes = (
"210 920 LINE SMOOTH",
"195 920 OFFCURVE",
"186 915 OFFCURVE",
"173 901 CURVE SMOOTH",
"61 779 LINE SMOOTH",
"58 776 OFFCURVE",
"56 771 OFFCURVE",
"56 766 CURVE SMOOTH",
"56 756 OFFCURVE",
"62 750 OFFCURVE",
"72 750 CURVE SMOOTH",
"143 750 LINE SMOOTH",
"156 750 OFFCURVE",
"169 750 OFFCURVE",
"183 757 CURVE SMOOTH",
"275 799 LINE",
"367 757 LINE SMOOTH",
"381 750 OFFCURVE",
"394 750 OFFCURVE",
"407 750 CURVE SMOOTH",
"478 750 LINE SMOOTH",
"488 750 OFFCURVE",
"494 756 OFFCURVE",
"494 766 CURVE SMOOTH",
"494 771 OFFCURVE",
"492 776 OFFCURVE",
"489 779 CURVE SMOOTH",
"377 901 LINE SMOOTH",
"364 915 OFFCURVE",
"355 920 OFFCURVE",
"340 920 CURVE SMOOTH"
);
}
);
width = 548;
},
{
guideLines = (
{
position = "{0, 750}";
},
{
position = "{0, 890}";
}
);
hints = (
{
horizontal = 1;
place = "{9223372036854775808.000000, 0.000000}";
type = Tag;
name = hr00;
}
);
layerId = "3B5D4880-7EC1-45C7-ACF2-835190E6862B";
name = SemiLight;
paths = (
{
closed = 1;
nodes = (
"199 890 LINE SMOOTH",
"184 890 OFFCURVE",
"175 885 OFFCURVE",
"162 871 CURVE SMOOTH",
"70 779 LINE SMOOTH",
"67 776 OFFCURVE",
"65 771 OFFCURVE",
"65 766 CURVE SMOOTH",
"65 756 OFFCURVE",
"71 750 OFFCURVE",
"81 750 CURVE SMOOTH",
"107 750 LINE SMOOTH",
"120 750 OFFCURVE",
"126 753 OFFCURVE",
"138 761 CURVE SMOOTH",
"214 812 LINE",
"290 761 LINE SMOOTH",
"302 753 OFFCURVE",
"308 750 OFFCURVE",
"321 750 CURVE SMOOTH",
"347 750 LINE SMOOTH",
"357 750 OFFCURVE",
"363 756 OFFCURVE",
"363 766 CURVE SMOOTH",
"363 771 OFFCURVE",
"361 776 OFFCURVE",
"358 779 CURVE SMOOTH",
"266 871 LINE SMOOTH",
"253 885 OFFCURVE",
"244 890 OFFCURVE",
"229 890 CURVE SMOOTH"
);
}
);
width = 428;
}
);
userData = {
com.typemytype.robofont.guides = (
{
angle = 0;
isGlobal = 0;
x = 0;
y = 750;
}
);
};
},
{
glyphname = commaaccent.cap;
lastChange = "2015-11-19 08:48:24 +0000";
layers = (
{
guideLines = (
{
position = "{0, -210}";
},
{
position = "{0, -50}";
}
);
hints = (
{
horizontal = 1;
origin = "{0, 0}";
type = Tag;
name = hr00;
}
);
layerId = "7891CA1A-7632-4D56-9F64-CBE5433B6847";
name = Light;
paths = (
{
closed = 1;
nodes = (
"71 -189 LINE SMOOTH",
"69 -201 OFFCURVE",
"74 -210 OFFCURVE",
"85 -210 CURVE SMOOTH",
"103 -210 LINE SMOOTH",
"118 -210 OFFCURVE",
"123 -202 OFFCURVE",
"129 -189 CURVE",
"169 -84 LINE SMOOTH",
"172 -77 OFFCURVE",
"173 -71 OFFCURVE",
"173 -66 CURVE SMOOTH",
"173 -58 OFFCURVE",
"167 -50 OFFCURVE",
"158 -50 CURVE SMOOTH",
"113 -50 LINE SMOOTH",
"97 -50 OFFCURVE",
"90 -61 OFFCURVE",
"88 -77 CURVE SMOOTH"
);
}
);
width = 243;
},
{
associatedMasterId = "7891CA1A-7632-4D56-9F64-CBE5433B6847";
layerId = "2C2961A1-FB91-4944-9F77-3476E1CA3B43";
width = 600;
},
{
guideLines = (
{
position = "{0, -250}";
},
{
position = "{0, -50}";
}
);
hints = (
{
horizontal = 1;
place = "{9223372036854775808.000000, 0.000000}";
type = Tag;
name = hr00;
}
);
layerId = "794B2617-B5E8-46A3-BB57-9FF4B4129D38";
name = Regular;
paths = (
{
closed = 1;
nodes = (
"57 -226 LINE SMOOTH",
"57 -228 OFFCURVE",
"57 -226 OFFCURVE",
"57 -228 CURVE SMOOTH",
"57 -240 OFFCURVE",
"67 -250 OFFCURVE",
"79 -250 CURVE SMOOTH",
"131 -250 LINE SMOOTH",
"157 -250 OFFCURVE",
"169 -231 OFFCURVE",
"174 -218 CURVE SMOOTH",
"229 -79 LINE SMOOTH",
"230 -76 OFFCURVE",
"230 -74 OFFCURVE",
"230 -72 CURVE SMOOTH",
"230 -60 OFFCURVE",
"220 -50 OFFCURVE",
"208 -50 CURVE SMOOTH",
"121 -50 LINE SMOOTH",
"94 -50 OFFCURVE",
"81 -71 OFFCURVE",
"78 -89 CURVE SMOOTH"
);
}
);
width = 287;
},
{
associatedMasterId = "7891CA1A-7632-4D56-9F64-CBE5433B6847";
layerId = "B59C78E1-B6F6-4A7C-9E53-DC2ADEC481BE";
width = 600;
},
{
guideLines = (
{
position = "{0, -250}";
},
{
position = "{0, -50}";
}
);
hints = (
{
horizontal = 1;
place = "{9223372036854775808.000000, 0.000000}";
type = Tag;
name = hr00;
}
);
layerId = "A67CAC85-0E07-4E45-8FAE-4EA88B7D3365";
name = SemiBold;
paths = (
{
closed = 1;
nodes = (
"55 -226 LINE SMOOTH",
"55 -228 OFFCURVE",
"55 -226 OFFCURVE",
"55 -228 CURVE SMOOTH",
"55 -240 OFFCURVE",
"65 -250 OFFCURVE",
"77 -250 CURVE SMOOTH",
"166 -250 LINE SMOOTH",
"192 -250 OFFCURVE",
"204 -231 OFFCURVE",
"209 -218 CURVE SMOOTH",
"264 -79 LINE SMOOTH",
"265 -76 OFFCURVE",
"265 -74 OFFCURVE",
"265 -72 CURVE SMOOTH",
"265 -60 OFFCURVE",
"255 -50 OFFCURVE",
"243 -50 CURVE SMOOTH",
"120 -50 LINE SMOOTH",
"93 -50 OFFCURVE",
"80 -71 OFFCURVE",
"77 -89 CURVE SMOOTH"
);
}
);
width = 314;
},
{
associatedMasterId = "7891CA1A-7632-4D56-9F64-CBE5433B6847";
layerId = "EBCD298A-9C51-488A-B43D-5D3FB5B7406C";
width = 600;
},
{
guideLines = (
{
position = "{0, -250}";
},
{
position = "{0, -50}";
},
{
angle = 90;
position = "{287, 0}";
}
);
hints = (
{
horizontal = 1;
place = "{9223372036854775808.000000, 0.000000}";
type = Tag;
name = hr00;
}
);
layerId = "23D188E6-7019-4CFD-8C83-9B160EBC8A6F";
name = Bold;
paths = (
{
closed = 1;
nodes = (
"50 -226 LINE SMOOTH",
"50 -228 OFFCURVE",
"50 -226 OFFCURVE",
"50 -228 CURVE SMOOTH",
"50 -240 OFFCURVE",
"60 -250 OFFCURVE",
"72 -250 CURVE SMOOTH",
"188 -250 LINE SMOOTH",
"214 -250 OFFCURVE",
"226 -231 OFFCURVE",
"231 -218 CURVE SMOOTH",
"286 -79 LINE SMOOTH",
"287 -76 OFFCURVE",
"287 -74 OFFCURVE",
"287 -72 CURVE SMOOTH",
"287 -60 OFFCURVE",
"277 -50 OFFCURVE",
"265 -50 CURVE SMOOTH",
"114 -50 LINE SMOOTH",
"87 -50 OFFCURVE",
"74 -71 OFFCURVE",
"71 -89 CURVE SMOOTH"
);
}
);
width = 337;
},
{
guideLines = (
{
position = "{0, -50}";
},
{
position = "{0, -250}";
}
);
hints = (
{
horizontal = 1;
place = "{9223372036854775808.000000, 0.000000}";
type = Tag;
name = hr00;
}
);
layerId = "3B5D4880-7EC1-45C7-ACF2-835190E6862B";
name = SemiLight;
paths = (
{
closed = 1;
nodes = (
"64 -226 LINE SMOOTH",
"64 -228 OFFCURVE",
"64 -226 OFFCURVE",
"64 -228 CURVE SMOOTH",
"64 -240 OFFCURVE",
"74 -250 OFFCURVE",
"86 -250 CURVE SMOOTH",
"110 -250 LINE SMOOTH",
"136 -250 OFFCURVE",
"148 -231 OFFCURVE",
"153 -218 CURVE SMOOTH",
"207 -79 LINE SMOOTH",
"208 -76 OFFCURVE",
"208 -74 OFFCURVE",
"208 -72 CURVE SMOOTH",
"208 -60 OFFCURVE",
"198 -50 OFFCURVE",
"186 -50 CURVE SMOOTH",
"128 -50 LINE SMOOTH",
"101 -50 OFFCURVE",
"88 -71 OFFCURVE",
"85 -89 CURVE SMOOTH"
);
}
);
width = 269;
}
);
userData = {
com.typemytype.robofont.guides = (
{
angle = 0;
isGlobal = 0;
x = 0;
y = -210;
},
{
angle = 0;
isGlobal = 0;
x = 0;
y = -50;
}
);
};
},
{
glyphname = Dieresis;
lastChange = "2015-11-19 08:48:24 +0000";
layers = (
{
guideLines = (
{
position = "{0, 750}";
}
);
hints = (
{
horizontal = 1;
origin = "{0, 0}";
type = Tag;
name = hr00;
}
);
layerId = "7891CA1A-7632-4D56-9F64-CBE5433B6847";
name = Light;
paths = (
{
closed = 1;
nodes = (
"336 810 LINE SMOOTH",
"336 823 OFFCURVE",
"326 833 OFFCURVE",
"313 833 CURVE SMOOTH",
"275 833 LINE SMOOTH",
"262 833 OFFCURVE",
"253 823 OFFCURVE",
"253 810 CURVE SMOOTH",
"253 772 LINE SMOOTH",
"253 759 OFFCURVE",
"262 750 OFFCURVE",
"275 750 CURVE SMOOTH",
"313 750 LINE SMOOTH",
"326 750 OFFCURVE",
"336 759 OFFCURVE",
"336 772 CURVE SMOOTH"
);
},
{
closed = 1;
nodes = (
"153 810 LINE SMOOTH",
"153 823 OFFCURVE",
"143 833 OFFCURVE",
"130 833 CURVE SMOOTH",
"92 833 LINE SMOOTH",
"79 833 OFFCURVE",
"70 823 OFFCURVE",
"70 810 CURVE SMOOTH",
"70 772 LINE SMOOTH",
"70 759 OFFCURVE",
"79 750 OFFCURVE",
"92 750 CURVE SMOOTH",
"130 750 LINE SMOOTH",
"143 750 OFFCURVE",
"153 759 OFFCURVE",
"153 772 CURVE SMOOTH"
);
}
);
width = 406;
},
{
associatedMasterId = "7891CA1A-7632-4D56-9F64-CBE5433B6847";
layerId = "2C2961A1-FB91-4944-9F77-3476E1CA3B43";
width = 600;
},
{
guideLines = (
{
position = "{0, 750}";
}
);
hints = (
{
horizontal = 1;
place = "{9223372036854775808.000000, 0.000000}";
type = Tag;
name = hr00;
}
);
layerId = "794B2617-B5E8-46A3-BB57-9FF4B4129D38";
name = Regular;
paths = (
{
closed = 1;
nodes = (
"87 892 LINE SMOOTH",
"72 892 OFFCURVE",
"60 880 OFFCURVE",
"60 865 CURVE SMOOTH",
"60 777 LINE SMOOTH",
"60 762 OFFCURVE",
"72 750 OFFCURVE",
"87 750 CURVE SMOOTH",
"170 750 LINE SMOOTH",
"185 750 OFFCURVE",
"197 762 OFFCURVE",
"197 777 CURVE SMOOTH",
"197 865 LINE SMOOTH",
"197 880 OFFCURVE",
"185 892 OFFCURVE",
"170 892 CURVE SMOOTH"
);
},
{
closed = 1;
nodes = (
"324 892 LINE SMOOTH",
"309 892 OFFCURVE",
"297 880 OFFCURVE",
"297 865 CURVE SMOOTH",
"297 777 LINE SMOOTH",
"297 762 OFFCURVE",
"309 750 OFFCURVE",
"324 750 CURVE SMOOTH",
"407 750 LINE SMOOTH",
"422 750 OFFCURVE",
"434 762 OFFCURVE",
"434 777 CURVE SMOOTH",
"434 865 LINE SMOOTH",
"434 880 OFFCURVE",
"422 892 OFFCURVE",
"407 892 CURVE SMOOTH"
);
}
);
width = 494;
},
{
associatedMasterId = "7891CA1A-7632-4D56-9F64-CBE5433B6847";
layerId = "B59C78E1-B6F6-4A7C-9E53-DC2ADEC481BE";
width = 600;
},
{
guideLines = (
{
position = "{0, 750}";
}
);
hints = (
{
horizontal = 1;
place = "{9223372036854775808.000000, 0.000000}";
type = Tag;
name = hr00;
}
);
layerId = "A67CAC85-0E07-4E45-8FAE-4EA88B7D3365";
name = SemiBold;
paths = (
{
closed = 1;
nodes = (
"210 878 LINE SMOOTH",
"210 893 OFFCURVE",
"198 905 OFFCURVE",
"183 905 CURVE SMOOTH",
"82 905 LINE SMOOTH",
"67 905 OFFCURVE",
"55 893 OFFCURVE",
"55 878 CURVE SMOOTH",
"55 777 LINE SMOOTH",
"55 762 OFFCURVE",
"67 750 OFFCURVE",
"82 750 CURVE SMOOTH",
"183 750 LINE SMOOTH",
"198 750 OFFCURVE",
"210 762 OFFCURVE",
"210 777 CURVE SMOOTH"
);
},
{
closed = 1;
nodes = (
"465 878 LINE SMOOTH",
"465 893 OFFCURVE",
"453 905 OFFCURVE",
"438 905 CURVE SMOOTH",
"337 905 LINE SMOOTH",
"322 905 OFFCURVE",
"310 893 OFFCURVE",
"310 878 CURVE SMOOTH",
"310 777 LINE SMOOTH",
"310 762 OFFCURVE",
"322 750 OFFCURVE",
"337 750 CURVE SMOOTH",
"438 750 LINE SMOOTH",
"453 750 OFFCURVE",
"465 762 OFFCURVE",
"465 777 CURVE SMOOTH"
);
}
);
width = 520;
},
{
associatedMasterId = "7891CA1A-7632-4D56-9F64-CBE5433B6847";
layerId = "EBCD298A-9C51-488A-B43D-5D3FB5B7406C";
width = 600;
},
{
guideLines = (
{
position = "{0, 750}";
},
{
position = "{0, 920}";
}
);
hints = (
{
horizontal = 1;
place = "{9223372036854775808.000000, 0.000000}";
type = Tag;
name = hr00;
}
);
layerId = "23D188E6-7019-4CFD-8C83-9B160EBC8A6F";
name = Bold;
paths = (
{
closed = 1;
nodes = (
"342 920 LINE SMOOTH",
"329 920 OFFCURVE",
"319 910 OFFCURVE",
"319 897 CURVE SMOOTH",
"319 773 LINE SMOOTH",
"319 760 OFFCURVE",
"329 750 OFFCURVE",
"342 750 CURVE SMOOTH",
"466 750 LINE SMOOTH",
"479 750 OFFCURVE",
"489 760 OFFCURVE",
"489 773 CURVE SMOOTH",
"489 897 LINE SMOOTH",
"489 910 OFFCURVE",
"479 920 OFFCURVE",
"466 920 CURVE SMOOTH"
);
},
{
closed = 1;
nodes = (
"73 920 LINE SMOOTH",
"60 920 OFFCURVE",
"50 910 OFFCURVE",
"50 897 CURVE SMOOTH",
"50 773 LINE SMOOTH",
"50 760 OFFCURVE",
"60 750 OFFCURVE",
"73 750 CURVE SMOOTH",
"197 750 LINE SMOOTH",
"210 750 OFFCURVE",
"220 760 OFFCURVE",
"220 773 CURVE SMOOTH",
"220 897 LINE SMOOTH",
"220 910 OFFCURVE",
"210 920 OFFCURVE",
"197 920 CURVE SMOOTH"
);
}
);
width = 539;
},
{
guideLines = (
{
position = "{0, 750}";
}
);
hints = (
{
horizontal = 1;
place = "{9223372036854775808.000000, 0.000000}";
type = Tag;
name = hr00;
}
);
layerId = "3B5D4880-7EC1-45C7-ACF2-835190E6862B";
name = SemiLight;
paths = (
{
closed = 1;
nodes = (
"176 834 LINE SMOOTH",
"176 849 OFFCURVE",
"164 861 OFFCURVE",
"149 861 CURVE SMOOTH",
"92 861 LINE SMOOTH",
"77 861 OFFCURVE",
"65 849 OFFCURVE",
"65 834 CURVE SMOOTH",
"65 777 LINE SMOOTH",
"65 762 OFFCURVE",
"77 750 OFFCURVE",
"92 750 CURVE SMOOTH",
"149 750 LINE SMOOTH",
"164 750 OFFCURVE",
"176 762 OFFCURVE",
"176 777 CURVE SMOOTH"
);
},
{
closed = 1;
nodes = (
"387 834 LINE SMOOTH",
"387 849 OFFCURVE",
"375 861 OFFCURVE",
"360 861 CURVE SMOOTH",
"303 861 LINE SMOOTH",
"288 861 OFFCURVE",
"276 849 OFFCURVE",
"276 834 CURVE SMOOTH",
"276 777 LINE SMOOTH",
"276 762 OFFCURVE",
"288 750 OFFCURVE",
"303 750 CURVE SMOOTH",
"360 750 LINE SMOOTH",
"375 750 OFFCURVE",
"387 762 OFFCURVE",
"387 777 CURVE SMOOTH"
);
}
);
width = 452;
}
);
unicode = F6CB;
userData = {
com.typemytype.robofont.guides = (
{
angle = 0;
isGlobal = 0;
x = 0;
y = 750;
}
);
};
},
{
glyphname = Dotaccent;
lastChange = "2015-11-19 08:48:24 +0000";
layers = (
{
hints = (
{
horizontal = 1;
origin = "{0, 0}";
type = Tag;
name = hr00;
}
);
layerId = "7891CA1A-7632-4D56-9F64-CBE5433B6847";
name = Light;
paths = (
{
closed = 1;
nodes = (
"163 820 LINE SMOOTH",
"163 833 OFFCURVE",
"153 843 OFFCURVE",
"140 843 CURVE SMOOTH",
"92 843 LINE SMOOTH",
"79 843 OFFCURVE",
"70 833 OFFCURVE",
"70 820 CURVE SMOOTH",
"70 772 LINE SMOOTH",
"70 759 OFFCURVE",
"79 750 OFFCURVE",
"92 750 CURVE SMOOTH",
"140 750 LINE SMOOTH",
"153 750 OFFCURVE",
"163 759 OFFCURVE",
"163 772 CURVE SMOOTH"
);
}
);
width = 233;
},
{
associatedMasterId = "7891CA1A-7632-4D56-9F64-CBE5433B6847";
layerId = "2C2961A1-FB91-4944-9F77-3476E1CA3B43";
width = 600;
},
{
hints = (
{
horizontal = 1;
place = "{9223372036854775808.000000, 0.000000}";
type = Tag;
name = hr00;
}
);
layerId = "794B2617-B5E8-46A3-BB57-9FF4B4129D38";
name = Regular;
paths = (
{
closed = 1;
nodes = (
"87 897 LINE SMOOTH",
"72 897 OFFCURVE",
"60 885 OFFCURVE",
"60 870 CURVE SMOOTH",
"60 777 LINE SMOOTH",
"60 762 OFFCURVE",
"72 750 OFFCURVE",
"87 750 CURVE SMOOTH",
"175 750 LINE SMOOTH",
"190 750 OFFCURVE",
"202 762 OFFCURVE",
"202 777 CURVE SMOOTH",
"202 870 LINE SMOOTH",
"202 885 OFFCURVE",
"190 897 OFFCURVE",
"175 897 CURVE SMOOTH"
);
}
);
width = 262;
},
{
associatedMasterId = "7891CA1A-7632-4D56-9F64-CBE5433B6847";
layerId = "B59C78E1-B6F6-4A7C-9E53-DC2ADEC481BE";
width = 600;
},
{
hints = (
{
horizontal = 1;
place = "{9223372036854775808.000000, 0.000000}";
type = Tag;
name = hr00;
}
);
layerId = "A67CAC85-0E07-4E45-8FAE-4EA88B7D3365";
name = SemiBold;
paths = (
{
closed = 1;
nodes = (
"230 888 LINE SMOOTH",
"230 903 OFFCURVE",
"218 915 OFFCURVE",
"203 915 CURVE SMOOTH",
"92 915 LINE SMOOTH",
"77 915 OFFCURVE",
"65 903 OFFCURVE",
"65 888 CURVE SMOOTH",
"65 777 LINE SMOOTH",
"65 762 OFFCURVE",
"77 750 OFFCURVE",
"92 750 CURVE SMOOTH",
"203 750 LINE SMOOTH",
"218 750 OFFCURVE",
"230 762 OFFCURVE",
"230 777 CURVE SMOOTH"
);
}
);
width = 295;
},
{
associatedMasterId = "7891CA1A-7632-4D56-9F64-CBE5433B6847";
layerId = "EBCD298A-9C51-488A-B43D-5D3FB5B7406C";
width = 600;
},
{
hints = (
{
horizontal = 1;
place = "{9223372036854775808.000000, 0.000000}";
type = Tag;
name = hr00;
}
);
layerId = "23D188E6-7019-4CFD-8C83-9B160EBC8A6F";
name = Bold;
paths = (
{
closed = 1;
nodes = (
"73 932 LINE",
"60 932 OFFCURVE",
"50 922 OFFCURVE",
"50 909 CURVE SMOOTH",
"50 773 LINE SMOOTH",
"50 760 OFFCURVE",
"60 750 OFFCURVE",
"73 750 CURVE SMOOTH",
"209 750 LINE SMOOTH",
"222 750 OFFCURVE",
"232 760 OFFCURVE",
"232 773 CURVE SMOOTH",
"232 909 LINE SMOOTH",
"232 922 OFFCURVE",
"222 932 OFFCURVE",
"209 932 CURVE SMOOTH"
);
}
);
width = 282;
},
{
hints = (
{
horizontal = 1;
place = "{9223372036854775808.000000, 0.000000}";
type = Tag;
name = hr00;
}
);
layerId = "3B5D4880-7EC1-45C7-ACF2-835190E6862B";
name = SemiLight;
paths = (
{
closed = 1;
nodes = (
"175 834 LINE SMOOTH",
"175 849 OFFCURVE",
"163 861 OFFCURVE",
"148 861 CURVE SMOOTH",
"91 861 LINE SMOOTH",
"76 861 OFFCURVE",
"64 849 OFFCURVE",
"64 834 CURVE SMOOTH",
"64 777 LINE SMOOTH",
"64 762 OFFCURVE",
"76 750 OFFCURVE",
"91 750 CURVE SMOOTH",
"148 750 LINE SMOOTH",
"163 750 OFFCURVE",
"175 762 OFFCURVE",
"175 777 CURVE SMOOTH"
);
}
);
width = 241;
}
);
},
{
glyphname = Hungarumlaut;
lastChange = "2015-11-19 08:48:24 +0000";
layers = (
{
guideLines = (
{
position = "{0, 750}";
}
);
hints = (
{
horizontal = 1;
origin = "{0, 0}";
type = Tag;
name = hr00;
}
);
layerId = "7891CA1A-7632-4D56-9F64-CBE5433B6847";
name = Light;
paths = (
{
closed = 1;
nodes = (
"75 781 LINE SMOOTH",
"73 777 OFFCURVE",
"70 771 OFFCURVE",
"70 766 CURVE SMOOTH",
"70 756 OFFCURVE",
"76 750 OFFCURVE",
"86 750 CURVE SMOOTH",
"101 750 LINE SMOOTH",
"114 750 OFFCURVE",
"123 755 OFFCURVE",
"131 764 CURVE SMOOTH",
"202 848 LINE SMOOTH",
"206 852 OFFCURVE",
"208 856 OFFCURVE",
"208 861 CURVE SMOOTH",
"208 873 OFFCURVE",
"200 880 OFFCURVE",
"188 880 CURVE SMOOTH",
"148 880 LINE SMOOTH",
"127 880 OFFCURVE",
"117 874 OFFCURVE",
"111 861 CURVE SMOOTH"
);
},
{
closed = 1;
nodes = (
"223 781 LINE SMOOTH",
"221 777 OFFCURVE",
"218 771 OFFCURVE",
"218 766 CURVE SMOOTH",
"218 756 OFFCURVE",
"224 750 OFFCURVE",
"234 750 CURVE SMOOTH",
"249 750 LINE SMOOTH",
"262 750 OFFCURVE",
"271 755 OFFCURVE",
"279 764 CURVE SMOOTH",
"350 848 LINE SMOOTH",
"354 852 OFFCURVE",
"356 856 OFFCURVE",
"356 861 CURVE SMOOTH",
"356 873 OFFCURVE",
"348 880 OFFCURVE",
"336 880 CURVE SMOOTH",
"296 880 LINE SMOOTH",
"275 880 OFFCURVE",
"265 874 OFFCURVE",
"259 861 CURVE SMOOTH"
);
}
);
width = 426;
},
{
associatedMasterId = "7891CA1A-7632-4D56-9F64-CBE5433B6847";
layerId = "2C2961A1-FB91-4944-9F77-3476E1CA3B43";
width = 600;
},
{
guideLines = (
{
position = "{0, 750}";
}
);
hints = (
{
horizontal = 1;
place = "{9223372036854775808.000000, 0.000000}";
type = Tag;
name = hr00;
}
);
layerId = "794B2617-B5E8-46A3-BB57-9FF4B4129D38";
name = Regular;
paths = (
{
closed = 1;
nodes = (
"65 781 LINE SMOOTH",
"63 777 OFFCURVE",
"60 771 OFFCURVE",
"60 766 CURVE SMOOTH",
"60 756 OFFCURVE",
"66 750 OFFCURVE",
"76 750 CURVE SMOOTH",
"129 750 LINE SMOOTH",
"142 750 OFFCURVE",
"155 755 OFFCURVE",
"163 764 CURVE SMOOTH",
"259 868 LINE SMOOTH",
"262 871 OFFCURVE",
"265 876 OFFCURVE",
"265 881 CURVE SMOOTH",
"265 893 OFFCURVE",
"257 900 OFFCURVE",
"245 900 CURVE SMOOTH",
"147 900 LINE SMOOTH",
"126 900 OFFCURVE",
"116 894 OFFCURVE",
"110 881 CURVE SMOOTH"
);
},
{
closed = 1;
nodes = (
"271 781 LINE SMOOTH",
"269 777 OFFCURVE",
"266 771 OFFCURVE",
"266 766 CURVE SMOOTH",
"266 756 OFFCURVE",
"272 750 OFFCURVE",
"282 750 CURVE SMOOTH",
"335 750 LINE SMOOTH",
"348 750 OFFCURVE",
"361 755 OFFCURVE",
"369 764 CURVE SMOOTH",
"465 868 LINE SMOOTH",
"468 871 OFFCURVE",
"471 876 OFFCURVE",
"471 881 CURVE SMOOTH",
"471 893 OFFCURVE",
"463 900 OFFCURVE",
"451 900 CURVE SMOOTH",
"353 900 LINE SMOOTH",
"332 900 OFFCURVE",
"322 894 OFFCURVE",
"316 881 CURVE SMOOTH"
);
}
);
width = 531;
},
{
associatedMasterId = "7891CA1A-7632-4D56-9F64-CBE5433B6847";
layerId = "B59C78E1-B6F6-4A7C-9E53-DC2ADEC481BE";
width = 600;
},
{
guideLines = (
{
position = "{0, 750}";
}
);
hints = (
{
horizontal = 1;
place = "{9223372036854775808.000000, 0.000000}";
type = Tag;
name = hr00;
}
);
layerId = "A67CAC85-0E07-4E45-8FAE-4EA88B7D3365";
name = SemiBold;
paths = (
{
closed = 1;
nodes = (
"60 781 LINE SMOOTH",
"58 777 OFFCURVE",
"55 771 OFFCURVE",
"55 766 CURVE SMOOTH",
"55 756 OFFCURVE",
"61 750 OFFCURVE",
"71 750 CURVE SMOOTH",
"144 750 LINE SMOOTH",
"157 750 OFFCURVE",
"170 755 OFFCURVE",
"178 764 CURVE SMOOTH",
"283 878 LINE SMOOTH",
"286 881 OFFCURVE",
"289 886 OFFCURVE",
"289 891 CURVE SMOOTH",
"289 903 OFFCURVE",
"281 910 OFFCURVE",
"269 910 CURVE SMOOTH",
"147 910 LINE SMOOTH",
"126 910 OFFCURVE",
"116 904 OFFCURVE",
"110 891 CURVE SMOOTH"
);
},
{
closed = 1;
nodes = (
"291 781 LINE SMOOTH",
"289 777 OFFCURVE",
"286 771 OFFCURVE",
"286 766 CURVE SMOOTH",
"286 756 OFFCURVE",
"292 750 OFFCURVE",
"302 750 CURVE SMOOTH",
"375 750 LINE SMOOTH",
"388 750 OFFCURVE",
"401 755 OFFCURVE",
"409 764 CURVE SMOOTH",
"514 878 LINE SMOOTH",
"517 881 OFFCURVE",
"520 886 OFFCURVE",
"520 891 CURVE SMOOTH",
"520 903 OFFCURVE",
"512 910 OFFCURVE",
"500 910 CURVE SMOOTH",
"378 910 LINE SMOOTH",
"357 910 OFFCURVE",
"347 904 OFFCURVE",
"341 891 CURVE SMOOTH"
);
}
);
width = 575;
},
{
associatedMasterId = "7891CA1A-7632-4D56-9F64-CBE5433B6847";
layerId = "EBCD298A-9C51-488A-B43D-5D3FB5B7406C";
width = 600;
},
{
guideLines = (
{
position = "{0, 750}";
},
{
position = "{0, 920}";
},
{
position = "{0, 880}";
},
{
position = "{0, 910}";
},
{
position = "{0, 900}";
},
{
position = "{0, 890}";
}
);
hints = (
{
horizontal = 1;
place = "{9223372036854775808.000000, 0.000000}";
type = Tag;
name = hr00;
}
);
layerId = "23D188E6-7019-4CFD-8C83-9B160EBC8A6F";
name = Bold;
paths = (
{
closed = 1;
nodes = (
"55 781 LINE SMOOTH",
"53 777 OFFCURVE",
"50 771 OFFCURVE",
"50 766 CURVE SMOOTH",
"50 756 OFFCURVE",
"56 750 OFFCURVE",
"66 750 CURVE SMOOTH",
"169 750 LINE SMOOTH",
"182 750 OFFCURVE",
"195 755 OFFCURVE",
"203 764 CURVE SMOOTH",
"317 888 LINE SMOOTH",
"320 891 OFFCURVE",
"323 896 OFFCURVE",
"323 901 CURVE SMOOTH",
"323 913 OFFCURVE",
"315 920 OFFCURVE",
"303 920 CURVE SMOOTH",
"146 920 LINE SMOOTH",
"125 920 OFFCURVE",
"115 914 OFFCURVE",
"109 901 CURVE SMOOTH"
);
},
{
closed = 1;
nodes = (
"300 781 LINE SMOOTH",
"298 777 OFFCURVE",
"295 771 OFFCURVE",
"295 766 CURVE SMOOTH",
"295 756 OFFCURVE",
"301 750 OFFCURVE",
"311 750 CURVE SMOOTH",
"414 750 LINE SMOOTH",
"427 750 OFFCURVE",
"440 755 OFFCURVE",
"448 764 CURVE SMOOTH",
"562 888 LINE SMOOTH",
"565 891 OFFCURVE",
"568 896 OFFCURVE",
"568 901 CURVE SMOOTH",
"568 913 OFFCURVE",
"560 920 OFFCURVE",
"548 920 CURVE SMOOTH",
"391 920 LINE SMOOTH",
"370 920 OFFCURVE",
"360 914 OFFCURVE",
"354 901 CURVE SMOOTH"
);
}
);
width = 646;
},
{
guideLines = (
{
position = "{0, 750}";
}
);
hints = (
{
horizontal = 1;
place = "{9223372036854775808.000000, 0.000000}";
type = Tag;
name = hr00;
}
);
layerId = "3B5D4880-7EC1-45C7-ACF2-835190E6862B";
name = SemiLight;
paths = (
{
closed = 1;
nodes = (
"70 781 LINE SMOOTH",
"68 777 OFFCURVE",
"65 771 OFFCURVE",
"65 766 CURVE SMOOTH",
"65 756 OFFCURVE",
"71 750 OFFCURVE",
"81 750 CURVE SMOOTH",
"114 750 LINE SMOOTH",
"127 750 OFFCURVE",
"140 755 OFFCURVE",
"148 764 CURVE SMOOTH",
"235 858 LINE SMOOTH",
"238 861 OFFCURVE",
"241 866 OFFCURVE",
"241 871 CURVE SMOOTH",
"241 883 OFFCURVE",
"233 890 OFFCURVE",
"221 890 CURVE SMOOTH",
"147 890 LINE SMOOTH",
"126 890 OFFCURVE",
"116 884 OFFCURVE",
"110 871 CURVE SMOOTH"
);
},
{
closed = 1;
nodes = (
"252 781 LINE SMOOTH",
"250 777 OFFCURVE",
"247 771 OFFCURVE",
"247 766 CURVE SMOOTH",
"247 756 OFFCURVE",
"253 750 OFFCURVE",
"263 750 CURVE SMOOTH",
"296 750 LINE SMOOTH",
"309 750 OFFCURVE",
"322 755 OFFCURVE",
"330 764 CURVE SMOOTH",
"417 858 LINE SMOOTH",
"420 861 OFFCURVE",
"423 866 OFFCURVE",
"423 871 CURVE SMOOTH",
"423 883 OFFCURVE",
"415 890 OFFCURVE",
"403 890 CURVE SMOOTH",
"329 890 LINE SMOOTH",
"308 890 OFFCURVE",
"298 884 OFFCURVE",
"292 871 CURVE SMOOTH"
);
}
);
width = 488;
}
);
unicode = F6CF;
userData = {
com.typemytype.robofont.guides = (
{
angle = 0;
isGlobal = 0;
x = 0;
y = 750;
}
);
};
},
{
glyphname = Grave;
lastChange = "2015-11-19 08:48:24 +0000";
layers = (
{
guideLines = (
{
position = "{0, 750}";
}
);
hints = (
{
horizontal = 1;
origin = "{0, 0}";
type = Tag;
name = hr00;
}
);
layerId = "7891CA1A-7632-4D56-9F64-CBE5433B6847";
name = Light;
paths = (
{
closed = 1;
nodes = (
"172 862 LINE SMOOTH",
"161 875 OFFCURVE",
"155 880 OFFCURVE",
"135 880 CURVE SMOOTH",
"89 880 LINE SMOOTH",
"77 880 OFFCURVE",
"70 873 OFFCURVE",
"70 861 CURVE SMOOTH",
"70 856 OFFCURVE",
"72 852 OFFCURVE",
"75 849 CURVE SMOOTH",
"184 760 LINE SMOOTH",
"195 751 OFFCURVE",
"202 750 OFFCURVE",
"215 750 CURVE SMOOTH",
"230 750 LINE SMOOTH",
"240 750 OFFCURVE",
"246 756 OFFCURVE",
"246 766 CURVE SMOOTH",
"246 771 OFFCURVE",
"244 776 OFFCURVE",
"241 779 CURVE SMOOTH"
);
}
);
width = 316;
},
{
associatedMasterId = "7891CA1A-7632-4D56-9F64-CBE5433B6847";
layerId = "2C2961A1-FB91-4944-9F77-3476E1CA3B43";
width = 600;
},
{
guideLines = (
{
position = "{0, 750}";
}
);
hints = (
{
horizontal = 1;
place = "{9223372036854775808.000000, 0.000000}";
type = Tag;
name = hr00;
}
);
layerId = "794B2617-B5E8-46A3-BB57-9FF4B4129D38";
name = Regular;
paths = (
{
closed = 1;
nodes = (
"216 881 LINE SMOOTH",
"201 898 OFFCURVE",
"194 900 OFFCURVE",
"179 900 CURVE SMOOTH",
"79 900 LINE SMOOTH",
"67 900 OFFCURVE",
"60 892 OFFCURVE",
"60 880 CURVE SMOOTH",
"60 875 OFFCURVE",
"62 871 OFFCURVE",
"65 868 CURVE SMOOTH",
"188 767 LINE SMOOTH",
"199 758 OFFCURVE",
"209 750 OFFCURVE",
"230 750 CURVE SMOOTH",
"290 750 LINE SMOOTH",
"300 750 OFFCURVE",
"306 756 OFFCURVE",
"306 766 CURVE SMOOTH",
"306 771 OFFCURVE",
"304 775 OFFCURVE",
"301 779 CURVE SMOOTH"
);
}
);
width = 366;
},
{
associatedMasterId = "7891CA1A-7632-4D56-9F64-CBE5433B6847";
layerId = "B59C78E1-B6F6-4A7C-9E53-DC2ADEC481BE";
width = 600;
},
{
guideLines = (
{
position = "{0, 750}";
}
);
hints = (
{
horizontal = 1;
place = "{9223372036854775808.000000, 0.000000}";
type = Tag;
name = hr00;
}
);
layerId = "A67CAC85-0E07-4E45-8FAE-4EA88B7D3365";
name = SemiBold;
paths = (
{
closed = 1;
nodes = (
"254 891 LINE SMOOTH",
"239 908 OFFCURVE",
"232 910 OFFCURVE",
"217 910 CURVE SMOOTH",
"74 910 LINE SMOOTH",
"62 910 OFFCURVE",
"55 902 OFFCURVE",
"55 890 CURVE SMOOTH",
"55 885 OFFCURVE",
"57 881 OFFCURVE",
"60 878 CURVE SMOOTH",
"195 767 LINE SMOOTH",
"206 758 OFFCURVE",
"216 750 OFFCURVE",
"237 750 CURVE SMOOTH",
"335 750 LINE SMOOTH",
"345 750 OFFCURVE",
"351 756 OFFCURVE",
"351 766 CURVE SMOOTH",
"351 771 OFFCURVE",
"349 776 OFFCURVE",
"346 779 CURVE SMOOTH"
);
}
);
width = 406;
},
{
associatedMasterId = "7891CA1A-7632-4D56-9F64-CBE5433B6847";
layerId = "EBCD298A-9C51-488A-B43D-5D3FB5B7406C";
width = 600;
},
{
guideLines = (
{
position = "{0, 750}";
}
);
hints = (
{
horizontal = 1;
place = "{9223372036854775808.000000, 0.000000}";
type = Tag;
name = hr00;
}
);
layerId = "23D188E6-7019-4CFD-8C83-9B160EBC8A6F";
name = Bold;
paths = (
{
closed = 1;
nodes = (
"302 901 LINE",
"287 918 OFFCURVE",
"280 920 OFFCURVE",
"265 920 CURVE SMOOTH",
"69 920 LINE SMOOTH",
"57 920 OFFCURVE",
"50 912 OFFCURVE",
"50 900 CURVE SMOOTH",
"50 895 OFFCURVE",
"52 891 OFFCURVE",
"55 888 CURVE SMOOTH",
"202 767 LINE SMOOTH",
"213 758 OFFCURVE",
"223 750 OFFCURVE",
"244 750 CURVE SMOOTH",
"391 750 LINE SMOOTH",
"401 750 OFFCURVE",
"407 756 OFFCURVE",
"407 766 CURVE SMOOTH",
"407 771 OFFCURVE",
"405 776 OFFCURVE",
"402 779 CURVE SMOOTH"
);
}
);
width = 457;
},
{
guideLines = (
{
position = "{0, 750}";
}
);
hints = (
{
horizontal = 1;
place = "{9223372036854775808.000000, 0.000000}";
type = Tag;
name = hr00;
}
);
layerId = "3B5D4880-7EC1-45C7-ACF2-835190E6862B";
name = SemiLight;
paths = (
{
closed = 1;
nodes = (
"190 871 LINE SMOOTH",
"175 888 OFFCURVE",
"168 890 OFFCURVE",
"153 890 CURVE SMOOTH",
"74 890 LINE SMOOTH",
"62 890 OFFCURVE",
"55 882 OFFCURVE",
"55 870 CURVE SMOOTH",
"55 865 OFFCURVE",
"57 861 OFFCURVE",
"60 858 CURVE SMOOTH",
"171 767 LINE SMOOTH",
"182 758 OFFCURVE",
"192 750 OFFCURVE",
"213 750 CURVE SMOOTH",
"255 750 LINE SMOOTH",
"265 750 OFFCURVE",
"271 756 OFFCURVE",
"271 766 CURVE SMOOTH",
"271 771 OFFCURVE",
"269 776 OFFCURVE",
"266 779 CURVE SMOOTH"
);
}
);
width = 336;
}
);
unicode = F6CE;
userData = {
com.typemytype.robofont.guides = (
{
angle = 0;
isGlobal = 0;
x = 0;
y = 750;
}
);
};
},
{
glyphname = Macron;
lastChange = "2015-11-19 08:48:24 +0000";
layers = (
{
hints = (
{
horizontal = 1;
origin = "{0, 0}";
type = Tag;
name = hr00;
}
);
layerId = "7891CA1A-7632-4D56-9F64-CBE5433B6847";
name = Light;
paths = (
{
closed = 1;
nodes = (
"291 750 LINE SMOOTH",
"304 750 OFFCURVE",
"313 759 OFFCURVE",
"313 772 CURVE SMOOTH",
"313 794 LINE SMOOTH",
"313 807 OFFCURVE",
"304 816 OFFCURVE",
"291 816 CURVE SMOOTH",
"92 816 LINE SMOOTH",
"79 816 OFFCURVE",
"70 807 OFFCURVE",
"70 794 CURVE SMOOTH",
"70 772 LINE SMOOTH",
"70 759 OFFCURVE",
"79 750 OFFCURVE",
"92 750 CURVE SMOOTH"
);
}
);
width = 383;
},
{
associatedMasterId = "7891CA1A-7632-4D56-9F64-CBE5433B6847";
layerId = "2C2961A1-FB91-4944-9F77-3476E1CA3B43";
width = 600;
},
{
hints = (
{
horizontal = 1;
place = "{9223372036854775808.000000, 0.000000}";
type = Tag;
name = hr00;
}
);
layerId = "794B2617-B5E8-46A3-BB57-9FF4B4129D38";
name = Regular;
paths = (
{
closed = 1;
nodes = (
"366 750 LINE SMOOTH",
"381 750 OFFCURVE",
"393 762 OFFCURVE",
"393 777 CURVE SMOOTH",
"393 843 LINE SMOOTH",
"393 858 OFFCURVE",
"381 870 OFFCURVE",
"366 870 CURVE SMOOTH",
"87 870 LINE SMOOTH",
"72 870 OFFCURVE",
"60 858 OFFCURVE",
"60 843 CURVE SMOOTH",
"60 777 LINE SMOOTH",
"60 762 OFFCURVE",
"72 750 OFFCURVE",
"87 750 CURVE SMOOTH"
);
}
);
width = 453;
},
{
associatedMasterId = "7891CA1A-7632-4D56-9F64-CBE5433B6847";
layerId = "B59C78E1-B6F6-4A7C-9E53-DC2ADEC481BE";
width = 600;
},
{
guideLines = (
{
position = "{0, 900}";
}
);
hints = (
{
horizontal = 1;
place = "{9223372036854775808.000000, 0.000000}";
type = Tag;
name = hr00;
}
);
layerId = "A67CAC85-0E07-4E45-8FAE-4EA88B7D3365";
name = SemiBold;
paths = (
{
closed = 1;
nodes = (
"401 750 LINE SMOOTH",
"416 750 OFFCURVE",
"428 762 OFFCURVE",
"428 777 CURVE SMOOTH",
"428 863 LINE SMOOTH",
"428 878 OFFCURVE",
"416 890 OFFCURVE",
"401 890 CURVE SMOOTH",
"82 890 LINE SMOOTH",
"67 890 OFFCURVE",
"55 878 OFFCURVE",
"55 863 CURVE SMOOTH",
"55 777 LINE SMOOTH",
"55 762 OFFCURVE",
"67 750 OFFCURVE",
"82 750 CURVE SMOOTH"
);
}
);
width = 483;
},
{
associatedMasterId = "7891CA1A-7632-4D56-9F64-CBE5433B6847";
layerId = "EBCD298A-9C51-488A-B43D-5D3FB5B7406C";
width = 600;
},
{
guideLines = (
{
position = "{0, 920}";
}
);
hints = (
{
horizontal = 1;
place = "{9223372036854775808.000000, 0.000000}";
type = Tag;
name = hr00;
}
);
layerId = "23D188E6-7019-4CFD-8C83-9B160EBC8A6F";
name = Bold;
paths = (
{
closed = 1;
nodes = (
"73 900 LINE SMOOTH",
"60 900 OFFCURVE",
"50 890 OFFCURVE",
"50 877 CURVE SMOOTH",
"50 773 LINE SMOOTH",
"50 760 OFFCURVE",
"60 750 OFFCURVE",
"73 750 CURVE SMOOTH",
"450 750 LINE SMOOTH",
"463 750 OFFCURVE",
"473 760 OFFCURVE",
"473 773 CURVE SMOOTH",
"473 877 LINE SMOOTH",
"473 890 OFFCURVE",
"463 900 OFFCURVE",
"450 900 CURVE SMOOTH"
);
}
);
width = 523;
},
{
guideLines = (
{
position = "{0, 840}";
}
);
hints = (
{
horizontal = 1;
place = "{9223372036854775808.000000, 0.000000}";
type = Tag;
name = hr00;
}
);
layerId = "3B5D4880-7EC1-45C7-ACF2-835190E6862B";
name = SemiLight;
paths = (
{
closed = 1;
nodes = (
"321 750 LINE SMOOTH",
"336 750 OFFCURVE",
"348 762 OFFCURVE",
"348 777 CURVE SMOOTH",
"348 813 LINE SMOOTH",
"348 828 OFFCURVE",
"336 840 OFFCURVE",
"321 840 CURVE SMOOTH",
"92 840 LINE SMOOTH",
"77 840 OFFCURVE",
"65 828 OFFCURVE",
"65 813 CURVE SMOOTH",
"65 777 LINE SMOOTH",
"65 762 OFFCURVE",
"77 750 OFFCURVE",
"92 750 CURVE SMOOTH"
);
}
);
width = 413;
}
);
unicode = F6D0;
},
{
glyphname = Ogonek;
lastChange = "2015-11-19 08:48:24 +0000";
layers = (
{
guideLines = (
{
position = "{0, -220}";
},
{
position = "{0, -82}";
}
);
hints = (
{
horizontal = 1;
origin = "{0, 11}";
type = Tag;
name = hr01;
},
{
horizontal = 1;
origin = "{0, 18}";
type = Tag;
name = hr02;
}
);
layerId = "7891CA1A-7632-4D56-9F64-CBE5433B6847";
name = Light;
paths = (
{
closed = 1;
nodes = (
"221 -220 LINE SMOOTH",
"234 -220 OFFCURVE",
"243 -211 OFFCURVE",
"243 -198 CURVE SMOOTH",
"243 -185 LINE SMOOTH",
"243 -172 OFFCURVE",
"234 -163 OFFCURVE",
"221 -163 CURVE SMOOTH",
"206 -163 LINE SMOOTH",
"162 -163 OFFCURVE",
"130 -133 OFFCURVE",
"130 -82 CURVE SMOOTH",
"130 -31 OFFCURVE",
"162 0 OFFCURVE",
"206 0 CURVE SMOOTH",
"221 0 LINE SMOOTH",
"234 0 OFFCURVE",
"243 9 OFFCURVE",
"243 22 CURVE SMOOTH",
"243 35 LINE SMOOTH",
"243 48 OFFCURVE",
"234 57 OFFCURVE",
"221 57 CURVE SMOOTH",
"202 57 LINE SMOOTH",
"121 57 OFFCURVE",
"70 3 OFFCURVE",
"70 -82 CURVE SMOOTH",
"70 -167 OFFCURVE",
"121 -220 OFFCURVE",
"202 -220 CURVE SMOOTH"
);
}
);
width = 313;
},
{
associatedMasterId = "7891CA1A-7632-4D56-9F64-CBE5433B6847";
layerId = "2C2961A1-FB91-4944-9F77-3476E1CA3B43";
width = 600;
},
{
hints = (
{
horizontal = 1;
place = "{9223372036854775808.000000, 0.000000}";
type = Tag;
name = hr01;
},
{
horizontal = 1;
place = "{9223372036854775808.000000, 0.000000}";
type = Tag;
name = hr02;
}
);
layerId = "794B2617-B5E8-46A3-BB57-9FF4B4129D38";
name = Regular;
paths = (
{
closed = 1;
nodes = (
"232 -220 LINE SMOOTH",
"245 -220 OFFCURVE",
"254 -211 OFFCURVE",
"254 -198 CURVE SMOOTH",
"254 -150 LINE SMOOTH",
"254 -137 OFFCURVE",
"245 -128 OFFCURVE",
"232 -128 CURVE SMOOTH",
"217 -128 LINE SMOOTH",
"183 -128 OFFCURVE",
"159 -105 OFFCURVE",
"159 -64 CURVE SMOOTH",
"159 -23 OFFCURVE",
"183 0 OFFCURVE",
"217 0 CURVE SMOOTH",
"232 0 LINE SMOOTH",
"245 0 OFFCURVE",
"254 9 OFFCURVE",
"254 22 CURVE SMOOTH",
"254 70 LINE SMOOTH",
"254 83 OFFCURVE",
"245 92 OFFCURVE",
"232 92 CURVE SMOOTH",
"213 92 LINE SMOOTH",
"122 92 OFFCURVE",
"60 31 OFFCURVE",
"60 -64 CURVE SMOOTH",
"60 -159 OFFCURVE",
"122 -220 OFFCURVE",
"213 -220 CURVE SMOOTH"
);
}
);
width = 314;
},
{
associatedMasterId = "7891CA1A-7632-4D56-9F64-CBE5433B6847";
layerId = "B59C78E1-B6F6-4A7C-9E53-DC2ADEC481BE";
width = 600;
},
{
guideLines = (
{
position = "{0, -220}";
}
);
hints = (
{
horizontal = 1;
place = "{9223372036854775808.000000, 0.000000}";
type = Tag;
name = hr01;
},
{
horizontal = 1;
place = "{9223372036854775808.000000, 0.000000}";
type = Tag;
name = hr02;
}
);
layerId = "A67CAC85-0E07-4E45-8FAE-4EA88B7D3365";
name = SemiBold;
paths = (
{
closed = 1;
nodes = (
"236 -220 LINE SMOOTH",
"249 -220 OFFCURVE",
"258 -211 OFFCURVE",
"258 -198 CURVE SMOOTH",
"258 -134 LINE SMOOTH",
"258 -121 OFFCURVE",
"249 -112 OFFCURVE",
"236 -112 CURVE SMOOTH",
"221 -112 LINE SMOOTH",
"187 -112 OFFCURVE",
"167 -87 OFFCURVE",
"167 -56 CURVE SMOOTH",
"167 -25 OFFCURVE",
"187 0 OFFCURVE",
"221 0 CURVE SMOOTH",
"236 0 LINE SMOOTH",
"249 0 OFFCURVE",
"258 9 OFFCURVE",
"258 22 CURVE SMOOTH",
"258 86 LINE SMOOTH",
"258 99 OFFCURVE",
"249 108 OFFCURVE",
"236 108 CURVE SMOOTH",
"217 108 LINE SMOOTH",
"116 108 OFFCURVE",
"55 39 OFFCURVE",
"55 -56 CURVE SMOOTH",
"55 -151 OFFCURVE",
"116 -220 OFFCURVE",
"217 -220 CURVE SMOOTH"
);
}
);
width = 313;
},
{
associatedMasterId = "7891CA1A-7632-4D56-9F64-CBE5433B6847";
layerId = "EBCD298A-9C51-488A-B43D-5D3FB5B7406C";
width = 600;
},
{
guideLines = (
{
position = "{0, -220}";
},
{
position = "{0, -74}";
},
{
position = "{0, -64}";
},
{
position = "{0, -56}";
},
{
angle = 90;
position = "{40, 0}";
},
{
angle = 90;
position = "{212, 0}";
}
);
hints = (
{
horizontal = 1;
place = "{9223372036854775808.000000, 0.000000}";
type = Tag;
name = hr01;
}
);
layerId = "23D188E6-7019-4CFD-8C83-9B160EBC8A6F";
name = Bold;
paths = (
{
closed = 1;
nodes = (
"226 -98 LINE SMOOTH",
"241 -98 OFFCURVE",
"253 -110 OFFCURVE",
"253 -125 CURVE SMOOTH",
"253 -193 LINE SMOOTH",
"253 -208 OFFCURVE",
"241 -220 OFFCURVE",
"226 -220 CURVE SMOOTH",
"212 -220 LINE SMOOTH",
"91 -220 OFFCURVE",
"40 -144 OFFCURVE",
"40 -49 CURVE SMOOTH",
"40 46 OFFCURVE",
"91 122 OFFCURVE",
"212 122 CURVE SMOOTH",
"226 122 LINE SMOOTH",
"241 122 OFFCURVE",
"253 110 OFFCURVE",
"253 95 CURVE SMOOTH",
"253 27 LINE SMOOTH",
"253 12 OFFCURVE",
"241 0 OFFCURVE",
"226 0 CURVE SMOOTH",
"216 0 LINE SMOOTH",
"177 0 OFFCURVE",
"166 -28 OFFCURVE",
"166 -49 CURVE SMOOTH",
"166 -70 OFFCURVE",
"177 -98 OFFCURVE",
"216 -98 CURVE SMOOTH"
);
}
);
width = 303;
},
{
guideLines = (
{
position = "{0, -220}";
},
{
position = "{0, -70}";
}
);
hints = (
{
horizontal = 1;
place = "{9223372036854775808.000000, 0.000000}";
type = Tag;
name = hr01;
},
{
horizontal = 1;
place = "{9223372036854775808.000000, 0.000000}";
type = Tag;
name = hr02;
}
);
layerId = "3B5D4880-7EC1-45C7-ACF2-835190E6862B";
name = SemiLight;
paths = (
{
closed = 1;
nodes = (
"208 -220 LINE SMOOTH",
"127 -220 OFFCURVE",
"65 -169 OFFCURVE",
"65 -74 CURVE SMOOTH",
"65 21 OFFCURVE",
"127 72 OFFCURVE",
"208 72 CURVE SMOOTH",
"227 72 LINE SMOOTH",
"240 72 OFFCURVE",
"249 63 OFFCURVE",
"249 50 CURVE SMOOTH",
"249 22 LINE SMOOTH",
"249 9 OFFCURVE",
"240 0 OFFCURVE",
"227 0 CURVE SMOOTH",
"212 0 LINE SMOOTH",
"168 0 OFFCURVE",
"146 -23 OFFCURVE",
"146 -74 CURVE SMOOTH",
"146 -125 OFFCURVE",
"168 -148 OFFCURVE",
"212 -148 CURVE SMOOTH",
"227 -148 LINE SMOOTH",
"240 -148 OFFCURVE",
"249 -157 OFFCURVE",
"249 -170 CURVE SMOOTH",
"249 -198 LINE SMOOTH",
"249 -211 OFFCURVE",
"240 -220 OFFCURVE",
"227 -220 CURVE SMOOTH"
);
}
);
width = 314;
}
);
userData = {
com.typemytype.robofont.guides = (
{
angle = 0;
isGlobal = 0;
x = 0;
y = -220;
},
{
angle = 0;
isGlobal = 0;
x = 0;
y = -82;
}
);
};
},
{
glyphname = Ring;
lastChange = "2015-11-19 08:48:24 +0000";
layers = (
{
hints = (
{
horizontal = 1;
origin = "{0, 0}";
type = Tag;
name = hr00;
}
);
layerId = "7891CA1A-7632-4D56-9F64-CBE5433B6847";
name = Light;
paths = (
{
closed = 1;
nodes = (
"120 815 CURVE SMOOTH",
"120 832 OFFCURVE",
"133 845 OFFCURVE",
"150 845 CURVE SMOOTH",
"167 845 OFFCURVE",
"180 832 OFFCURVE",
"180 815 CURVE SMOOTH",
"180 798 OFFCURVE",
"167 785 OFFCURVE",
"150 785 CURVE SMOOTH",
"133 785 OFFCURVE",
"120 798 OFFCURVE"
);
},
{
closed = 1;
nodes = (
"70 815 CURVE SMOOTH",
"70 771 OFFCURVE",
"106 740 OFFCURVE",
"150 740 CURVE SMOOTH",
"194 740 OFFCURVE",
"230 771 OFFCURVE",
"230 815 CURVE SMOOTH",
"230 859 OFFCURVE",
"194 890 OFFCURVE",
"150 890 CURVE SMOOTH",
"106 890 OFFCURVE",
"70 859 OFFCURVE"
);
}
);
width = 300;
},
{
associatedMasterId = "7891CA1A-7632-4D56-9F64-CBE5433B6847";
layerId = "2C2961A1-FB91-4944-9F77-3476E1CA3B43";
width = 600;
},
{
guideLines = (
{
position = "{0, 740}";
}
);
hints = (
{
horizontal = 1;
place = "{9223372036854775808.000000, 0.000000}";
type = Tag;
name = hr00;
}
);
layerId = "794B2617-B5E8-46A3-BB57-9FF4B4129D38";
name = Regular;
paths = (
{
closed = 1;
nodes = (
"120 825 CURVE SMOOTH",
"120 842 OFFCURVE",
"133 855 OFFCURVE",
"150 855 CURVE SMOOTH",
"167 855 OFFCURVE",
"180 842 OFFCURVE",
"180 825 CURVE SMOOTH",
"180 808 OFFCURVE",
"167 795 OFFCURVE",
"150 795 CURVE SMOOTH",
"133 795 OFFCURVE",
"120 808 OFFCURVE"
);
},
{
closed = 1;
nodes = (
"60 825 CURVE SMOOTH",
"60 775 OFFCURVE",
"100 740 OFFCURVE",
"150 740 CURVE SMOOTH",
"200 740 OFFCURVE",
"240 775 OFFCURVE",
"240 825 CURVE SMOOTH",
"240 875 OFFCURVE",
"200 910 OFFCURVE",
"150 910 CURVE SMOOTH",
"100 910 OFFCURVE",
"60 875 OFFCURVE"
);
}
);
width = 300;
},
{
associatedMasterId = "7891CA1A-7632-4D56-9F64-CBE5433B6847";
layerId = "B59C78E1-B6F6-4A7C-9E53-DC2ADEC481BE";
width = 600;
},
{
guideLines = (
{
position = "{0, 740}";
}
);
hints = (
{
horizontal = 1;
place = "{9223372036854775808.000000, 0.000000}";
type = Tag;
name = hr00;
}
);
layerId = "A67CAC85-0E07-4E45-8FAE-4EA88B7D3365";
name = SemiBold;
paths = (
{
closed = 1;
nodes = (
"120 830 CURVE SMOOTH",
"120 847 OFFCURVE",
"133 860 OFFCURVE",
"150 860 CURVE SMOOTH",
"167 860 OFFCURVE",
"180 847 OFFCURVE",
"180 830 CURVE SMOOTH",
"180 813 OFFCURVE",
"167 800 OFFCURVE",
"150 800 CURVE SMOOTH",
"133 800 OFFCURVE",
"120 813 OFFCURVE"
);
},
{
closed = 1;
nodes = (
"55 830 CURVE SMOOTH",
"55 778 OFFCURVE",
"98 740 OFFCURVE",
"150 740 CURVE SMOOTH",
"202 740 OFFCURVE",
"245 778 OFFCURVE",
"245 830 CURVE SMOOTH",
"245 882 OFFCURVE",
"202 920 OFFCURVE",
"150 920 CURVE SMOOTH",
"98 920 OFFCURVE",
"55 882 OFFCURVE"
);
}
);
width = 300;
},
{
associatedMasterId = "7891CA1A-7632-4D56-9F64-CBE5433B6847";
layerId = "EBCD298A-9C51-488A-B43D-5D3FB5B7406C";
width = 600;
},
{
guideLines = (
{
position = "{0, 740}";
},
{
position = "{0, 940}";
},
{
position = "{0, 986}";
},
{
position = "{0, 840}";
},
{
angle = 90;
position = "{150, 0}";
},
{
angle = 90;
position = "{120, 0}";
},
{
angle = 90;
position = "{50, 0}";
},
{
angle = 90;
position = "{55, 0}";
},
{
angle = 90;
position = "{60, 0}";
},
{
angle = 90;
position = "{65, 0}";
},
{
angle = 90;
position = "{70, 0}";
}
);
hints = (
{
horizontal = 1;
place = "{9223372036854775808.000000, 0.000000}";
type = Tag;
name = hr00;
}
);
layerId = "23D188E6-7019-4CFD-8C83-9B160EBC8A6F";
name = Bold;
paths = (
{
closed = 1;
nodes = (
"120 835 CURVE SMOOTH",
"120 852 OFFCURVE",
"133 865 OFFCURVE",
"150 865 CURVE SMOOTH",
"167 865 OFFCURVE",
"180 852 OFFCURVE",
"180 835 CURVE SMOOTH",
"180 818 OFFCURVE",
"167 805 OFFCURVE",
"150 805 CURVE SMOOTH",
"133 805 OFFCURVE",
"120 818 OFFCURVE"
);
},
{
closed = 1;
nodes = (
"50 835 CURVE SMOOTH",
"50 780 OFFCURVE",
"95 740 OFFCURVE",
"150 740 CURVE SMOOTH",
"205 740 OFFCURVE",
"250 780 OFFCURVE",
"250 835 CURVE SMOOTH",
"250 890 OFFCURVE",
"205 930 OFFCURVE",
"150 930 CURVE SMOOTH",
"95 930 OFFCURVE",
"50 890 OFFCURVE"
);
}
);
width = 300;
},
{
guideLines = (
{
position = "{0, 740}";
}
);
hints = (
{
horizontal = 1;
place = "{9223372036854775808.000000, 0.000000}";
type = Tag;
name = hr00;
}
);
layerId = "3B5D4880-7EC1-45C7-ACF2-835190E6862B";
name = SemiLight;
paths = (
{
closed = 1;
nodes = (
"120 820 CURVE SMOOTH",
"120 837 OFFCURVE",
"133 850 OFFCURVE",
"150 850 CURVE SMOOTH",
"167 850 OFFCURVE",
"180 837 OFFCURVE",
"180 820 CURVE SMOOTH",
"180 803 OFFCURVE",
"167 790 OFFCURVE",
"150 790 CURVE SMOOTH",
"133 790 OFFCURVE",
"120 803 OFFCURVE"
);
},
{
closed = 1;
nodes = (
"65 820 CURVE SMOOTH",
"65 773 OFFCURVE",
"103 740 OFFCURVE",
"150 740 CURVE SMOOTH",
"197 740 OFFCURVE",
"235 773 OFFCURVE",
"235 820 CURVE SMOOTH",
"235 867 OFFCURVE",
"197 900 OFFCURVE",
"150 900 CURVE SMOOTH",
"103 900 OFFCURVE",
"65 867 OFFCURVE"
);
}
);
width = 300;
}
);
},
{
glyphname = Tilde;
lastChange = "2015-11-19 08:48:24 +0000";
layers = (
{
guideLines = (
{
position = "{0, 750}";
},
{
position = "{0, 833}";
},
{
position = "{0, 880}";
},
{
angle = 90;
position = "{246, 0}";
}
);
hints = (
{
horizontal = 1;
origin = "{0, 10}";
type = Tag;
name = hr01;
},
{
horizontal = 1;
origin = "{0, 23}";
type = Tag;
name = hr02;
}
);
layerId = "7891CA1A-7632-4D56-9F64-CBE5433B6847";
name = Light;
paths = (
{
closed = 1;
nodes = (
"70 766 CURVE SMOOTH",
"70 758 OFFCURVE",
"76 750 OFFCURVE",
"86 750 CURVE SMOOTH",
"106 750 LINE SMOOTH",
"127 750 OFFCURVE",
"124 779 OFFCURVE",
"147 779 CURVE SMOOTH",
"175 779 OFFCURVE",
"198 745 OFFCURVE",
"244 745 CURVE SMOOTH",
"284 745 OFFCURVE",
"319 786 OFFCURVE",
"319 824 CURVE SMOOTH",
"319 832 OFFCURVE",
"313 840 OFFCURVE",
"303 840 CURVE SMOOTH",
"283 840 LINE SMOOTH",
"261 840 OFFCURVE",
"266 810 OFFCURVE",
"242 810 CURVE SMOOTH",
"213 810 OFFCURVE",
"191 844 OFFCURVE",
"144 844 CURVE SMOOTH",
"103 844 OFFCURVE",
"70 804 OFFCURVE"
);
}
);
width = 389;
},
{
associatedMasterId = "7891CA1A-7632-4D56-9F64-CBE5433B6847";
layerId = "2C2961A1-FB91-4944-9F77-3476E1CA3B43";
width = 600;
},
{
guideLines = (
{
position = "{0, 750}";
},
{
position = "{0, 900}";
}
);
hints = (
{
horizontal = 1;
place = "{9223372036854775808.000000, 0.000000}";
type = Tag;
name = hr01;
}
);
layerId = "794B2617-B5E8-46A3-BB57-9FF4B4129D38";
name = Regular;
paths = (
{
closed = 1;
nodes = (
"303 745 CURVE SMOOTH",
"370 745 OFFCURVE",
"408 811 OFFCURVE",
"408 861 CURVE SMOOTH",
"408 871 OFFCURVE",
"401 880 OFFCURVE",
"389 880 CURVE SMOOTH",
"333 880 LINE SMOOTH",
"310 880 OFFCURVE",
"318 851 OFFCURVE",
"287 851 CURVE SMOOTH",
"247 851 OFFCURVE",
"236 885 OFFCURVE",
"165 885 CURVE SMOOTH",
"98 885 OFFCURVE",
"60 819 OFFCURVE",
"60 769 CURVE SMOOTH",
"60 759 OFFCURVE",
"67 750 OFFCURVE",
"79 750 CURVE SMOOTH",
"135 750 LINE SMOOTH",
"158 750 OFFCURVE",
"150 779 OFFCURVE",
"181 779 CURVE SMOOTH",
"221 779 OFFCURVE",
"232 745 OFFCURVE"
);
}
);
width = 468;
},
{
associatedMasterId = "7891CA1A-7632-4D56-9F64-CBE5433B6847";
layerId = "B59C78E1-B6F6-4A7C-9E53-DC2ADEC481BE";
width = 600;
},
{
guideLines = (
{
position = "{0, 750}";
},
{
position = "{0, 910}";
},
{
position = "{0, 915}";
}
);
hints = (
{
horizontal = 1;
place = "{9223372036854775808.000000, 0.000000}";
type = Tag;
name = hr01;
}
);
layerId = "A67CAC85-0E07-4E45-8FAE-4EA88B7D3365";
name = SemiBold;
paths = (
{
closed = 1;
nodes = (
"341 745 CURVE SMOOTH",
"408 745 OFFCURVE",
"453 821 OFFCURVE",
"453 881 CURVE SMOOTH",
"453 891 OFFCURVE",
"446 900 OFFCURVE",
"434 900 CURVE SMOOTH",
"358 900 LINE SMOOTH",
"337 900 OFFCURVE",
"341 860 OFFCURVE",
"309 860 CURVE SMOOTH",
"266 860 OFFCURVE",
"249 905 OFFCURVE",
"167 905 CURVE SMOOTH",
"90 905 OFFCURVE",
"55 829 OFFCURVE",
"55 769 CURVE SMOOTH",
"55 759 OFFCURVE",
"62 750 OFFCURVE",
"74 750 CURVE SMOOTH",
"150 750 LINE SMOOTH",
"171 750 OFFCURVE",
"167 790 OFFCURVE",
"199 790 CURVE SMOOTH",
"242 790 OFFCURVE",
"259 745 OFFCURVE"
);
}
);
width = 508;
},
{
associatedMasterId = "7891CA1A-7632-4D56-9F64-CBE5433B6847";
layerId = "EBCD298A-9C51-488A-B43D-5D3FB5B7406C";
width = 600;
},
{
guideLines = (
{
position = "{0, 750}";
},
{
position = "{0, 925}";
},
{
position = "{0, 881}";
},
{
position = "{0, 794}";
},
{
position = "{0, 745}";
},
{
position = "{0, 920}";
},
{
angle = 90;
position = "{552, 0}";
},
{
angle = 90;
position = "{-749, 0}";
},
{
angle = 90;
position = "{-396, 0}";
},
{
angle = 90;
position = "{238, 0}";
}
);
hints = (
{
horizontal = 1;
place = "{9223372036854775808.000000, 0.000000}";
type = Tag;
name = hr01;
},
{
horizontal = 1;
place = "{9223372036854775808.000000, 0.000000}";
type = Tag;
name = hr02;
}
);
layerId = "23D188E6-7019-4CFD-8C83-9B160EBC8A6F";
name = Bold;
paths = (
{
closed = 1;
nodes = (
"321 745 CURVE SMOOTH",
"430 745 OFFCURVE",
"457 855 OFFCURVE",
"457 901 CURVE SMOOTH",
"457 911 OFFCURVE",
"450 920 OFFCURVE",
"438 920 CURVE SMOOTH",
"354 920 LINE SMOOTH",
"332 920 OFFCURVE",
"334 889 OFFCURVE",
"304 889 CURVE SMOOTH",
"265 889 OFFCURVE",
"246 925 OFFCURVE",
"186 925 CURVE SMOOTH",
"76 925 OFFCURVE",
"50 814 OFFCURVE",
"50 768 CURVE SMOOTH",
"50 758 OFFCURVE",
"59 750 OFFCURVE",
"69 750 CURVE SMOOTH",
"153 750 LINE SMOOTH",
"175 750 OFFCURVE",
"172 781 OFFCURVE",
"203 781 CURVE SMOOTH",
"242 781 OFFCURVE",
"261 745 OFFCURVE"
);
}
);
width = 527;
},
{
guideLines = (
{
position = "{0, 750}";
},
{
position = "{0, 890}";
}
);
hints = (
{
horizontal = 1;
place = "{9223372036854775808.000000, 0.000000}";
type = Tag;
name = hr01;
}
);
layerId = "3B5D4880-7EC1-45C7-ACF2-835190E6862B";
name = SemiLight;
paths = (
{
closed = 1;
nodes = (
"278 745 CURVE SMOOTH",
"340 745 OFFCURVE",
"364 811 OFFCURVE",
"364 841 CURVE SMOOTH",
"364 851 OFFCURVE",
"357 860 OFFCURVE",
"345 860 CURVE SMOOTH",
"308 860 LINE SMOOTH",
"287 860 OFFCURVE",
"296 833 OFFCURVE",
"265 833 CURVE SMOOTH",
"227 833 OFFCURVE",
"213 865 OFFCURVE",
"151 865 CURVE SMOOTH",
"89 865 OFFCURVE",
"65 799 OFFCURVE",
"65 769 CURVE SMOOTH",
"65 759 OFFCURVE",
"72 750 OFFCURVE",
"84 750 CURVE SMOOTH",
"121 750 LINE SMOOTH",
"142 750 OFFCURVE",
"133 777 OFFCURVE",
"164 777 CURVE SMOOTH",
"199 777 OFFCURVE",
"217 745 OFFCURVE"
);
}
);
width = 429;
}
);
userData = {
com.typemytype.robofont.guides = (
{
angle = 0;
isGlobal = 0;
x = 0;
y = 750;
},
{
angle = 0;
isGlobal = 0;
x = 0;
y = 833;
},
{
angle = 0;
isGlobal = 0;
x = 0;
y = 880;
},
{
angle = 90;
isGlobal = 0;
x = 246;
y = 0;
}
);
};
},
{
glyphname = A;
lastChange = "2015-11-19 08:48:24 +0000";
layers = (
{
guideLines = (
{
position = "{0, 680}";
},
{
angle = 90;
position = "{35, 0}";
},
{
angle = 90;
position = "{637, 0}";
},
{
angle = 90;
position = "{336, 0}";
}
);
hints = (
{
horizontal = 1;
origin = "{0, 0}";
type = Tag;
name = hr00;
}
);
layerId = "7891CA1A-7632-4D56-9F64-CBE5433B6847";
name = Light;
paths = (
{
closed = 1;
nodes = (
"564 15 LINE SMOOTH",
"566 10 OFFCURVE",
"573 0 OFFCURVE",
"586 0 CURVE SMOOTH",
"606 0 LINE SMOOTH",
"617 0 OFFCURVE",
"626 9 OFFCURVE",
"626 20 CURVE SMOOTH",
"626 22 OFFCURVE",
"625 28 OFFCURVE",
"624 31 CURVE SMOOTH",
"371 680 LINE SMOOTH",
"366 693 OFFCURVE",
"358 700 OFFCURVE",
"342 700 CURVE SMOOTH",
"308 700 LINE SMOOTH",
"292 700 OFFCURVE",
"284 693 OFFCURVE",
"279 680 CURVE SMOOTH",
"26 31 LINE SMOOTH",
"25 28 OFFCURVE",
"24 22 OFFCURVE",
"24 20 CURVE SMOOTH",
"24 9 OFFCURVE",
"33 0 OFFCURVE",
"44 0 CURVE SMOOTH",
"64 0 LINE SMOOTH",
"77 0 OFFCURVE",
"84 10 OFFCURVE",
"86 15 CURVE SMOOTH",
"148 175 LINE",
"502 175 LINE"
);
},
{
closed = 1;
nodes = (
"325 629 LINE",
"478 235 LINE",
"172 235 LINE"
);
}
);
width = 650;
},
{
associatedMasterId = "7891CA1A-7632-4D56-9F64-CBE5433B6847";
layerId = "2C2961A1-FB91-4944-9F77-3476E1CA3B43";
width = 600;
},
{
guideLines = (
{
position = "{0, 188}";
},
{
angle = 90;
position = "{359, 0}";
}
);
hints = (
{
horizontal = 1;
place = "{9223372036854775808.000000, 0.000000}";
type = Tag;
name = hr00;
}
);
layerId = "794B2617-B5E8-46A3-BB57-9FF4B4129D38";
name = Regular;
paths = (
{
closed = 1;
nodes = (
"297 700 LINE",
"276 700 OFFCURVE",
"267 688 OFFCURVE",
"259 666 CURVE",
"14 34 LINE",
"13 31 OFFCURVE",
"13 29 OFFCURVE",
"13 27 CURVE SMOOTH",
"13 12 OFFCURVE",
"25 0 OFFCURVE",
"40 0 CURVE",
"112 0 LINE",
"138 0 OFFCURVE",
"147 14 OFFCURVE",
"151 25 CURVE",
"194 136 LINE",
"510 136 LINE",
"553 25 LINE",
"557 14 OFFCURVE",
"566 0 OFFCURVE",
"592 0 CURVE",
"664 0 LINE",
"679 0 OFFCURVE",
"691 12 OFFCURVE",
"691 27 CURVE SMOOTH",
"691 29 OFFCURVE",
"691 31 OFFCURVE",
"690 34 CURVE",
"445 666 LINE",
"437 688 OFFCURVE",
"428 700 OFFCURVE",
"407 700 CURVE"
);
},
{
closed = 1;
nodes = (
"242 261 LINE",
"352 546 LINE",
"462 261 LINE"
);
}
);
width = 704;
},
{
associatedMasterId = "7891CA1A-7632-4D56-9F64-CBE5433B6847";
layerId = "B59C78E1-B6F6-4A7C-9E53-DC2ADEC481BE";
width = 600;
},
{
guideLines = (
{
angle = 90;
position = "{363, 0}";
}
);
hints = (
{
horizontal = 1;
place = "{9223372036854775808.000000, 0.000000}";
type = Tag;
name = hr00;
}
);
layerId = "A67CAC85-0E07-4E45-8FAE-4EA88B7D3365";
name = SemiBold;
paths = (
{
closed = 1;
nodes = (
"440 700 CURVE",
"278 700 LINE",
"251 700 OFFCURVE",
"238 682 OFFCURVE",
"233 667 CURVE",
"15 37 LINE",
"13 32 OFFCURVE",
"11 24 OFFCURVE",
"11 22 CURVE SMOOTH",
"11 10 OFFCURVE",
"21 0 OFFCURVE",
"33 0 CURVE",
"159 0 LINE",
"185 0 OFFCURVE",
"195 15 OFFCURVE",
"198 25 CURVE",
"226 108 LINE",
"492 108 LINE",
"520 25 LINE",
"523 15 OFFCURVE",
"533 0 OFFCURVE",
"559 0 CURVE",
"685 0 LINE",
"697 0 OFFCURVE",
"707 10 OFFCURVE",
"707 22 CURVE SMOOTH",
"707 24 OFFCURVE",
"705 32 OFFCURVE",
"703 37 CURVE",
"485 667 LINE",
"480 682 OFFCURVE",
"467 700 OFFCURVE"
);
},
{
closed = 1;
nodes = (
"359 503 LINE",
"440 263 LINE",
"278 263 LINE"
);
}
);
width = 718;
},
{
associatedMasterId = "7891CA1A-7632-4D56-9F64-CBE5433B6847";
layerId = "EBCD298A-9C51-488A-B43D-5D3FB5B7406C";
width = 600;
},
{
hints = (
{
horizontal = 1;
place = "{9223372036854775808.000000, 0.000000}";
type = Tag;
name = hr00;
}
);
layerId = "23D188E6-7019-4CFD-8C83-9B160EBC8A6F";
name = Bold;
paths = (
{
closed = 1;
nodes = (
"269 700 LINE SMOOTH",
"242 700 OFFCURVE",
"228 682 OFFCURVE",
"224 667 CURVE",
"1 29 LINE SMOOTH",
"0 26 OFFCURVE",
"0 24 OFFCURVE",
"0 22 CURVE SMOOTH",
"0 10 OFFCURVE",
"10 0 OFFCURVE",
"22 0 CURVE SMOOTH",
"207 0 LINE SMOOTH",
"233 0 OFFCURVE",
"242 14 OFFCURVE",
"246 25 CURVE SMOOTH",
"270 91 LINE",
"485 91 LINE",
"509 25 LINE SMOOTH",
"513 14 OFFCURVE",
"522 0 OFFCURVE",
"548 0 CURVE SMOOTH",
"733 0 LINE SMOOTH",
"745 0 OFFCURVE",
"755 10 OFFCURVE",
"755 22 CURVE SMOOTH",
"755 24 OFFCURVE",
"755 26 OFFCURVE",
"754 29 CURVE SMOOTH",
"531 667 LINE",
"527 682 OFFCURVE",
"513 700 OFFCURVE",
"486 700 CURVE SMOOTH"
);
},
{
closed = 1;
nodes = (
"321 286 LINE",
"377 472 LINE",
"434 286 LINE"
);
}
);
width = 755;
},
{
guideLines = (
{
position = "{0, 286}";
},
{
position = "{0, 91}";
},
{
position = "{0, 188}";
},
{
angle = 90;
position = "{677, 0}";
}
);
hints = (
{
horizontal = 1;
place = "{9223372036854775808.000000, 0.000000}";
type = Tag;
name = hr00;
}
);
layerId = "3B5D4880-7EC1-45C7-ACF2-835190E6862B";
name = SemiLight;
paths = (
{
closed = 1;
nodes = (
"565 25 LINE SMOOTH",
"569 14 OFFCURVE",
"578 0 OFFCURVE",
"604 0 CURVE SMOOTH",
"641 0 LINE SMOOTH",
"653 0 OFFCURVE",
"663 10 OFFCURVE",
"663 22 CURVE SMOOTH",
"663 24 OFFCURVE",
"662 29 OFFCURVE",
"659 36 CURVE SMOOTH",
"415 667 LINE SMOOTH",
"409 682 OFFCURVE",
"397 700 OFFCURVE",
"370 700 CURVE SMOOTH",
"310 700 LINE SMOOTH",
"283 700 OFFCURVE",
"271 682 OFFCURVE",
"265 667 CURVE SMOOTH",
"20 36 LINE SMOOTH",
"17 29 OFFCURVE",
"16 24 OFFCURVE",
"16 22 CURVE SMOOTH",
"16 10 OFFCURVE",
"26 0 OFFCURVE",
"38 0 CURVE SMOOTH",
"75 0 LINE SMOOTH",
"101 0 OFFCURVE",
"110 14 OFFCURVE",
"114 25 CURVE SMOOTH",
"166 158 LINE",
"513 158 LINE"
);
},
{
closed = 1;
nodes = (
"340 605 LINE",
"478 248 LINE",
"201 248 LINE"
);
}
);
width = 680;
}
);
leftKerningGroup = A;
rightKerningGroup = A;
unicode = 0041;
userData = {
com.typemytype.robofont.guides = (
{
angle = 0;
isGlobal = 0;
x = 0;
y = 680;
},
{
angle = 90;
isGlobal = 0;
x = 35;
y = 0;
},
{
angle = 90;
isGlobal = 0;
x = 637;
y = 0;
},
{
angle = 90;
isGlobal = 0;
x = 336;
y = 0;
}
);
};
},
{
glyphname = Aogonek;
lastChange = "2015-11-19 08:48:24 +0000";
layers = (
{
hints = (
{
horizontal = 1;
origin = "{0, 0}";
type = Tag;
name = hr00;
}
);
layerId = "7891CA1A-7632-4D56-9F64-CBE5433B6847";
name = Light;
paths = (
{
closed = 1;
nodes = (
"592 -220 LINE SMOOTH",
"605 -220 OFFCURVE",
"614 -211 OFFCURVE",
"614 -198 CURVE SMOOTH",
"614 -185 LINE SMOOTH",
"614 -172 OFFCURVE",
"605 -163 OFFCURVE",
"592 -163 CURVE SMOOTH",
"577 -163 LINE SMOOTH",
"533 -163 OFFCURVE",
"501 -133 OFFCURVE",
"501 -82 CURVE SMOOTH",
"501 -31 OFFCURVE",
"533 0 OFFCURVE",
"577 0 CURVE SMOOTH",
"606 0 LINE SMOOTH",
"617 0 OFFCURVE",
"626 9 OFFCURVE",
"626 20 CURVE SMOOTH",
"626 22 OFFCURVE",
"625 28 OFFCURVE",
"624 31 CURVE SMOOTH",
"371 680 LINE SMOOTH",
"366 693 OFFCURVE",
"358 700 OFFCURVE",
"342 700 CURVE SMOOTH",
"308 700 LINE SMOOTH",
"292 700 OFFCURVE",
"284 693 OFFCURVE",
"279 680 CURVE SMOOTH",
"26 31 LINE SMOOTH",
"25 28 OFFCURVE",
"24 22 OFFCURVE",
"24 20 CURVE SMOOTH",
"24 9 OFFCURVE",
"33 0 OFFCURVE",
"44 0 CURVE SMOOTH",
"64 0 LINE SMOOTH",
"77 0 OFFCURVE",
"84 10 OFFCURVE",
"86 15 CURVE SMOOTH",
"148 175 LINE",
"502 175 LINE",
"548 55 LINE",
"482 45 OFFCURVE",
"441 -6 OFFCURVE",
"441 -82 CURVE SMOOTH",
"441 -167 OFFCURVE",
"492 -220 OFFCURVE",
"573 -220 CURVE SMOOTH"
);
},
{
closed = 1;
nodes = (
"325 629 LINE",
"478 235 LINE",
"172 235 LINE"
);
}
);
width = 650;
},
{
associatedMasterId = "7891CA1A-7632-4D56-9F64-CBE5433B6847";
layerId = "2C2961A1-FB91-4944-9F77-3476E1CA3B43";
width = 600;
},
{
hints = (
{
horizontal = 1;
place = "{9223372036854775808.000000, 0.000000}";
type = Tag;
name = hr01;
}
);
layerId = "794B2617-B5E8-46A3-BB57-9FF4B4129D38";
name = Regular;
paths = (
{
closed = 1;
nodes = (
"297 700 LINE",
"276 700 OFFCURVE",
"267 688 OFFCURVE",
"259 666 CURVE",
"14 34 LINE",
"13 31 OFFCURVE",
"13 29 OFFCURVE",
"13 27 CURVE SMOOTH",
"13 12 OFFCURVE",
"25 0 OFFCURVE",
"40 0 CURVE",
"112 0 LINE",
"138 0 OFFCURVE",
"147 14 OFFCURVE",
"151 25 CURVE",
"194 136 LINE",
"510 136 LINE",
"541 54 LINE",
"512 27 OFFCURVE",
"495 -14 OFFCURVE",
"495 -64 CURVE SMOOTH",
"495 -159 OFFCURVE",
"557 -220 OFFCURVE",
"648 -220 CURVE",
"667 -220 LINE",
"680 -220 OFFCURVE",
"689 -211 OFFCURVE",
"689 -198 CURVE",
"689 -150 LINE",
"689 -137 OFFCURVE",
"680 -128 OFFCURVE",
"667 -128 CURVE",
"652 -128 LINE",
"618 -128 OFFCURVE",
"594 -105 OFFCURVE",
"594 -64 CURVE SMOOTH",
"594 -23 OFFCURVE",
"618 0 OFFCURVE",
"652 0 CURVE",
"664 0 LINE",
"679 0 OFFCURVE",
"691 12 OFFCURVE",
"691 27 CURVE SMOOTH",
"691 29 OFFCURVE",
"691 31 OFFCURVE",
"690 34 CURVE",
"445 666 LINE",
"437 688 OFFCURVE",
"428 700 OFFCURVE",
"407 700 CURVE"
);
},
{
closed = 1;
nodes = (
"242 261 LINE",
"352 546 LINE",
"462 261 LINE"
);
}
);
width = 704;
},
{
associatedMasterId = "7891CA1A-7632-4D56-9F64-CBE5433B6847";
layerId = "B59C78E1-B6F6-4A7C-9E53-DC2ADEC481BE";
width = 600;
},
{
hints = (
{
horizontal = 1;
place = "{9223372036854775808.000000, 0.000000}";
type = Tag;
name = hr01;
},
{
horizontal = 1;
place = "{9223372036854775808.000000, 0.000000}";
type = Tag;
name = hr02;
}
);
layerId = "A67CAC85-0E07-4E45-8FAE-4EA88B7D3365";
name = SemiBold;
paths = (
{
closed = 1;
nodes = (
"440 700 CURVE",
"278 700 LINE",
"251 700 OFFCURVE",
"238 682 OFFCURVE",
"233 667 CURVE",
"15 37 LINE",
"13 32 OFFCURVE",
"11 24 OFFCURVE",
"11 22 CURVE SMOOTH",
"11 10 OFFCURVE",
"21 0 OFFCURVE",
"33 0 CURVE",
"159 0 LINE",
"185 0 OFFCURVE",
"195 15 OFFCURVE",
"198 25 CURVE",
"226 108 LINE",
"492 108 LINE",
"520 25 LINE",
"520 23 LINE",
"509 0 OFFCURVE",
"504 -27 OFFCURVE",
"504 -56 CURVE SMOOTH",
"504 -151 OFFCURVE",
"565 -220 OFFCURVE",
"666 -220 CURVE",
"685 -220 LINE",
"698 -220 OFFCURVE",
"707 -211 OFFCURVE",
"707 -198 CURVE",
"707 -134 LINE",
"707 -121 OFFCURVE",
"698 -112 OFFCURVE",
"685 -112 CURVE",
"670 -112 LINE",
"636 -112 OFFCURVE",
"616 -87 OFFCURVE",
"616 -56 CURVE SMOOTH",
"616 -25 OFFCURVE",
"636 0 OFFCURVE",
"670 0 CURVE",
"685 0 LINE",
"697 0 OFFCURVE",
"707 10 OFFCURVE",
"707 22 CURVE SMOOTH",
"707 24 OFFCURVE",
"705 32 OFFCURVE",
"703 37 CURVE",
"485 667 LINE",
"480 682 OFFCURVE",
"467 700 OFFCURVE"
);
},
{
closed = 1;
nodes = (
"359 503 LINE",
"440 263 LINE",
"278 263 LINE"
);
}
);
width = 718;
},
{
associatedMasterId = "7891CA1A-7632-4D56-9F64-CBE5433B6847";
layerId = "EBCD298A-9C51-488A-B43D-5D3FB5B7406C";
width = 600;
},
{
guideLines = (
{
position = "{0, -220}";
}
);
hints = (
{
horizontal = 1;
place = "{9223372036854775808.000000, 0.000000}";
type = Tag;
name = hr01;
}
);
layerId = "23D188E6-7019-4CFD-8C83-9B160EBC8A6F";
name = Bold;
paths = (
{
closed = 1;
nodes = (
"269 700 LINE SMOOTH",
"242 700 OFFCURVE",
"228 682 OFFCURVE",
"224 667 CURVE",
"1 29 LINE SMOOTH",
"0 26 OFFCURVE",
"0 24 OFFCURVE",
"0 22 CURVE SMOOTH",
"0 10 OFFCURVE",
"10 0 OFFCURVE",
"22 0 CURVE SMOOTH",
"207 0 LINE SMOOTH",
"233 0 OFFCURVE",
"242 14 OFFCURVE",
"246 25 CURVE SMOOTH",
"270 91 LINE",
"485 91 LINE",
"509 25 LINE SMOOTH",
"512 15 OFFCURVE",
"519 3 OFFCURVE",
"537 0 CURVE",
"534 -15 OFFCURVE",
"532 -31 OFFCURVE",
"532 -49 CURVE SMOOTH",
"532 -144 OFFCURVE",
"583 -220 OFFCURVE",
"704 -220 CURVE SMOOTH",
"718 -220 LINE SMOOTH",
"733 -220 OFFCURVE",
"745 -208 OFFCURVE",
"745 -193 CURVE SMOOTH",
"745 -125 LINE SMOOTH",
"745 -110 OFFCURVE",
"733 -98 OFFCURVE",
"718 -98 CURVE SMOOTH",
"708 -98 LINE SMOOTH",
"669 -98 OFFCURVE",
"658 -70 OFFCURVE",
"658 -49 CURVE SMOOTH",
"658 -29 OFFCURVE",
"668 -2 OFFCURVE",
"702 0 CURVE",
"733 0 LINE SMOOTH",
"745 0 OFFCURVE",
"755 10 OFFCURVE",
"755 22 CURVE SMOOTH",
"755 24 OFFCURVE",
"755 26 OFFCURVE",
"754 29 CURVE SMOOTH",
"531 667 LINE",
"527 682 OFFCURVE",
"513 700 OFFCURVE",
"486 700 CURVE SMOOTH"
);
},
{
closed = 1;
nodes = (
"321 286 LINE",
"377 472 LINE",
"434 286 LINE"
);
}
);
width = 755;
},
{
hints = (
{
horizontal = 1;
place = "{9223372036854775808.000000, 0.000000}";
type = Tag;
name = hr01;
}
);
layerId = "3B5D4880-7EC1-45C7-ACF2-835190E6862B";
name = SemiLight;
paths = (
{
closed = 1;
nodes = (
"628 -220 LINE",
"641 -220 OFFCURVE",
"650 -211 OFFCURVE",
"650 -198 CURVE",
"650 -170 LINE",
"650 -157 OFFCURVE",
"641 -148 OFFCURVE",
"628 -148 CURVE",
"613 -148 LINE",
"569 -148 OFFCURVE",
"547 -125 OFFCURVE",
"547 -74 CURVE SMOOTH",
"547 -23 OFFCURVE",
"569 0 OFFCURVE",
"613 0 CURVE",
"641 0 LINE",
"653 0 OFFCURVE",
"663 10 OFFCURVE",
"663 22 CURVE SMOOTH",
"663 24 OFFCURVE",
"662 29 OFFCURVE",
"659 36 CURVE",
"415 667 LINE",
"409 682 OFFCURVE",
"397 700 OFFCURVE",
"370 700 CURVE",
"310 700 LINE",
"283 700 OFFCURVE",
"271 682 OFFCURVE",
"265 667 CURVE",
"20 36 LINE",
"17 29 OFFCURVE",
"16 24 OFFCURVE",
"16 22 CURVE SMOOTH",
"16 10 OFFCURVE",
"26 0 OFFCURVE",
"38 0 CURVE",
"75 0 LINE",
"101 0 OFFCURVE",
"110 14 OFFCURVE",
"114 25 CURVE",
"166 158 LINE",
"513 158 LINE",
"550 62 LINE",
"500 42 OFFCURVE",
"466 -3 OFFCURVE",
"466 -74 CURVE SMOOTH",
"466 -169 OFFCURVE",
"528 -220 OFFCURVE",
"609 -220 CURVE"
);
},
{
closed = 1;
nodes = (
"340 605 LINE",
"478 248 LINE",
"201 248 LINE"
);
}
);
width = 680;
}
);
leftKerningGroup = A;
rightKerningGroup = A;
unicode = 0104;
},
{
glyphname = AE;
lastChange = "2015-11-19 08:48:24 +0000";
layers = (
{
guideLines = (
{
position = "{0, 505}";
},
{
angle = 90;
position = "{431, 0}";
}
);
hints = (
{
horizontal = 1;
origin = "{0, 0}";
type = Tag;
name = hr00;
}
);
layerId = "7891CA1A-7632-4D56-9F64-CBE5433B6847";
name = Light;
paths = (
{
closed = 1;
nodes = (
"5 20 CURVE SMOOTH",
"5 9 OFFCURVE",
"14 0 OFFCURVE",
"25 0 CURVE SMOOTH",
"48 0 LINE SMOOTH",
"57 0 OFFCURVE",
"65 6 OFFCURVE",
"70 15 CURVE",
"70 15 OFFCURVE",
"71 17 OFFCURVE",
"160 175 CURVE",
"422 175 LINE",
"422 22 LINE SMOOTH",
"422 9 OFFCURVE",
"431 0 OFFCURVE",
"444 0 CURVE SMOOTH",
"842 0 LINE SMOOTH",
"856 0 OFFCURVE",
"865 9 OFFCURVE",
"865 22 CURVE SMOOTH",
"865 37 LINE SMOOTH",
"865 51 OFFCURVE",
"856 60 OFFCURVE",
"842 60 CURVE SMOOTH",
"485 60 LINE",
"485 325 LINE",
"812 325 LINE SMOOTH",
"826 325 OFFCURVE",
"835 334 OFFCURVE",
"835 347 CURVE SMOOTH",
"835 362 LINE SMOOTH",
"835 376 OFFCURVE",
"826 385 OFFCURVE",
"812 385 CURVE SMOOTH",
"485 385 LINE",
"485 640 LINE",
"834 640 LINE SMOOTH",
"848 640 OFFCURVE",
"857 649 OFFCURVE",
"857 662 CURVE SMOOTH",
"857 677 LINE SMOOTH",
"857 691 OFFCURVE",
"848 700 OFFCURVE",
"834 700 CURVE SMOOTH",
"401 700 LINE SMOOTH",
"392 700 OFFCURVE",
"383 696 OFFCURVE",
"375 681 CURVE SMOOTH",
"17 49 OFFCURVE",
"9 34 OFFCURVE",
"9 34 CURVE",
"7 30 OFFCURVE",
"5 25 OFFCURVE"
);
},
{
closed = 1;
nodes = (
"422 235 LINE",
"194 235 LINE",
"422 633 LINE"
);
}
);
width = 920;
},
{
associatedMasterId = "7891CA1A-7632-4D56-9F64-CBE5433B6847";
layerId = "2C2961A1-FB91-4944-9F77-3476E1CA3B43";
width = 600;
},
{
guideLines = (
{
position = "{0, 505}";
},
{
position = "{0, 575}";
}
);
hints = (
{
horizontal = 1;
place = "{9223372036854775808.000000, 0.000000}";
type = Tag;
name = hr00;
}
);
layerId = "794B2617-B5E8-46A3-BB57-9FF4B4129D38";
name = Regular;
paths = (
{
closed = 1;
nodes = (
"606 125 LINE",
"606 291 LINE",
"907 291 LINE",
"922 291 OFFCURVE",
"934 303 OFFCURVE",
"934 318 CURVE",
"934 389 LINE",
"934 404 OFFCURVE",
"922 416 OFFCURVE",
"907 416 CURVE",
"606 416 LINE",
"606 575 LINE",
"929 575 LINE",
"944 575 OFFCURVE",
"956 587 OFFCURVE",
"956 602 CURVE",
"956 673 LINE",
"956 688 OFFCURVE",
"944 700 OFFCURVE",
"929 700 CURVE",
"418 700 LINE",
"391 700 OFFCURVE",
"381 681 OFFCURVE",
"373 667 CURVE",
"4 39 LINE",
"1 34 OFFCURVE",
"0 31 OFFCURVE",
"0 27 CURVE SMOOTH",
"0 12 OFFCURVE",
"12 0 OFFCURVE",
"27 0 CURVE",
"106 0 LINE",
"128 0 OFFCURVE",
"139 15 OFFCURVE",
"145 25 CURVE",
"210 136 LINE",
"471 136 LINE",
"471 27 LINE",
"471 12 OFFCURVE",
"483 0 OFFCURVE",
"498 0 CURVE",
"937 0 LINE",
"952 0 OFFCURVE",
"964 12 OFFCURVE",
"964 27 CURVE",
"964 98 LINE",
"964 113 OFFCURVE",
"952 125 OFFCURVE",
"937 125 CURVE"
);
},
{
closed = 1;
nodes = (
"284 261 LINE",
"471 576 LINE",
"471 261 LINE"
);
}
);
width = 1010;
},
{
associatedMasterId = "7891CA1A-7632-4D56-9F64-CBE5433B6847";
layerId = "B59C78E1-B6F6-4A7C-9E53-DC2ADEC481BE";
width = 600;
},
{
guideLines = (
{
position = "{0, 540}";
}
);
hints = (
{
horizontal = 1;
place = "{9223372036854775808.000000, 0.000000}";
type = Tag;
name = hr01;
},
{
horizontal = 1;
place = "{9223372036854775808.000000, 0.000000}";
type = Tag;
name = hr02;
},
{
horizontal = 1;
place = "{9223372036854775808.000000, 0.000000}";
type = Tag;
name = hr03;
}
);
layerId = "A67CAC85-0E07-4E45-8FAE-4EA88B7D3365";
name = SemiBold;
paths = (
{
closed = 1;
nodes = (
"331 700 LINE SMOOTH",
"304 700 OFFCURVE",
"294 681 OFFCURVE",
"286 667 CURVE",
"5 39 LINE",
"2 34 OFFCURVE",
"1 31 OFFCURVE",
"1 27 CURVE SMOOTH",
"1 12 OFFCURVE",
"13 0 OFFCURVE",
"28 0 CURVE SMOOTH",
"156 0 LINE SMOOTH",
"178 0 OFFCURVE",
"189 15 OFFCURVE",
"195 25 CURVE",
"232 108 LINE",
"441 108 LINE",
"441 27 LINE SMOOTH",
"441 12 OFFCURVE",
"453 0 OFFCURVE",
"468 0 CURVE SMOOTH",
"942 0 LINE SMOOTH",
"957 0 OFFCURVE",
"969 12 OFFCURVE",
"969 27 CURVE SMOOTH",
"969 133 LINE SMOOTH",
"969 148 OFFCURVE",
"957 160 OFFCURVE",
"942 160 CURVE SMOOTH",
"626 160 LINE",
"626 272 LINE",
"912 272 LINE SMOOTH",
"927 272 OFFCURVE",
"939 284 OFFCURVE",
"939 299 CURVE SMOOTH",
"939 405 LINE SMOOTH",
"939 420 OFFCURVE",
"927 432 OFFCURVE",
"912 432 CURVE SMOOTH",
"626 432 LINE",
"626 540 LINE",
"934 540 LINE SMOOTH",
"949 540 OFFCURVE",
"961 552 OFFCURVE",
"961 567 CURVE SMOOTH",
"961 673 LINE SMOOTH",
"961 688 OFFCURVE",
"949 700 OFFCURVE",
"934 700 CURVE SMOOTH"
);
},
{
closed = 1;
nodes = (
"424 540 LINE",
"441 540 LINE",
"441 263 LINE",
"301 263 LINE"
);
}
);
width = 1014;
},
{
associatedMasterId = "7891CA1A-7632-4D56-9F64-CBE5433B6847";
layerId = "EBCD298A-9C51-488A-B43D-5D3FB5B7406C";
width = 600;
},
{
guideLines = (
{
position = "{0, 505}";
}
);
hints = (
{
horizontal = 1;
place = "{9223372036854775808.000000, 0.000000}";
type = Tag;
name = hr01;
},
{
horizontal = 1;
place = "{9223372036854775808.000000, 0.000000}";
type = Tag;
name = hr02;
},
{
horizontal = 1;
place = "{9223372036854775808.000000, 0.000000}";
type = Tag;
name = hr03;
}
);
layerId = "23D188E6-7019-4CFD-8C83-9B160EBC8A6F";
name = Bold;
paths = (
{
closed = 1;
nodes = (
"273 700 LINE SMOOTH",
"246 700 OFFCURVE",
"232 682 OFFCURVE",
"228 667 CURVE",
"5 29 LINE SMOOTH",
"4 26 OFFCURVE",
"4 24 OFFCURVE",
"4 22 CURVE SMOOTH",
"4 10 OFFCURVE",
"14 0 OFFCURVE",
"26 0 CURVE SMOOTH",
"211 0 LINE SMOOTH",
"237 0 OFFCURVE",
"246 14 OFFCURVE",
"250 25 CURVE SMOOTH",
"274 91 LINE",
"423 91 LINE",
"423 27 LINE SMOOTH",
"423 12 OFFCURVE",
"435 0 OFFCURVE",
"450 0 CURVE SMOOTH",
"941 0 LINE SMOOTH",
"956 0 OFFCURVE",
"968 12 OFFCURVE",
"968 27 CURVE SMOOTH",
"968 168 LINE SMOOTH",
"968 183 OFFCURVE",
"956 195 OFFCURVE",
"941 195 CURVE SMOOTH",
"663 195 LINE",
"663 258 LINE",
"911 258 LINE SMOOTH",
"926 258 OFFCURVE",
"938 270 OFFCURVE",
"938 285 CURVE SMOOTH",
"938 415 LINE SMOOTH",
"938 430 OFFCURVE",
"926 442 OFFCURVE",
"911 442 CURVE SMOOTH",
"663 442 LINE",
"663 505 LINE",
"933 505 LINE SMOOTH",
"948 505 OFFCURVE",
"960 517 OFFCURVE",
"960 532 CURVE SMOOTH",
"960 673 LINE SMOOTH",
"960 688 OFFCURVE",
"948 700 OFFCURVE",
"933 700 CURVE SMOOTH"
);
},
{
closed = 1;
nodes = (
"325 286 LINE",
"391 505 LINE",
"423 505 LINE",
"423 286 LINE"
);
}
);
width = 1005;
},
{
guideLines = (
{
position = "{0, 505}";
},
{
position = "{0, 610}";
}
);
hints = (
{
horizontal = 1;
place = "{9223372036854775808.000000, 0.000000}";
type = Tag;
name = hr00;
}
);
layerId = "3B5D4880-7EC1-45C7-ACF2-835190E6862B";
name = SemiLight;
paths = (
{
closed = 1;
nodes = (
"548 90 LINE",
"548 309 LINE",
"854 309 LINE",
"869 309 OFFCURVE",
"881 321 OFFCURVE",
"881 336 CURVE",
"881 372 LINE",
"881 387 OFFCURVE",
"869 399 OFFCURVE",
"854 399 CURVE",
"548 399 LINE",
"548 610 LINE",
"876 610 LINE",
"891 610 OFFCURVE",
"903 622 OFFCURVE",
"903 637 CURVE",
"903 673 LINE",
"903 688 OFFCURVE",
"891 700 OFFCURVE",
"876 700 CURVE",
"424 700 LINE",
"397 700 OFFCURVE",
"387 681 OFFCURVE",
"379 667 CURVE",
"5 34 LINE",
"2 29 OFFCURVE",
"1 24 OFFCURVE",
"1 22 CURVE SMOOTH",
"1 10 OFFCURVE",
"11 0 OFFCURVE",
"23 0 CURVE",
"68 0 LINE",
"90 0 OFFCURVE",
"101 15 OFFCURVE",
"107 25 CURVE",
"185 158 LINE",
"453 158 LINE",
"453 27 LINE",
"453 12 OFFCURVE",
"465 0 OFFCURVE",
"480 0 CURVE",
"884 0 LINE",
"899 0 OFFCURVE",
"911 12 OFFCURVE",
"911 27 CURVE",
"911 63 LINE",
"911 78 OFFCURVE",
"899 90 OFFCURVE",
"884 90 CURVE"
);
},
{
closed = 1;
nodes = (
"239 248 LINE",
"453 610 LINE",
"453 248 LINE"
);
}
);
width = 959;
}
);
leftKerningGroup = AE;
rightKerningGroup = E;
unicode = 00C6;
userData = {
com.typemytype.robofont.guides = (
{
angle = 0;
isGlobal = 0;
x = 0;
y = 505;
},
{
angle = 90;
isGlobal = 0;
x = 431;
y = 0;
}
);
};
},
{
glyphname = B;
lastChange = "2015-11-19 08:48:24 +0000";
layers = (
{
guideLines = (
{
position = "{0, 271}";
},
{
position = "{0, 437}";
},
{
position = "{0, 521}";
},
{
position = "{0, 198}";
},
{
position = "{0, 9}";
},
{
angle = 90;
position = "{355, 0}";
},
{
angle = 90;
position = "{583, 0}";
},
{
angle = 90;
position = "{94, 0}";
}
);
hints = (
{
horizontal = 1;
origin = "{0, 9}";
type = Tag;
name = hr01;
},
{
horizontal = 1;
origin = "{2, 3}";
type = Tag;
name = hr02;
}
);
layerId = "7891CA1A-7632-4D56-9F64-CBE5433B6847";
name = Light;
paths = (
{
closed = 1;
nodes = (
"384 0 LINE",
"520 0 OFFCURVE",
"592 97 OFFCURVE",
"592 198 CURVE SMOOTH",
"592 282 OFFCURVE",
"543 342 OFFCURVE",
"490 369 CURVE",
"530 388 OFFCURVE",
"578 435 OFFCURVE",
"578 521 CURVE SMOOTH",
"578 616 OFFCURVE",
"517 700 OFFCURVE",
"377 700 CURVE SMOOTH",
"116 700 LINE SMOOTH",
"103 700 OFFCURVE",
"94 691 OFFCURVE",
"94 677 CURVE SMOOTH",
"94 22 LINE SMOOTH",
"94 9 OFFCURVE",
"103 0 OFFCURVE",
"116 0 CURVE SMOOTH"
);
},
{
closed = 1;
nodes = (
"364 640 LINE",
"463 640 OFFCURVE",
"515 600 OFFCURVE",
"515 521 CURVE SMOOTH",
"515 442 OFFCURVE",
"463 396 OFFCURVE",
"364 396 CURVE SMOOTH",
"157 396 LINE",
"157 640 LINE"
);
},
{
closed = 1;
nodes = (
"374 336 LINE",
"473 336 OFFCURVE",
"529 279 OFFCURVE",
"529 198 CURVE SMOOTH",
"529 118 OFFCURVE",
"473 60 OFFCURVE",
"374 60 CURVE SMOOTH",
"157 60 LINE",
"157 336 LINE"
);
}
);
width = 653;
},
{
associatedMasterId = "7891CA1A-7632-4D56-9F64-CBE5433B6847";
layerId = "2C2961A1-FB91-4944-9F77-3476E1CA3B43";
width = 600;
},
{
guideLines = (
{
position = "{0, 498}";
},
{
position = "{0, 210}";
},
{
angle = 90;
position = "{371, 0}";
},
{
angle = 90;
position = "{636, 0}";
}
);
hints = (
{
horizontal = 1;
place = "{9223372036854775808.000000, 0.000000}";
type = Tag;
name = hr01;
},
{
horizontal = 1;
place = "{9223372036854775808.000000, 0.000000}";
type = Tag;
name = hr02;
}
);
layerId = "794B2617-B5E8-46A3-BB57-9FF4B4129D38";
name = Regular;
paths = (
{
closed = 1;
nodes = (
"423 0 LINE SMOOTH",
"564 0 OFFCURVE",
"639 110 OFFCURVE",
"639 210 CURVE SMOOTH",
"639 289 OFFCURVE",
"597 339 OFFCURVE",
"556 367 CURVE",
"575 379 OFFCURVE",
"625 423 OFFCURVE",
"625 503 CURVE SMOOTH",
"625 583 OFFCURVE",
"570 700 OFFCURVE",
"400 700 CURVE SMOOTH",
"105 700 LINE SMOOTH",
"90 700 OFFCURVE",
"78 688 OFFCURVE",
"78 673 CURVE SMOOTH",
"78 27 LINE SMOOTH",
"78 12 OFFCURVE",
"90 0 OFFCURVE",
"105 0 CURVE SMOOTH"
);
},
{
closed = 1;
nodes = (
"490 498 CURVE SMOOTH",
"490 447 OFFCURVE",
"459 421 OFFCURVE",
"390 421 CURVE SMOOTH",
"213 421 LINE",
"213 575 LINE",
"390 575 LINE SMOOTH",
"459 575 OFFCURVE",
"490 549 OFFCURVE"
);
},
{
closed = 1;
nodes = (
"213 296 LINE",
"398 296 LINE SMOOTH",
"468 296 OFFCURVE",
"504 260 OFFCURVE",
"504 210 CURVE SMOOTH",
"504 160 OFFCURVE",
"471 125 OFFCURVE",
"398 125 CURVE SMOOTH",
"213 125 LINE"
);
}
);
width = 686;
},
{
associatedMasterId = "7891CA1A-7632-4D56-9F64-CBE5433B6847";
layerId = "B59C78E1-B6F6-4A7C-9E53-DC2ADEC481BE";
width = 600;
},
{
guideLines = (
{
position = "{0, 487}";
},
{
angle = 90;
position = "{409, 0}";
},
{
angle = 90;
position = "{671, 0}";
}
);
hints = (
{
horizontal = 1;
place = "{9223372036854775808.000000, 0.000000}";
type = Tag;
name = hr01;
},
{
horizontal = 1;
place = "{9223372036854775808.000000, 0.000000}";
type = Tag;
name = hr02;
}
);
layerId = "A67CAC85-0E07-4E45-8FAE-4EA88B7D3365";
name = SemiBold;
paths = (
{
closed = 1;
nodes = (
"440 0 LINE SMOOTH",
"611 0 OFFCURVE",
"671 107 OFFCURVE",
"671 217 CURVE SMOOTH",
"671 283 OFFCURVE",
"653 329 OFFCURVE",
"601 365 CURVE",
"618 378 OFFCURVE",
"657 415 OFFCURVE",
"657 492 CURVE SMOOTH",
"657 592 OFFCURVE",
"599 700 OFFCURVE",
"419 700 CURVE SMOOTH",
"97 700 LINE SMOOTH",
"82 700 OFFCURVE",
"70 688 OFFCURVE",
"70 673 CURVE SMOOTH",
"70 27 LINE SMOOTH",
"70 12 OFFCURVE",
"82 0 OFFCURVE",
"97 0 CURVE SMOOTH"
);
},
{
closed = 1;
nodes = (
"471 488 CURVE SMOOTH",
"471 453 OFFCURVE",
"450 431 OFFCURVE",
"410 431 CURVE SMOOTH",
"255 431 LINE",
"255 545 LINE",
"410 545 LINE SMOOTH",
"450 545 OFFCURVE",
"471 523 OFFCURVE"
);
},
{
closed = 1;
nodes = (
"255 277 LINE",
"420 277 LINE SMOOTH",
"460 277 OFFCURVE",
"486 251 OFFCURVE",
"486 216 CURVE SMOOTH",
"486 181 OFFCURVE",
"460 155 OFFCURVE",
"420 155 CURVE SMOOTH",
"255 155 LINE"
);
}
);
width = 712;
},
{
associatedMasterId = "7891CA1A-7632-4D56-9F64-CBE5433B6847";
layerId = "EBCD298A-9C51-488A-B43D-5D3FB5B7406C";
width = 600;
},
{
guideLines = (
{
position = "{0, 221}";
},
{
position = "{0, 482}";
},
{
angle = 90;
position = "{399, 0}";
},
{
angle = 90;
position = "{716, 0}";
}
);
hints = (
{
horizontal = 1;
place = "{9223372036854775808.000000, 0.000000}";
type = Tag;
name = hr00;
}
);
layerId = "23D188E6-7019-4CFD-8C83-9B160EBC8A6F";
name = Bold;
paths = (
{
closed = 1;
nodes = (
"430 482 CURVE SMOOTH",
"430 461 OFFCURVE",
"418 437 OFFCURVE",
"389 437 CURVE SMOOTH",
"305 437 LINE",
"305 528 LINE",
"389 528 LINE SMOOTH",
"418 528 OFFCURVE",
"430 503 OFFCURVE"
);
},
{
closed = 1;
nodes = (
"305 270 LINE",
"398 270 LINE SMOOTH",
"428 270 OFFCURVE",
"444 245 OFFCURVE",
"444 221 CURVE SMOOTH",
"444 199 OFFCURVE",
"431 172 OFFCURVE",
"398 172 CURVE SMOOTH",
"305 172 LINE"
);
},
{
closed = 1;
nodes = (
"424 0 LINE SMOOTH",
"605 0 OFFCURVE",
"706 70 OFFCURVE",
"706 220 CURVE SMOOTH",
"706 286 OFFCURVE",
"662 344 OFFCURVE",
"611 365 CURVE",
"643 381 OFFCURVE",
"691 426 OFFCURVE",
"691 490 CURVE SMOOTH",
"691 630 OFFCURVE",
"605 700 OFFCURVE",
"414 700 CURVE SMOOTH",
"82 700 LINE SMOOTH",
"67 700 OFFCURVE",
"55 688 OFFCURVE",
"55 673 CURVE SMOOTH",
"55 27 LINE SMOOTH",
"55 12 OFFCURVE",
"67 0 OFFCURVE",
"82 0 CURVE SMOOTH"
);
}
);
width = 734;
},
{
guideLines = (
{
position = "{0, 437}";
},
{
position = "{0, 270}";
},
{
position = "{0, 352}";
},
{
position = "{0, 203}";
},
{
position = "{0, 509}";
},
{
angle = 90;
position = "{365, 0}";
},
{
angle = 90;
position = "{523, 0}";
}
);
hints = (
{
horizontal = 1;
place = "{9223372036854775808.000000, 0.000000}";
type = Tag;
name = hr01;
},
{
horizontal = 1;
place = "{9223372036854775808.000000, 0.000000}";
type = Tag;
name = hr02;
},
{
horizontal = 1;
place = "{9223372036854775808.000000, 0.000000}";
type = Tag;
name = hr03;
}
);
layerId = "3B5D4880-7EC1-45C7-ACF2-835190E6862B";
name = SemiLight;
paths = (
{
closed = 1;
nodes = (
"385 318 LINE SMOOTH",
"479 318 OFFCURVE",
"520 263 OFFCURVE",
"520 203 CURVE SMOOTH",
"520 143 OFFCURVE",
"474 90 OFFCURVE",
"385 90 CURVE SMOOTH",
"181 90 LINE",
"181 318 LINE"
);
},
{
closed = 1;
nodes = (
"371 610 LINE SMOOTH",
"460 610 OFFCURVE",
"505 574 OFFCURVE",
"505 509 CURVE SMOOTH",
"505 444 OFFCURVE",
"460 408 OFFCURVE",
"371 408 CURVE SMOOTH",
"181 408 LINE",
"181 610 LINE"
);
},
{
closed = 1;
nodes = (
"113 0 CURVE",
"395 0 LINE SMOOTH",
"540 0 OFFCURVE",
"615 103 OFFCURVE",
"615 203 CURVE SMOOTH",
"615 278 OFFCURVE",
"571 337 OFFCURVE",
"520 371 CURVE",
"537 381 OFFCURVE",
"600 424 OFFCURVE",
"600 512 CURVE SMOOTH",
"600 582 OFFCURVE",
"551 700 OFFCURVE",
"381 700 CURVE SMOOTH",
"113 700 LINE SMOOTH",
"98 700 OFFCURVE",
"86 688 OFFCURVE",
"86 673 CURVE SMOOTH",
"86 27 LINE SMOOTH",
"86 12 OFFCURVE",
"98 0 OFFCURVE"
);
}
);
width = 667;
}
);
leftKerningGroup = I;
unicode = 0042;
userData = {
com.typemytype.robofont.guides = (
{
angle = 0;
isGlobal = 0;
x = 0;
y = 271;
},
{
angle = 0;
isGlobal = 0;
x = 0;
y = 437;
},
{
angle = 0;
isGlobal = 0;
x = 0;
y = 521;
},
{
angle = 0;
isGlobal = 0;
x = 0;
y = 198;
},
{
angle = 0;
isGlobal = 0;
x = 0;
y = 9;
},
{
angle = 90;
isGlobal = 0;
x = 355;
y = 0;
},
{
angle = 90;
isGlobal = 0;
x = 583;
y = 0;
},
{
angle = 90;
isGlobal = 0;
x = 94;
y = 0;
}
);
};
},
{
glyphname = C;
lastChange = "2015-11-19 08:48:24 +0000";
layers = (
{
guideLines = (
{
position = "{0, 434}";
},
{
position = "{0, 266}";
},
{
position = "{0, 710}";
},
{
position = "{0, -10}";
},
{
angle = 90;
position = "{599, 0}";
},
{
angle = 90;
position = "{209, 0}";
},
{
angle = 90;
position = "{149, 0}";
},
{
angle = 90;
position = "{332, 0}";
}
);
hints = (
{
horizontal = 1;
origin = "{0, 0}";
type = Tag;
name = hr00;
}
);
layerId = "7891CA1A-7632-4D56-9F64-CBE5433B6847";
name = Light;
paths = (
{
closed = 1;
nodes = (
"129 434 CURVE SMOOTH",
"134 585 OFFCURVE",
"209 650 OFFCURVE",
"331 650 CURVE SMOOTH",
"438 650 OFFCURVE",
"509 614 OFFCURVE",
"535 495 CURVE SMOOTH",
"538 479 OFFCURVE",
"546 474 OFFCURVE",
"557 474 CURVE SMOOTH",
"577 474 LINE SMOOTH",
"589 474 OFFCURVE",
"599 482 OFFCURVE",
"598 494 CURVE SMOOTH",
"593 589 OFFCURVE",
"521 710 OFFCURVE",
"331 710 CURVE SMOOTH",
"149 710 OFFCURVE",
"72 595 OFFCURVE",
"66 439 CURVE SMOOTH",
"64 382 OFFCURVE",
"64 315 OFFCURVE",
"66 261 CURVE SMOOTH",
"72 105 OFFCURVE",
"149 -10 OFFCURVE",
"331 -10 CURVE SMOOTH",
"521 -10 OFFCURVE",
"593 111 OFFCURVE",
"598 206 CURVE SMOOTH",
"599 218 OFFCURVE",
"589 226 OFFCURVE",
"577 226 CURVE SMOOTH",
"557 226 LINE SMOOTH",
"546 226 OFFCURVE",
"538 221 OFFCURVE",
"535 205 CURVE SMOOTH",
"509 86 OFFCURVE",
"438 50 OFFCURVE",
"331 50 CURVE SMOOTH",
"209 50 OFFCURVE",
"134 115 OFFCURVE",
"129 266 CURVE SMOOTH",
"127 323 OFFCURVE",
"127 379 OFFCURVE"
);
}
);
width = 651;
},
{
associatedMasterId = "7891CA1A-7632-4D56-9F64-CBE5433B6847";
layerId = "2C2961A1-FB91-4944-9F77-3476E1CA3B43";
width = 600;
},
{
guideLines = (
{
position = "{0, 955}";
},
{
position = "{0, 434}";
},
{
position = "{0, 266}";
},
{
angle = 90;
position = "{515, 0}";
},
{
angle = 90;
position = "{352, 0}";
}
);
hints = (
{
horizontal = 1;
place = "{9223372036854775808.000000, 0.000000}";
type = Tag;
name = hr00;
}
);
layerId = "794B2617-B5E8-46A3-BB57-9FF4B4129D38";
name = Regular;
paths = (
{
closed = 1;
nodes = (
"508 222 CURVE SMOOTH",
"499 169 OFFCURVE",
"452 115 OFFCURVE",
"347 115 CURVE SMOOTH",
"243 115 OFFCURVE",
"193 182 OFFCURVE",
"188 266 CURVE SMOOTH",
"185 316 OFFCURVE",
"185 384 OFFCURVE",
"188 434 CURVE SMOOTH",
"193 518 OFFCURVE",
"243 585 OFFCURVE",
"347 585 CURVE SMOOTH",
"452 585 OFFCURVE",
"498 531 OFFCURVE",
"507 478 CURVE SMOOTH",
"510 461 OFFCURVE",
"524 452 OFFCURVE",
"537 452 CURVE SMOOTH",
"618 452 LINE SMOOTH",
"633 452 OFFCURVE",
"646 463 OFFCURVE",
"645 479 CURVE SMOOTH",
"638 587 OFFCURVE",
"554 710 OFFCURVE",
"347 710 CURVE SMOOTH",
"163 710 OFFCURVE",
"63 595 OFFCURVE",
"53 434 CURVE SMOOTH",
"50 384 OFFCURVE",
"50 316 OFFCURVE",
"53 266 CURVE SMOOTH",
"63 105 OFFCURVE",
"163 -10 OFFCURVE",
"347 -10 CURVE SMOOTH",
"554 -10 OFFCURVE",
"638 113 OFFCURVE",
"645 221 CURVE SMOOTH",
"646 237 OFFCURVE",
"633 248 OFFCURVE",
"618 248 CURVE SMOOTH",
"537 248 LINE SMOOTH",
"524 248 OFFCURVE",
"511 239 OFFCURVE"
);
}
);
width = 684;
},
{
associatedMasterId = "7891CA1A-7632-4D56-9F64-CBE5433B6847";
layerId = "B59C78E1-B6F6-4A7C-9E53-DC2ADEC481BE";
width = 600;
},
{
guideLines = (
{
position = "{0, 434}";
},
{
position = "{0, 266}";
},
{
position = "{0, 710}";
},
{
position = "{0, -10}";
},
{
angle = 90;
position = "{363, 0}";
}
);
hints = (
{
horizontal = 1;
place = "{9223372036854775808.000000, 0.000000}";
type = Tag;
name = hr00;
}
);
layerId = "A67CAC85-0E07-4E45-8FAE-4EA88B7D3365";
name = SemiBold;
paths = (
{
closed = 1;
nodes = (
"231 434 CURVE SMOOTH",
"236 495 OFFCURVE",
"267 550 OFFCURVE",
"357 550 CURVE SMOOTH",
"447 550 OFFCURVE",
"471 503 OFFCURVE",
"482 471 CURVE SMOOTH",
"489 450 OFFCURVE",
"494 442 OFFCURVE",
"516 442 CURVE SMOOTH",
"647 442 LINE SMOOTH",
"659 442 OFFCURVE",
"669 452 OFFCURVE",
"669 464 CURVE SMOOTH",
"666 600 OFFCURVE",
"533 710 OFFCURVE",
"357 710 CURVE SMOOTH",
"165 710 OFFCURVE",
"52 586 OFFCURVE",
"46 439 CURVE SMOOTH",
"44 382 OFFCURVE",
"43 315 OFFCURVE",
"46 261 CURVE SMOOTH",
"53 114 OFFCURVE",
"165 -10 OFFCURVE",
"357 -10 CURVE SMOOTH",
"533 -10 OFFCURVE",
"666 100 OFFCURVE",
"669 236 CURVE SMOOTH",
"669 248 OFFCURVE",
"659 258 OFFCURVE",
"647 258 CURVE SMOOTH",
"516 258 LINE SMOOTH",
"494 258 OFFCURVE",
"489 250 OFFCURVE",
"482 229 CURVE SMOOTH",
"471 197 OFFCURVE",
"447 150 OFFCURVE",
"357 150 CURVE SMOOTH",
"267 150 OFFCURVE",
"236 205 OFFCURVE",
"231 266 CURVE SMOOTH",
"228 302 OFFCURVE",
"228 399 OFFCURVE"
);
}
);
width = 702;
},
{
associatedMasterId = "7891CA1A-7632-4D56-9F64-CBE5433B6847";
layerId = "EBCD298A-9C51-488A-B43D-5D3FB5B7406C";
width = 600;
},
{
guideLines = (
{
position = "{0, 434}";
},
{
position = "{0, 266}";
},
{
position = "{0, 710}";
},
{
position = "{0, -10}";
},
{
angle = 90;
position = "{383, 0}";
}
);
hints = (
{
horizontal = 1;
place = "{9223372036854775808.000000, 0.000000}";
type = Tag;
name = hr00;
}
);
layerId = "23D188E6-7019-4CFD-8C83-9B160EBC8A6F";
name = Bold;
paths = (
{
closed = 1;
nodes = (
"297 434 CURVE",
"299 495 OFFCURVE",
"327 515 OFFCURVE",
"371 515 CURVE SMOOTH",
"405 515 OFFCURVE",
"431 504 OFFCURVE",
"446 461 CURVE SMOOTH",
"454 439 OFFCURVE",
"461 432 OFFCURVE",
"483 432 CURVE",
"687 432 LINE",
"699 432 OFFCURVE",
"709 442 OFFCURVE",
"709 454 CURVE SMOOTH",
"706 636 OFFCURVE",
"542 710 OFFCURVE",
"372 710 CURVE SMOOTH",
"185 710 OFFCURVE",
"45 625 OFFCURVE",
"37 439 CURVE",
"35 382 OFFCURVE",
"35 315 OFFCURVE",
"37 261 CURVE",
"45 70 OFFCURVE",
"180 -10 OFFCURVE",
"372 -10 CURVE SMOOTH",
"542 -10 OFFCURVE",
"706 64 OFFCURVE",
"709 246 CURVE SMOOTH",
"709 258 OFFCURVE",
"699 268 OFFCURVE",
"687 268 CURVE",
"483 268 LINE",
"461 268 OFFCURVE",
"453 262 OFFCURVE",
"446 239 CURVE SMOOTH",
"433 199 OFFCURVE",
"405 185 OFFCURVE",
"371 185 CURVE SMOOTH",
"327 185 OFFCURVE",
"299 205 OFFCURVE",
"297 266 CURVE SMOOTH",
"295 323 OFFCURVE",
"295 379 OFFCURVE"
);
}
);
width = 733;
},
{
guideLines = (
{
position = "{0, 434}";
},
{
position = "{0, 266}";
},
{
position = "{0, 710}";
},
{
position = "{0, -10}";
},
{
angle = 90;
position = "{624, 0}";
},
{
angle = 90;
position = "{344, 0}";
}
);
hints = (
{
horizontal = 1;
place = "{9223372036854775808.000000, 0.000000}";
type = Tag;
name = hr01;
},
{
horizontal = 1;
place = "{9223372036854775808.000000, 0.000000}";
type = Tag;
name = hr02;
}
);
layerId = "3B5D4880-7EC1-45C7-ACF2-835190E6862B";
name = SemiLight;
paths = (
{
closed = 1;
nodes = (
"155 434 CURVE SMOOTH",
"159 545 OFFCURVE",
"223 620 OFFCURVE",
"342 620 CURVE SMOOTH",
"471 620 OFFCURVE",
"512 551 OFFCURVE",
"528 484 CURVE SMOOTH",
"531 470 OFFCURVE",
"543 462 OFFCURVE",
"554 462 CURVE SMOOTH",
"600 462 LINE SMOOTH",
"612 462 OFFCURVE",
"622 472 OFFCURVE",
"622 484 CURVE SMOOTH",
"619 571 OFFCURVE",
"542 710 OFFCURVE",
"342 710 CURVE SMOOTH",
"170 710 OFFCURVE",
"65 595 OFFCURVE",
"60 439 CURVE SMOOTH",
"58 379 OFFCURVE",
"58 321 OFFCURVE",
"60 261 CURVE SMOOTH",
"65 105 OFFCURVE",
"170 -10 OFFCURVE",
"342 -10 CURVE SMOOTH",
"542 -10 OFFCURVE",
"619 129 OFFCURVE",
"622 216 CURVE SMOOTH",
"622 228 OFFCURVE",
"612 238 OFFCURVE",
"600 238 CURVE SMOOTH",
"554 238 LINE SMOOTH",
"543 238 OFFCURVE",
"531 230 OFFCURVE",
"528 216 CURVE SMOOTH",
"512 149 OFFCURVE",
"471 80 OFFCURVE",
"342 80 CURVE SMOOTH",
"223 80 OFFCURVE",
"159 155 OFFCURVE",
"155 266 CURVE SMOOTH",
"153 325 OFFCURVE",
"153 374 OFFCURVE"
);
}
);
width = 667;
}
);
leftKerningGroup = O;
rightKerningGroup = C;
unicode = 0043;
userData = {
com.typemytype.robofont.guides = (
{
angle = 0;
isGlobal = 0;
x = 0;
y = 434;
},
{
angle = 0;
isGlobal = 0;
x = 0;
y = 266;
},
{
angle = 0;
isGlobal = 0;
x = 0;
y = 710;
},
{
angle = 0;
isGlobal = 0;
x = 0;
y = -10;
},
{
angle = 90;
isGlobal = 0;
x = 599;
y = 0;
},
{
angle = 90;
isGlobal = 0;
x = 209;
y = 0;
},
{
angle = 90;
isGlobal = 0;
x = 149;
y = 0;
},
{
angle = 90;
isGlobal = 0;
x = 332;
y = 0;
}
);
};
},
{
glyphname = Ccedilla;
lastChange = "2015-11-19 08:48:24 +0000";
layers = (
{
guideLines = (
{
position = "{0, -174}";
},
{
position = "{0, -220}";
},
{
position = "{0, -96}";
},
{
position = "{0, -50}";
},
{
position = "{0, -135}";
},
{
angle = 90;
position = "{331, 0}";
},
{
angle = 90;
position = "{342, 0}";
}
);
hints = (
{
horizontal = 1;
origin = "{0, 0}";
type = Tag;
name = hr00;
}
);
layerId = "7891CA1A-7632-4D56-9F64-CBE5433B6847";
name = Light;
paths = (
{
closed = 1;
nodes = (
"129 434 CURVE SMOOTH",
"134 585 OFFCURVE",
"209 650 OFFCURVE",
"331 650 CURVE SMOOTH",
"438 650 OFFCURVE",
"509 614 OFFCURVE",
"535 495 CURVE SMOOTH",
"538 479 OFFCURVE",
"546 474 OFFCURVE",
"557 474 CURVE",
"577 474 LINE",
"589 474 OFFCURVE",
"599 482 OFFCURVE",
"598 494 CURVE SMOOTH",
"593 589 OFFCURVE",
"521 710 OFFCURVE",
"331 710 CURVE SMOOTH",
"149 710 OFFCURVE",
"72 595 OFFCURVE",
"66 439 CURVE SMOOTH",
"64 382 OFFCURVE",
"64 315 OFFCURVE",
"66 261 CURVE SMOOTH",
"71 121 OFFCURVE",
"133 15 OFFCURVE",
"277 -6 CURVE",
"257 -53 LINE",
"253 -63 OFFCURVE",
"245 -75 OFFCURVE",
"252 -83 CURVE",
"268 -100 LINE",
"283 -116 OFFCURVE",
"296 -96 OFFCURVE",
"328 -96 CURVE SMOOTH",
"351 -96 OFFCURVE",
"371 -110 OFFCURVE",
"371 -134 CURVE SMOOTH",
"371 -159 OFFCURVE",
"351 -174 OFFCURVE",
"328 -174 CURVE SMOOTH",
"284 -174 OFFCURVE",
"277 -140 OFFCURVE",
"260 -156 CURVE",
"246 -169 LINE",
"230 -184 OFFCURVE",
"271 -219 OFFCURVE",
"328 -220 CURVE SMOOTH",
"391 -221 OFFCURVE",
"422 -180 OFFCURVE",
"422 -132 CURVE SMOOTH",
"422 -84 OFFCURVE",
"390 -50 OFFCURVE",
"346 -50 CURVE SMOOTH",
"331 -50 OFFCURVE",
"316 -53 OFFCURVE",
"308 -58 CURVE",
"331 -10 LINE",
"521 -10 OFFCURVE",
"593 111 OFFCURVE",
"598 206 CURVE SMOOTH",
"599 218 OFFCURVE",
"589 226 OFFCURVE",
"577 226 CURVE",
"557 226 LINE",
"546 226 OFFCURVE",
"538 221 OFFCURVE",
"535 205 CURVE SMOOTH",
"509 86 OFFCURVE",
"438 50 OFFCURVE",
"331 50 CURVE SMOOTH",
"209 50 OFFCURVE",
"134 115 OFFCURVE",
"129 266 CURVE SMOOTH",
"127 323 OFFCURVE",
"127 379 OFFCURVE"
);
}
);
width = 651;
},
{
associatedMasterId = "7891CA1A-7632-4D56-9F64-CBE5433B6847";
layerId = "2C2961A1-FB91-4944-9F77-3476E1CA3B43";
width = 600;
},
{
guideLines = (
{
angle = 90;
position = "{353, 0}";
}
);
hints = (
{
horizontal = 1;
place = "{9223372036854775808.000000, 0.000000}";
type = Tag;
name = hr00;
}
);
layerId = "794B2617-B5E8-46A3-BB57-9FF4B4129D38";
name = Regular;
paths = (
{
closed = 1;
nodes = (
"508 222 CURVE SMOOTH",
"499 169 OFFCURVE",
"452 115 OFFCURVE",
"347 115 CURVE SMOOTH",
"243 115 OFFCURVE",
"193 182 OFFCURVE",
"188 266 CURVE SMOOTH",
"185 316 OFFCURVE",
"185 384 OFFCURVE",
"188 434 CURVE SMOOTH",
"193 518 OFFCURVE",
"243 585 OFFCURVE",
"347 585 CURVE SMOOTH",
"452 585 OFFCURVE",
"498 531 OFFCURVE",
"507 478 CURVE SMOOTH",
"510 461 OFFCURVE",
"524 452 OFFCURVE",
"537 452 CURVE",
"618 452 LINE",
"633 452 OFFCURVE",
"646 463 OFFCURVE",
"645 479 CURVE SMOOTH",
"638 587 OFFCURVE",
"554 710 OFFCURVE",
"347 710 CURVE SMOOTH",
"163 710 OFFCURVE",
"63 595 OFFCURVE",
"53 434 CURVE SMOOTH",
"50 384 OFFCURVE",
"50 316 OFFCURVE",
"53 266 CURVE SMOOTH",
"62 122 OFFCURVE",
"143 15 OFFCURVE",
"291 -6 CURVE",
"269 -55 LINE",
"260 -74 OFFCURVE",
"263 -78 OFFCURVE",
"271 -88 CURVE",
"287 -106 LINE",
"303 -122 OFFCURVE",
"319 -102 OFFCURVE",
"341 -102 CURVE SMOOTH",
"366 -102 OFFCURVE",
"379 -113 OFFCURVE",
"379 -132 CURVE SMOOTH",
"379 -152 OFFCURVE",
"365 -164 OFFCURVE",
"341 -164 CURVE SMOOTH",
"300 -164 OFFCURVE",
"300 -136 OFFCURVE",
"278 -156 CURVE",
"264 -169 LINE",
"242 -190 OFFCURVE",
"293 -220 OFFCURVE",
"341 -220 CURVE SMOOTH",
"406 -220 OFFCURVE",
"440 -180 OFFCURVE",
"440 -132 CURVE SMOOTH",
"440 -84 OFFCURVE",
"418 -46 OFFCURVE",
"364 -46 CURVE SMOOTH",
"349 -46 OFFCURVE",
"337 -51 OFFCURVE",
"329 -56 CURVE",
"350 -10 LINE",
"555 -8 OFFCURVE",
"638 113 OFFCURVE",
"645 221 CURVE SMOOTH",
"646 237 OFFCURVE",
"633 248 OFFCURVE",
"618 248 CURVE",
"537 248 LINE",
"524 248 OFFCURVE",
"511 239 OFFCURVE"
);
}
);
width = 684;
},
{
associatedMasterId = "7891CA1A-7632-4D56-9F64-CBE5433B6847";
layerId = "B59C78E1-B6F6-4A7C-9E53-DC2ADEC481BE";
width = 600;
},
{
guideLines = (
{
angle = 90;
position = "{362, 0}";
}
);
hints = (
{
horizontal = 1;
place = "{9223372036854775808.000000, 0.000000}";
type = Tag;
name = hr00;
}
);
layerId = "A67CAC85-0E07-4E45-8FAE-4EA88B7D3365";
name = SemiBold;
paths = (
{
closed = 1;
nodes = (
"231 434 CURVE SMOOTH",
"236 495 OFFCURVE",
"267 550 OFFCURVE",
"357 550 CURVE SMOOTH",
"447 550 OFFCURVE",
"471 503 OFFCURVE",
"482 471 CURVE SMOOTH",
"489 450 OFFCURVE",
"494 442 OFFCURVE",
"516 442 CURVE",
"647 442 LINE",
"659 442 OFFCURVE",
"669 452 OFFCURVE",
"669 464 CURVE SMOOTH",
"666 600 OFFCURVE",
"533 710 OFFCURVE",
"357 710 CURVE SMOOTH",
"165 710 OFFCURVE",
"52 586 OFFCURVE",
"46 439 CURVE SMOOTH",
"44 382 OFFCURVE",
"43 315 OFFCURVE",
"46 261 CURVE SMOOTH",
"52 129 OFFCURVE",
"143 16 OFFCURVE",
"300 -6 CURVE",
"278 -52 LINE",
"269 -71 OFFCURVE",
"272 -75 OFFCURVE",
"280 -85 CURVE",
"298 -106 LINE",
"311 -119 OFFCURVE",
"334 -105 OFFCURVE",
"352 -105 CURVE SMOOTH",
"372 -105 OFFCURVE",
"385 -113 OFFCURVE",
"385 -132 CURVE SMOOTH",
"385 -152 OFFCURVE",
"371 -159 OFFCURVE",
"352 -159 CURVE SMOOTH",
"317 -159 OFFCURVE",
"315 -133 OFFCURVE",
"293 -153 CURVE",
"275 -169 LINE",
"252 -189 OFFCURVE",
"309 -220 OFFCURVE",
"352 -220 CURVE SMOOTH",
"412 -220 OFFCURVE",
"451 -180 OFFCURVE",
"451 -132 CURVE SMOOTH",
"451 -84 OFFCURVE",
"426 -44 OFFCURVE",
"375 -44 CURVE SMOOTH",
"360 -44 OFFCURVE",
"346 -49 OFFCURVE",
"338 -54 CURVE",
"359 -10 LINE",
"534 -9 OFFCURVE",
"666 100 OFFCURVE",
"669 236 CURVE SMOOTH",
"669 248 OFFCURVE",
"659 258 OFFCURVE",
"647 258 CURVE",
"516 258 LINE",
"494 258 OFFCURVE",
"489 250 OFFCURVE",
"482 229 CURVE SMOOTH",
"471 197 OFFCURVE",
"447 150 OFFCURVE",
"357 150 CURVE SMOOTH",
"267 150 OFFCURVE",
"236 205 OFFCURVE",
"231 266 CURVE SMOOTH",
"228 302 OFFCURVE",
"228 399 OFFCURVE"
);
}
);
width = 702;
},
{
associatedMasterId = "7891CA1A-7632-4D56-9F64-CBE5433B6847";
layerId = "EBCD298A-9C51-488A-B43D-5D3FB5B7406C";
width = 600;
},
{
guideLines = (
{
position = "{0, -220}";
},
{
angle = 90;
position = "{719, 0}";
}
);
hints = (
{
horizontal = 1;
place = "{9223372036854775808.000000, 0.000000}";
type = Tag;
name = hr00;
}
);
layerId = "23D188E6-7019-4CFD-8C83-9B160EBC8A6F";
name = Bold;
paths = (
{
closed = 1;
nodes = (
"297 434 CURVE SMOOTH",
"299 495 OFFCURVE",
"327 515 OFFCURVE",
"371 515 CURVE SMOOTH",
"405 515 OFFCURVE",
"431 504 OFFCURVE",
"446 461 CURVE SMOOTH",
"454 439 OFFCURVE",
"461 432 OFFCURVE",
"483 432 CURVE",
"687 432 LINE",
"699 432 OFFCURVE",
"709 442 OFFCURVE",
"709 454 CURVE SMOOTH",
"706 636 OFFCURVE",
"542 710 OFFCURVE",
"372 710 CURVE SMOOTH",
"185 710 OFFCURVE",
"45 625 OFFCURVE",
"37 439 CURVE SMOOTH",
"35 382 OFFCURVE",
"35 315 OFFCURVE",
"37 261 CURVE SMOOTH",
"44 91 OFFCURVE",
"151 10 OFFCURVE",
"309 -6 CURVE",
"289 -52 LINE",
"280 -71 OFFCURVE",
"282 -76 OFFCURVE",
"291 -85 CURVE",
"312 -106 LINE",
"325 -119 OFFCURVE",
"348 -106 OFFCURVE",
"366 -106 CURVE SMOOTH",
"386 -106 OFFCURVE",
"394 -118 OFFCURVE",
"394 -130 CURVE SMOOTH",
"394 -142 OFFCURVE",
"385 -154 OFFCURVE",
"366 -154 CURVE SMOOTH",
"332 -154 OFFCURVE",
"327 -136 OFFCURVE",
"310 -151 CURVE",
"289 -169 LINE",
"266 -189 OFFCURVE",
"313 -220 OFFCURVE",
"366 -220 CURVE SMOOTH",
"426 -220 OFFCURVE",
"465 -183 OFFCURVE",
"465 -130 CURVE SMOOTH",
"465 -77 OFFCURVE",
"435 -40 OFFCURVE",
"384 -40 CURVE SMOOTH",
"380 -40 OFFCURVE",
"362 -42 OFFCURVE",
"354 -45 CURVE",
"372 -10 LINE",
"542 -10 OFFCURVE",
"706 64 OFFCURVE",
"709 246 CURVE SMOOTH",
"709 258 OFFCURVE",
"699 268 OFFCURVE",
"687 268 CURVE",
"483 268 LINE",
"461 268 OFFCURVE",
"453 262 OFFCURVE",
"446 239 CURVE SMOOTH",
"433 199 OFFCURVE",
"405 185 OFFCURVE",
"371 185 CURVE SMOOTH",
"327 185 OFFCURVE",
"299 205 OFFCURVE",
"297 266 CURVE SMOOTH",
"295 323 OFFCURVE",
"295 379 OFFCURVE"
);
}
);
width = 733;
},
{
guideLines = (
{
angle = 90;
position = "{342, 0}";
}
);
hints = (
{
horizontal = 1;
place = "{9223372036854775808.000000, 0.000000}";
type = Tag;
name = hr01;
},
{
horizontal = 1;
place = "{9223372036854775808.000000, 0.000000}";
type = Tag;
name = hr02;
}
);
layerId = "3B5D4880-7EC1-45C7-ACF2-835190E6862B";
name = SemiLight;
paths = (
{
closed = 1;
nodes = (
"155 434 CURVE SMOOTH",
"159 545 OFFCURVE",
"223 620 OFFCURVE",
"342 620 CURVE SMOOTH",
"471 620 OFFCURVE",
"512 551 OFFCURVE",
"528 484 CURVE SMOOTH",
"531 470 OFFCURVE",
"543 462 OFFCURVE",
"554 462 CURVE",
"600 462 LINE",
"612 462 OFFCURVE",
"622 472 OFFCURVE",
"622 484 CURVE SMOOTH",
"619 571 OFFCURVE",
"542 710 OFFCURVE",
"342 710 CURVE SMOOTH",
"170 710 OFFCURVE",
"65 595 OFFCURVE",
"60 439 CURVE SMOOTH",
"58 379 OFFCURVE",
"58 321 OFFCURVE",
"60 261 CURVE SMOOTH",
"64 121 OFFCURVE",
"149 15 OFFCURVE",
"289 -6 CURVE",
"269 -53 LINE",
"265 -63 OFFCURVE",
"260 -75 OFFCURVE",
"267 -83 CURVE",
"284 -101 LINE",
"299 -117 OFFCURVE",
"306 -99 OFFCURVE",
"338 -99 CURVE SMOOTH",
"367 -99 OFFCURVE",
"381 -110 OFFCURVE",
"381 -134 CURVE SMOOTH",
"381 -159 OFFCURVE",
"366 -169 OFFCURVE",
"338 -169 CURVE SMOOTH",
"302 -169 OFFCURVE",
"296 -137 OFFCURVE",
"275 -156 CURVE",
"261 -169 LINE",
"242 -187 OFFCURVE",
"291 -220 OFFCURVE",
"338 -220 CURVE SMOOTH",
"408 -220 OFFCURVE",
"437 -180 OFFCURVE",
"437 -132 CURVE SMOOTH",
"437 -84 OFFCURVE",
"405 -48 OFFCURVE",
"361 -48 CURVE SMOOTH",
"346 -48 OFFCURVE",
"334 -51 OFFCURVE",
"326 -56 CURVE",
"347 -10 LINE",
"543 -7 OFFCURVE",
"619 130 OFFCURVE",
"622 216 CURVE SMOOTH",
"622 228 OFFCURVE",
"612 238 OFFCURVE",
"600 238 CURVE",
"554 238 LINE",
"543 238 OFFCURVE",
"531 230 OFFCURVE",
"528 216 CURVE SMOOTH",
"512 149 OFFCURVE",
"471 80 OFFCURVE",
"342 80 CURVE SMOOTH",
"223 80 OFFCURVE",
"159 155 OFFCURVE",
"155 266 CURVE SMOOTH",
"153 325 OFFCURVE",
"153 374 OFFCURVE"
);
}
);
width = 667;
}
);
leftKerningGroup = O;
rightKerningGroup = C;
unicode = 00C7;
userData = {
com.typemytype.robofont.guides = (
{
angle = 0;
isGlobal = 0;
x = 0;
y = -174;
},
{
angle = 0;
isGlobal = 0;
x = 0;
y = -220;
},
{
angle = 0;
isGlobal = 0;
x = 0;
y = -96;
},
{
angle = 0;
isGlobal = 0;
x = 0;
y = -50;
},
{
angle = 0;
isGlobal = 0;
x = 0;
y = -135;
},
{
angle = 90;
isGlobal = 0;
x = 331;
y = 0;
},
{
angle = 90;
isGlobal = 0;
x = 342;
y = 0;
}
);
};
},
{
glyphname = D;
lastChange = "2015-11-19 08:48:24 +0000";
layers = (
{
guideLines = (
{
position = "{0, 425}";
},
{
position = "{0, 276}";
},
{
position = "{0, 9}";
},
{
angle = 90;
position = "{320, 0}";
},
{
angle = 90;
position = "{603, 0}";
},
{
angle = 90;
position = "{94, 0}";
}
);
hints = (
{
horizontal = 1;
origin = "{0, 0}";
type = Tag;
name = hr00;
}
);
layerId = "7891CA1A-7632-4D56-9F64-CBE5433B6847";
name = Light;
paths = (
{
closed = 1;
nodes = (
"329 700 CURVE",
"116 700 LINE SMOOTH",
"103 700 OFFCURVE",
"94 691 OFFCURVE",
"94 677 CURVE SMOOTH",
"94 22 LINE SMOOTH",
"94 9 OFFCURVE",
"103 0 OFFCURVE",
"116 0 CURVE SMOOTH",
"334 0 LINE SMOOTH",
"540 0 OFFCURVE",
"603 87 OFFCURVE",
"607 271 CURVE SMOOTH",
"608 331 OFFCURVE",
"608 370 OFFCURVE",
"607 430 CURVE SMOOTH",
"604 604 OFFCURVE",
"541 700 OFFCURVE"
);
},
{
closed = 1;
nodes = (
"544 425 CURVE SMOOTH",
"545 365 OFFCURVE",
"545 336 OFFCURVE",
"544 276 CURVE SMOOTH",
"541 120 OFFCURVE",
"488 60 OFFCURVE",
"329 60 CURVE SMOOTH",
"157 60 LINE",
"157 640 LINE",
"324 640 LINE SMOOTH",
"484 640 OFFCURVE",
"541 571 OFFCURVE"
);
}
);
width = 677;
},
{
associatedMasterId = "7891CA1A-7632-4D56-9F64-CBE5433B6847";
layerId = "2C2961A1-FB91-4944-9F77-3476E1CA3B43";
width = 600;
},
{
guideLines = (
{
position = "{0, 424}";
},
{
position = "{0, 276}";
},
{
angle = 90;
position = "{648, 0}";
},
{
angle = 90;
position = "{349, 0}";
},
{
angle = 90;
position = "{512, 0}";
}
);
hints = (
{
horizontal = 1;
place = "{9223372036854775808.000000, 0.000000}";
type = Tag;
name = hr00;
}
);
layerId = "794B2617-B5E8-46A3-BB57-9FF4B4129D38";
name = Regular;
paths = (
{
closed = 1;
nodes = (
"352 700 CURVE",
"105 700 LINE SMOOTH",
"90 700 OFFCURVE",
"78 688 OFFCURVE",
"78 673 CURVE SMOOTH",
"78 27 LINE SMOOTH",
"78 12 OFFCURVE",
"90 0 OFFCURVE",
"105 0 CURVE SMOOTH",
"357 0 LINE SMOOTH",
"549 0 OFFCURVE",
"641 107 OFFCURVE",
"651 276 CURVE SMOOTH",
"654 326 OFFCURVE",
"654 374 OFFCURVE",
"651 424 CURVE SMOOTH",
"641 593 OFFCURVE",
"549 700 OFFCURVE"
);
},
{
closed = 1;
nodes = (
"516 424 CURVE SMOOTH",
"519 374 OFFCURVE",
"519 326 OFFCURVE",
"516 276 CURVE SMOOTH",
"511 190 OFFCURVE",
"462 125 OFFCURVE",
"352 125 CURVE SMOOTH",
"213 125 LINE",
"213 575 LINE",
"347 575 LINE SMOOTH",
"462 575 OFFCURVE",
"511 510 OFFCURVE"
);
}
);
width = 704;
},
{
associatedMasterId = "7891CA1A-7632-4D56-9F64-CBE5433B6847";
layerId = "B59C78E1-B6F6-4A7C-9E53-DC2ADEC481BE";
width = 600;
},
{
guideLines = (
{
angle = 90;
position = "{362, 0}";
}
);
hints = (
{
horizontal = 1;
place = "{9223372036854775808.000000, 0.000000}";
type = Tag;
name = hr00;
}
);
layerId = "A67CAC85-0E07-4E45-8FAE-4EA88B7D3365";
name = SemiBold;
paths = (
{
closed = 1;
nodes = (
"362 700 CURVE",
"97 700 LINE SMOOTH",
"82 700 OFFCURVE",
"70 688 OFFCURVE",
"70 673 CURVE SMOOTH",
"70 27 LINE SMOOTH",
"70 12 OFFCURVE",
"82 0 OFFCURVE",
"97 0 CURVE SMOOTH",
"367 0 LINE SMOOTH",
"551 0 OFFCURVE",
"671 115 OFFCURVE",
"678 279 CURVE SMOOTH",
"680 333 OFFCURVE",
"680 364 OFFCURVE",
"678 421 CURVE SMOOTH",
"671 585 OFFCURVE",
"546 700 OFFCURVE"
);
},
{
closed = 1;
nodes = (
"493 425 CURVE SMOOTH",
"495 370 OFFCURVE",
"495 332 OFFCURVE",
"493 275 CURVE SMOOTH",
"490 199 OFFCURVE",
"447 160 OFFCURVE",
"362 160 CURVE SMOOTH",
"255 160 LINE",
"255 540 LINE",
"357 540 LINE SMOOTH",
"442 540 OFFCURVE",
"489 501 OFFCURVE"
);
}
);
width = 723;
},
{
associatedMasterId = "7891CA1A-7632-4D56-9F64-CBE5433B6847";
layerId = "EBCD298A-9C51-488A-B43D-5D3FB5B7406C";
width = 600;
},
{
guideLines = (
{
angle = 90;
position = "{380, 0}";
}
);
hints = (
{
horizontal = 1;
place = "{9223372036854775808.000000, 0.000000}";
type = Tag;
name = hr00;
}
);
layerId = "23D188E6-7019-4CFD-8C83-9B160EBC8A6F";
name = Bold;
paths = (
{
closed = 1;
nodes = (
"370 700 CURVE",
"82 700 LINE SMOOTH",
"67 700 OFFCURVE",
"55 688 OFFCURVE",
"55 673 CURVE SMOOTH",
"55 27 LINE SMOOTH",
"55 12 OFFCURVE",
"67 0 OFFCURVE",
"82 0 CURVE SMOOTH",
"375 0 LINE SMOOTH",
"566 0 OFFCURVE",
"696 87 OFFCURVE",
"704 276 CURVE SMOOTH",
"706 330 OFFCURVE",
"706 368 OFFCURVE",
"704 425 CURVE SMOOTH",
"697 604 OFFCURVE",
"557 700 OFFCURVE"
);
},
{
closed = 1;
nodes = (
"450 425 CURVE SMOOTH",
"453 370 OFFCURVE",
"453 333 OFFCURVE",
"450 276 CURVE SMOOTH",
"447 220 OFFCURVE",
"414 195 OFFCURVE",
"370 195 CURVE SMOOTH",
"305 195 LINE",
"305 505 LINE",
"365 505 LINE SMOOTH",
"410 505 OFFCURVE",
"447 481 OFFCURVE"
);
}
);
width = 740;
},
{
guideLines = (
{
position = "{0, 424}";
},
{
position = "{0, 276}";
},
{
angle = 90;
position = "{623, 0}";
},
{
angle = 90;
position = "{337, 0}";
}
);
hints = (
{
horizontal = 1;
place = "{9223372036854775808.000000, 0.000000}";
type = Tag;
name = hr00;
}
);
layerId = "3B5D4880-7EC1-45C7-ACF2-835190E6862B";
name = SemiLight;
paths = (
{
closed = 1;
nodes = (
"629 429 CURVE SMOOTH",
"626 598 OFFCURVE",
"508 700 OFFCURVE",
"342 700 CURVE SMOOTH",
"113 700 LINE SMOOTH",
"98 700 OFFCURVE",
"86 688 OFFCURVE",
"86 673 CURVE SMOOTH",
"86 27 LINE SMOOTH",
"86 12 OFFCURVE",
"98 0 OFFCURVE",
"113 0 CURVE SMOOTH",
"348 0 LINE SMOOTH",
"513 0 OFFCURVE",
"626 102 OFFCURVE",
"629 271 CURVE SMOOTH",
"630 331 OFFCURVE",
"630 369 OFFCURVE"
);
},
{
closed = 1;
nodes = (
"534 424 CURVE SMOOTH",
"535 364 OFFCURVE",
"535 336 OFFCURVE",
"534 276 CURVE SMOOTH",
"532 180 OFFCURVE",
"487 90 OFFCURVE",
"343 90 CURVE SMOOTH",
"181 90 LINE",
"181 610 LINE",
"338 610 LINE SMOOTH",
"482 610 OFFCURVE",
"532 520 OFFCURVE"
);
}
);
width = 688;
}
);
leftKerningGroup = I;
rightKerningGroup = D;
unicode = 0044;
userData = {
com.typemytype.robofont.guides = (
{
angle = 0;
isGlobal = 0;
x = 0;
y = 425;
},
{
angle = 0;
isGlobal = 0;
x = 0;
y = 276;
},
{
angle = 0;
isGlobal = 0;
x = 0;
y = 9;
},
{
angle = 90;
isGlobal = 0;
x = 320;
y = 0;
},
{
angle = 90;
isGlobal = 0;
x = 603;
y = 0;
},
{
angle = 90;
isGlobal = 0;
x = 94;
y = 0;
}
);
};
},
{
glyphname = Dcroat;
lastChange = "2015-11-19 08:48:24 +0000";
layers = (
{
guideLines = (
{
position = "{0, 352}";
},
{
angle = 90;
position = "{340, 0}";
},
{
angle = 90;
position = "{105, 0}";
}
);
hints = (
{
horizontal = 1;
origin = "{0, 0}";
type = Tag;
name = hr00;
}
);
layerId = "7891CA1A-7632-4D56-9F64-CBE5433B6847";
name = Light;
paths = (
{
closed = 1;
nodes = (
"335 700 CURVE",
"122 700 LINE SMOOTH",
"109 700 OFFCURVE",
"100 691 OFFCURVE",
"100 677 CURVE SMOOTH",
"100 382 LINE",
"37 382 LINE SMOOTH",
"24 382 OFFCURVE",
"15 373 OFFCURVE",
"15 360 CURVE SMOOTH",
"15 344 LINE SMOOTH",
"15 331 OFFCURVE",
"24 322 OFFCURVE",
"37 322 CURVE SMOOTH",
"100 322 LINE",
"100 22 LINE SMOOTH",
"100 9 OFFCURVE",
"109 0 OFFCURVE",
"122 0 CURVE SMOOTH",
"340 0 LINE SMOOTH",
"546 0 OFFCURVE",
"609 87 OFFCURVE",
"613 271 CURVE SMOOTH",
"614 331 OFFCURVE",
"614 370 OFFCURVE",
"613 430 CURVE SMOOTH",
"610 604 OFFCURVE",
"547 700 OFFCURVE"
);
},
{
closed = 1;
nodes = (
"550 425 CURVE SMOOTH",
"551 365 OFFCURVE",
"551 336 OFFCURVE",
"550 276 CURVE SMOOTH",
"547 120 OFFCURVE",
"494 60 OFFCURVE",
"335 60 CURVE SMOOTH",
"163 60 LINE",
"163 322 LINE",
"313 322 LINE SMOOTH",
"326 322 OFFCURVE",
"335 331 OFFCURVE",
"335 344 CURVE SMOOTH",
"335 360 LINE SMOOTH",
"335 373 OFFCURVE",
"326 382 OFFCURVE",
"313 382 CURVE SMOOTH",
"163 382 LINE",
"163 640 LINE",
"330 640 LINE SMOOTH",
"490 640 OFFCURVE",
"547 571 OFFCURVE"
);
}
);
width = 683;
},
{
associatedMasterId = "7891CA1A-7632-4D56-9F64-CBE5433B6847";
layerId = "2C2961A1-FB91-4944-9F77-3476E1CA3B43";
width = 600;
},
{
guideLines = (
{
position = "{0, 355}";
},
{
angle = 90;
position = "{359, 0}";
}
);
hints = (
{
horizontal = 1;
place = "{9223372036854775808.000000, 0.000000}";
type = Tag;
name = hr00;
}
);
layerId = "794B2617-B5E8-46A3-BB57-9FF4B4129D38";
name = Regular;
paths = (
{
closed = 1;
nodes = (
"375 700 CURVE",
"128 700 LINE SMOOTH",
"113 700 OFFCURVE",
"101 688 OFFCURVE",
"101 673 CURVE SMOOTH",
"101 413 LINE",
"48 413 LINE SMOOTH",
"33 413 OFFCURVE",
"21 401 OFFCURVE",
"21 386 CURVE SMOOTH",
"21 323 LINE SMOOTH",
"21 308 OFFCURVE",
"33 296 OFFCURVE",
"48 296 CURVE SMOOTH",
"101 296 LINE",
"101 27 LINE SMOOTH",
"101 12 OFFCURVE",
"113 0 OFFCURVE",
"128 0 CURVE SMOOTH",
"380 0 LINE SMOOTH",
"572 0 OFFCURVE",
"664 107 OFFCURVE",
"674 276 CURVE SMOOTH",
"677 326 OFFCURVE",
"677 374 OFFCURVE",
"674 424 CURVE SMOOTH",
"664 593 OFFCURVE",
"572 700 OFFCURVE"
);
},
{
closed = 1;
nodes = (
"539 424 CURVE SMOOTH",
"542 374 OFFCURVE",
"542 326 OFFCURVE",
"539 276 CURVE SMOOTH",
"534 190 OFFCURVE",
"485 125 OFFCURVE",
"375 125 CURVE SMOOTH",
"236 125 LINE",
"236 296 LINE",
"343 296 LINE SMOOTH",
"358 296 OFFCURVE",
"370 308 OFFCURVE",
"370 323 CURVE SMOOTH",
"370 386 LINE SMOOTH",
"370 401 OFFCURVE",
"358 413 OFFCURVE",
"343 413 CURVE SMOOTH",
"236 413 LINE",
"236 575 LINE",
"370 575 LINE SMOOTH",
"485 575 OFFCURVE",
"534 510 OFFCURVE"
);
}
);
width = 727;
},
{
associatedMasterId = "7891CA1A-7632-4D56-9F64-CBE5433B6847";
layerId = "B59C78E1-B6F6-4A7C-9E53-DC2ADEC481BE";
width = 600;
},
{
guideLines = (
{
position = "{0, 355}";
},
{
angle = 90;
position = "{372, 0}";
}
);
hints = (
{
horizontal = 1;
place = "{9223372036854775808.000000, 0.000000}";
type = Tag;
name = hr00;
}
);
layerId = "A67CAC85-0E07-4E45-8FAE-4EA88B7D3365";
name = SemiBold;
paths = (
{
closed = 1;
nodes = (
"394 700 CURVE",
"129 700 LINE SMOOTH",
"114 700 OFFCURVE",
"102 688 OFFCURVE",
"102 673 CURVE SMOOTH",
"102 424 LINE",
"49 424 LINE SMOOTH",
"34 424 OFFCURVE",
"22 412 OFFCURVE",
"22 397 CURVE SMOOTH",
"22 311 LINE SMOOTH",
"22 296 OFFCURVE",
"34 284 OFFCURVE",
"49 284 CURVE SMOOTH",
"102 284 LINE",
"102 27 LINE SMOOTH",
"102 12 OFFCURVE",
"114 0 OFFCURVE",
"129 0 CURVE SMOOTH",
"399 0 LINE SMOOTH",
"583 0 OFFCURVE",
"703 115 OFFCURVE",
"710 279 CURVE SMOOTH",
"712 333 OFFCURVE",
"712 364 OFFCURVE",
"710 421 CURVE SMOOTH",
"703 585 OFFCURVE",
"578 700 OFFCURVE"
);
},
{
closed = 1;
nodes = (
"525 425 CURVE SMOOTH",
"527 370 OFFCURVE",
"527 332 OFFCURVE",
"525 275 CURVE SMOOTH",
"522 199 OFFCURVE",
"479 160 OFFCURVE",
"394 160 CURVE SMOOTH",
"287 160 LINE",
"287 284 LINE",
"362 284 LINE SMOOTH",
"377 284 OFFCURVE",
"389 296 OFFCURVE",
"389 311 CURVE SMOOTH",
"389 397 LINE SMOOTH",
"389 412 OFFCURVE",
"377 424 OFFCURVE",
"362 424 CURVE SMOOTH",
"287 424 LINE",
"287 540 LINE",
"389 540 LINE SMOOTH",
"474 540 OFFCURVE",
"521 501 OFFCURVE"
);
}
);
width = 755;
},
{
associatedMasterId = "7891CA1A-7632-4D56-9F64-CBE5433B6847";
layerId = "EBCD298A-9C51-488A-B43D-5D3FB5B7406C";
width = 600;
},
{
guideLines = (
{
position = "{0, 352}";
}
);
hints = (
{
horizontal = 1;
place = "{9223372036854775808.000000, 0.000000}";
type = Tag;
name = hr00;
}
);
layerId = "23D188E6-7019-4CFD-8C83-9B160EBC8A6F";
name = Bold;
paths = (
{
closed = 1;
nodes = (
"394 700 CURVE",
"106 700 LINE SMOOTH",
"91 700 OFFCURVE",
"79 688 OFFCURVE",
"79 673 CURVE SMOOTH",
"79 430 LINE",
"41 430 LINE SMOOTH",
"26 430 OFFCURVE",
"14 418 OFFCURVE",
"14 403 CURVE SMOOTH",
"14 302 LINE SMOOTH",
"14 287 OFFCURVE",
"26 275 OFFCURVE",
"41 275 CURVE SMOOTH",
"79 275 LINE",
"79 27 LINE SMOOTH",
"79 12 OFFCURVE",
"91 0 OFFCURVE",
"106 0 CURVE SMOOTH",
"395 0 LINE SMOOTH",
"586 0 OFFCURVE",
"720 87 OFFCURVE",
"728 276 CURVE SMOOTH",
"730 330 OFFCURVE",
"730 368 OFFCURVE",
"728 425 CURVE SMOOTH",
"721 604 OFFCURVE",
"581 700 OFFCURVE"
);
},
{
closed = 1;
nodes = (
"474 425 CURVE SMOOTH",
"477 370 OFFCURVE",
"477 333 OFFCURVE",
"474 276 CURVE SMOOTH",
"471 220 OFFCURVE",
"438 195 OFFCURVE",
"394 195 CURVE SMOOTH",
"329 195 LINE",
"329 275 LINE",
"385 275 LINE SMOOTH",
"400 275 OFFCURVE",
"412 287 OFFCURVE",
"412 302 CURVE SMOOTH",
"412 403 LINE SMOOTH",
"412 418 OFFCURVE",
"400 430 OFFCURVE",
"385 430 CURVE SMOOTH",
"329 430 LINE",
"329 505 LINE",
"394 505 LINE SMOOTH",
"439 505 OFFCURVE",
"471 481 OFFCURVE"
);
}
);
width = 764;
},
{
guideLines = (
{
position = "{0, 355}";
},
{
angle = 90;
position = "{357, 0}";
},
{
angle = 90;
position = "{100, 0}";
}
);
hints = (
{
horizontal = 1;
place = "{9223372036854775808.000000, 0.000000}";
type = Tag;
name = hr00;
}
);
layerId = "3B5D4880-7EC1-45C7-ACF2-835190E6862B";
name = SemiLight;
paths = (
{
closed = 1;
nodes = (
"643 429 CURVE SMOOTH",
"640 598 OFFCURVE",
"522 700 OFFCURVE",
"356 700 CURVE SMOOTH",
"127 700 LINE SMOOTH",
"112 700 OFFCURVE",
"100 688 OFFCURVE",
"100 673 CURVE SMOOTH",
"100 397 LINE",
"42 397 LINE SMOOTH",
"27 397 OFFCURVE",
"15 385 OFFCURVE",
"15 370 CURVE SMOOTH",
"15 339 LINE SMOOTH",
"15 324 OFFCURVE",
"27 312 OFFCURVE",
"42 312 CURVE SMOOTH",
"100 312 LINE",
"100 27 LINE SMOOTH",
"100 12 OFFCURVE",
"112 0 OFFCURVE",
"127 0 CURVE SMOOTH",
"362 0 LINE SMOOTH",
"527 0 OFFCURVE",
"640 102 OFFCURVE",
"643 271 CURVE SMOOTH",
"644 331 OFFCURVE",
"644 369 OFFCURVE"
);
},
{
closed = 1;
nodes = (
"548 424 CURVE SMOOTH",
"549 364 OFFCURVE",
"549 336 OFFCURVE",
"548 276 CURVE SMOOTH",
"546 180 OFFCURVE",
"501 90 OFFCURVE",
"357 90 CURVE SMOOTH",
"195 90 LINE",
"195 312 LINE",
"330 312 LINE SMOOTH",
"345 312 OFFCURVE",
"357 324 OFFCURVE",
"357 339 CURVE SMOOTH",
"357 370 LINE SMOOTH",
"357 385 OFFCURVE",
"345 397 OFFCURVE",
"330 397 CURVE SMOOTH",
"195 397 LINE",
"195 610 LINE",
"352 610 LINE SMOOTH",
"496 610 OFFCURVE",
"546 520 OFFCURVE"
);
}
);
width = 702;
}
);
leftKerningGroup = I;
rightKerningGroup = D;
unicode = 0110;
userData = {
com.typemytype.robofont.guides = (
{
angle = 0;
isGlobal = 0;
x = 0;
y = 352;
},
{
angle = 90;
isGlobal = 0;
x = 340;
y = 0;
},
{
angle = 90;
isGlobal = 0;
x = 105;
y = 0;
}
);
};
},
{
glyphname = E;
lastChange = "2015-11-19 08:48:24 +0000";
layers = (
{
guideLines = (
{
position = "{0, 334}";
},
{
position = "{0, 9}";
},
{
position = "{0, 376}";
},
{
position = "{0, 691}";
},
{
position = "{0, 649}";
},
{
angle = 90;
position = "{664, 0}";
},
{
angle = 90;
position = "{94, 0}";
},
{
angle = 90;
position = "{511, 0}";
}
);
hints = (
{
horizontal = 1;
origin = "{0, 0}";
type = Tag;
name = hr00;
}
);
layerId = "7891CA1A-7632-4D56-9F64-CBE5433B6847";
name = Light;
paths = (
{
closed = 1;
nodes = (
"157 60 LINE",
"157 325 LINE",
"484 325 LINE SMOOTH",
"498 325 OFFCURVE",
"507 334 OFFCURVE",
"507 347 CURVE SMOOTH",
"507 362 LINE SMOOTH",
"507 376 OFFCURVE",
"498 385 OFFCURVE",
"484 385 CURVE SMOOTH",
"157 385 LINE",
"157 640 LINE",
"506 640 LINE SMOOTH",
"520 640 OFFCURVE",
"529 649 OFFCURVE",
"529 662 CURVE SMOOTH",
"529 677 LINE SMOOTH",
"529 691 OFFCURVE",
"520 700 OFFCURVE",
"506 700 CURVE SMOOTH",
"116 700 LINE SMOOTH",
"103 700 OFFCURVE",
"94 691 OFFCURVE",
"94 677 CURVE SMOOTH",
"94 22 LINE SMOOTH",
"94 9 OFFCURVE",
"103 0 OFFCURVE",
"116 0 CURVE SMOOTH",
"514 0 LINE SMOOTH",
"528 0 OFFCURVE",
"537 9 OFFCURVE",
"537 22 CURVE SMOOTH",
"537 37 LINE SMOOTH",
"537 51 OFFCURVE",
"528 60 OFFCURVE",
"514 60 CURVE"
);
}
);
width = 592;
},
{
associatedMasterId = "7891CA1A-7632-4D56-9F64-CBE5433B6847";
layerId = "2C2961A1-FB91-4944-9F77-3476E1CA3B43";
width = 600;
},
{
guideLines = (
{
position = "{0, 350}";
},
{
angle = 90;
position = "{568, 0}";
}
);
hints = (
{
horizontal = 1;
place = "{9223372036854775808.000000, 0.000000}";
type = Tag;
name = hr00;
}
);
layerId = "794B2617-B5E8-46A3-BB57-9FF4B4129D38";
name = Regular;
paths = (
{
closed = 1;
nodes = (
"544 125 LINE SMOOTH",
"559 125 OFFCURVE",
"571 113 OFFCURVE",
"571 98 CURVE SMOOTH",
"571 27 LINE SMOOTH",
"571 12 OFFCURVE",
"559 0 OFFCURVE",
"544 0 CURVE SMOOTH",
"105 0 LINE SMOOTH",
"90 0 OFFCURVE",
"78 12 OFFCURVE",
"78 27 CURVE SMOOTH",
"78 673 LINE SMOOTH",
"78 688 OFFCURVE",
"90 700 OFFCURVE",
"105 700 CURVE SMOOTH",
"536 700 LINE SMOOTH",
"551 700 OFFCURVE",
"563 688 OFFCURVE",
"563 673 CURVE SMOOTH",
"563 602 LINE SMOOTH",
"563 587 OFFCURVE",
"551 575 OFFCURVE",
"536 575 CURVE SMOOTH",
"213 575 LINE",
"213 416 LINE",
"514 416 LINE SMOOTH",
"529 416 OFFCURVE",
"541 404 OFFCURVE",
"541 389 CURVE SMOOTH",
"541 318 LINE SMOOTH",
"541 303 OFFCURVE",
"529 291 OFFCURVE",
"514 291 CURVE SMOOTH",
"213 291 LINE",
"213 125 LINE"
);
}
);
width = 617;
},
{
associatedMasterId = "7891CA1A-7632-4D56-9F64-CBE5433B6847";
layerId = "B59C78E1-B6F6-4A7C-9E53-DC2ADEC481BE";
width = 600;
},
{
guideLines = (
{
position = "{0, 350}";
},
{
angle = 90;
position = "{588, 0}";
}
);
hints = (
{
horizontal = 1;
place = "{9223372036854775808.000000, 0.000000}";
type = Tag;
name = hr00;
}
);
layerId = "A67CAC85-0E07-4E45-8FAE-4EA88B7D3365";
name = SemiBold;
paths = (
{
closed = 1;
nodes = (
"571 160 LINE SMOOTH",
"586 160 OFFCURVE",
"598 148 OFFCURVE",
"598 133 CURVE SMOOTH",
"598 27 LINE SMOOTH",
"598 12 OFFCURVE",
"586 0 OFFCURVE",
"571 0 CURVE SMOOTH",
"97 0 LINE SMOOTH",
"82 0 OFFCURVE",
"70 12 OFFCURVE",
"70 27 CURVE SMOOTH",
"70 673 LINE SMOOTH",
"70 688 OFFCURVE",
"82 700 OFFCURVE",
"97 700 CURVE SMOOTH",
"563 700 LINE SMOOTH",
"578 700 OFFCURVE",
"590 688 OFFCURVE",
"590 673 CURVE SMOOTH",
"590 567 LINE SMOOTH",
"590 552 OFFCURVE",
"578 540 OFFCURVE",
"563 540 CURVE SMOOTH",
"255 540 LINE",
"255 432 LINE",
"541 432 LINE SMOOTH",
"556 432 OFFCURVE",
"568 420 OFFCURVE",
"568 405 CURVE SMOOTH",
"568 299 LINE SMOOTH",
"568 284 OFFCURVE",
"556 272 OFFCURVE",
"541 272 CURVE SMOOTH",
"255 272 LINE",
"255 160 LINE"
);
}
);
width = 643;
},
{
associatedMasterId = "7891CA1A-7632-4D56-9F64-CBE5433B6847";
layerId = "EBCD298A-9C51-488A-B43D-5D3FB5B7406C";
width = 600;
},
{
guideLines = (
{
position = "{0, 350}";
}
);
hints = (
{
horizontal = 1;
place = "{9223372036854775808.000000, 0.000000}";
type = Tag;
name = hr00;
}
);
layerId = "23D188E6-7019-4CFD-8C83-9B160EBC8A6F";
name = Bold;
paths = (
{
closed = 1;
nodes = (
"603 195 LINE SMOOTH",
"618 195 OFFCURVE",
"630 183 OFFCURVE",
"630 168 CURVE SMOOTH",
"630 27 LINE SMOOTH",
"630 12 OFFCURVE",
"618 0 OFFCURVE",
"603 0 CURVE SMOOTH",
"82 0 LINE SMOOTH",
"67 0 OFFCURVE",
"55 12 OFFCURVE",
"55 27 CURVE SMOOTH",
"55 673 LINE SMOOTH",
"55 688 OFFCURVE",
"67 700 OFFCURVE",
"82 700 CURVE SMOOTH",
"595 700 LINE SMOOTH",
"610 700 OFFCURVE",
"622 688 OFFCURVE",
"622 673 CURVE SMOOTH",
"622 532 LINE SMOOTH",
"622 517 OFFCURVE",
"610 505 OFFCURVE",
"595 505 CURVE SMOOTH",
"295 505 LINE",
"295 442 LINE",
"573 442 LINE SMOOTH",
"588 442 OFFCURVE",
"600 430 OFFCURVE",
"600 415 CURVE SMOOTH",
"600 285 LINE SMOOTH",
"600 270 OFFCURVE",
"588 258 OFFCURVE",
"573 258 CURVE SMOOTH",
"295 258 LINE",
"295 195 LINE"
);
}
);
width = 667;
},
{
guideLines = (
{
position = "{0, 350}";
},
{
angle = 90;
position = "{538, 0}";
}
);
hints = (
{
horizontal = 1;
place = "{9223372036854775808.000000, 0.000000}";
type = Tag;
name = hr00;
}
);
layerId = "3B5D4880-7EC1-45C7-ACF2-835190E6862B";
name = SemiLight;
paths = (
{
closed = 1;
nodes = (
"517 90 LINE SMOOTH",
"532 90 OFFCURVE",
"544 78 OFFCURVE",
"544 63 CURVE SMOOTH",
"544 27 LINE SMOOTH",
"544 12 OFFCURVE",
"532 0 OFFCURVE",
"517 0 CURVE SMOOTH",
"113 0 LINE SMOOTH",
"98 0 OFFCURVE",
"86 12 OFFCURVE",
"86 27 CURVE SMOOTH",
"86 673 LINE SMOOTH",
"86 688 OFFCURVE",
"98 700 OFFCURVE",
"113 700 CURVE SMOOTH",
"509 700 LINE SMOOTH",
"524 700 OFFCURVE",
"536 688 OFFCURVE",
"536 673 CURVE SMOOTH",
"536 637 LINE SMOOTH",
"536 622 OFFCURVE",
"524 610 OFFCURVE",
"509 610 CURVE SMOOTH",
"181 610 LINE",
"181 399 LINE",
"487 399 LINE SMOOTH",
"502 399 OFFCURVE",
"514 387 OFFCURVE",
"514 372 CURVE SMOOTH",
"514 336 LINE SMOOTH",
"514 321 OFFCURVE",
"502 309 OFFCURVE",
"487 309 CURVE SMOOTH",
"181 309 LINE",
"181 90 LINE"
);
}
);
width = 592;
}
);
leftKerningGroup = I;
rightKerningGroup = E;
unicode = 0045;
userData = {
com.typemytype.robofont.guides = (
{
angle = 0;
isGlobal = 0;
x = 0;
y = 334;
},
{
angle = 0;
isGlobal = 0;
x = 0;
y = 9;
},
{
angle = 0;
isGlobal = 0;
x = 0;
y = 376;
},
{
angle = 0;
isGlobal = 0;
x = 0;
y = 691;
},
{
angle = 0;
isGlobal = 0;
x = 0;
y = 649;
},
{
angle = 90;
isGlobal = 0;
x = 664;
y = 0;
},
{
angle = 90;
isGlobal = 0;
x = 94;
y = 0;
},
{
angle = 90;
isGlobal = 0;
x = 511;
y = 0;
}
);
};
},
{
glyphname = Eogonek;
lastChange = "2015-11-19 08:48:24 +0000";
layers = (
{
guideLines = (
{
angle = 90;
position = "{355, 0}";
}
);
hints = (
{
horizontal = 1;
origin = "{0, 46}";
type = Tag;
name = hr01;
}
);
layerId = "7891CA1A-7632-4D56-9F64-CBE5433B6847";
name = Light;
paths = (
{
closed = 1;
nodes = (
"157 60 LINE",
"157 325 LINE",
"484 325 LINE SMOOTH",
"498 325 OFFCURVE",
"507 334 OFFCURVE",
"507 347 CURVE SMOOTH",
"507 362 LINE SMOOTH",
"507 376 OFFCURVE",
"498 385 OFFCURVE",
"484 385 CURVE SMOOTH",
"157 385 LINE",
"157 640 LINE",
"506 640 LINE SMOOTH",
"520 640 OFFCURVE",
"529 649 OFFCURVE",
"529 662 CURVE SMOOTH",
"529 677 LINE SMOOTH",
"529 691 OFFCURVE",
"520 700 OFFCURVE",
"506 700 CURVE SMOOTH",
"116 700 LINE SMOOTH",
"103 700 OFFCURVE",
"94 691 OFFCURVE",
"94 677 CURVE SMOOTH",
"94 22 LINE SMOOTH",
"94 9 OFFCURVE",
"103 0 OFFCURVE",
"116 0 CURVE SMOOTH",
"385 0 LINE",
"371 -22 OFFCURVE",
"364 -50 OFFCURVE",
"364 -82 CURVE SMOOTH",
"364 -167 OFFCURVE",
"415 -220 OFFCURVE",
"496 -220 CURVE SMOOTH",
"515 -220 LINE SMOOTH",
"528 -220 OFFCURVE",
"537 -211 OFFCURVE",
"537 -198 CURVE SMOOTH",
"537 -185 LINE SMOOTH",
"537 -172 OFFCURVE",
"528 -163 OFFCURVE",
"515 -163 CURVE SMOOTH",
"500 -163 LINE SMOOTH",
"456 -163 OFFCURVE",
"424 -133 OFFCURVE",
"424 -82 CURVE SMOOTH",
"424 -33 OFFCURVE",
"453 -3 OFFCURVE",
"493 0 CURVE",
"514 0 LINE SMOOTH",
"528 0 OFFCURVE",
"537 9 OFFCURVE",
"537 22 CURVE SMOOTH",
"537 37 LINE SMOOTH",
"537 51 OFFCURVE",
"528 60 OFFCURVE",
"514 60 CURVE SMOOTH"
);
}
);
width = 592;
},
{
associatedMasterId = "7891CA1A-7632-4D56-9F64-CBE5433B6847";
layerId = "2C2961A1-FB91-4944-9F77-3476E1CA3B43";
width = 600;
},
{
hints = (
{
horizontal = 1;
place = "{9223372036854775808.000000, 0.000000}";
type = Tag;
name = hr01;
},
{
horizontal = 1;
place = "{9223372036854775808.000000, 0.000000}";
type = Tag;
name = hr02;
}
);
layerId = "794B2617-B5E8-46A3-BB57-9FF4B4129D38";
name = Regular;
paths = (
{
closed = 1;
nodes = (
"549 -220 LINE",
"562 -220 OFFCURVE",
"571 -211 OFFCURVE",
"571 -198 CURVE",
"571 -150 LINE",
"571 -137 OFFCURVE",
"562 -128 OFFCURVE",
"549 -128 CURVE",
"534 -128 LINE",
"500 -128 OFFCURVE",
"476 -105 OFFCURVE",
"476 -64 CURVE SMOOTH",
"476 -23 OFFCURVE",
"500 0 OFFCURVE",
"534 0 CURVE",
"544 0 LINE",
"559 0 OFFCURVE",
"571 12 OFFCURVE",
"571 27 CURVE",
"571 98 LINE",
"571 113 OFFCURVE",
"559 125 OFFCURVE",
"544 125 CURVE",
"213 125 LINE",
"213 291 LINE",
"514 291 LINE",
"529 291 OFFCURVE",
"541 303 OFFCURVE",
"541 318 CURVE",
"541 389 LINE",
"541 404 OFFCURVE",
"529 416 OFFCURVE",
"514 416 CURVE",
"213 416 LINE",
"213 575 LINE",
"536 575 LINE",
"551 575 OFFCURVE",
"563 587 OFFCURVE",
"563 602 CURVE",
"563 673 LINE",
"563 688 OFFCURVE",
"551 700 OFFCURVE",
"536 700 CURVE",
"105 700 LINE",
"90 700 OFFCURVE",
"78 688 OFFCURVE",
"78 673 CURVE",
"78 27 LINE",
"78 12 OFFCURVE",
"90 0 OFFCURVE",
"105 0 CURVE",
"388 0 LINE",
"381 -19 OFFCURVE",
"377 -40 OFFCURVE",
"377 -64 CURVE SMOOTH",
"377 -159 OFFCURVE",
"439 -220 OFFCURVE",
"530 -220 CURVE"
);
}
);
width = 617;
},
{
associatedMasterId = "7891CA1A-7632-4D56-9F64-CBE5433B6847";
layerId = "B59C78E1-B6F6-4A7C-9E53-DC2ADEC481BE";
width = 600;
},
{
hints = (
{
horizontal = 1;
place = "{9223372036854775808.000000, 0.000000}";
type = Tag;
name = hr01;
},
{
horizontal = 1;
place = "{9223372036854775808.000000, 0.000000}";
type = Tag;
name = hr02;
}
);
layerId = "A67CAC85-0E07-4E45-8FAE-4EA88B7D3365";
name = SemiBold;
paths = (
{
closed = 1;
nodes = (
"576 -220 LINE",
"589 -220 OFFCURVE",
"598 -211 OFFCURVE",
"598 -198 CURVE",
"598 -134 LINE",
"598 -121 OFFCURVE",
"589 -112 OFFCURVE",
"576 -112 CURVE",
"561 -112 LINE",
"527 -112 OFFCURVE",
"507 -87 OFFCURVE",
"507 -56 CURVE SMOOTH",
"507 -26 OFFCURVE",
"525 0 OFFCURVE",
"556 0 CURVE",
"571 0 LINE",
"586 0 OFFCURVE",
"598 12 OFFCURVE",
"598 27 CURVE",
"598 133 LINE",
"598 148 OFFCURVE",
"586 160 OFFCURVE",
"571 160 CURVE",
"255 160 LINE",
"255 272 LINE",
"541 272 LINE",
"556 272 OFFCURVE",
"568 284 OFFCURVE",
"568 299 CURVE",
"568 405 LINE",
"568 420 OFFCURVE",
"556 432 OFFCURVE",
"541 432 CURVE",
"255 432 LINE",
"255 540 LINE",
"563 540 LINE",
"578 540 OFFCURVE",
"590 552 OFFCURVE",
"590 567 CURVE",
"590 673 LINE",
"590 688 OFFCURVE",
"578 700 OFFCURVE",
"563 700 CURVE",
"97 700 LINE",
"82 700 OFFCURVE",
"70 688 OFFCURVE",
"70 673 CURVE",
"70 27 LINE",
"70 12 OFFCURVE",
"82 0 OFFCURVE",
"97 0 CURVE",
"403 0 LINE",
"398 -17 OFFCURVE",
"395 -36 OFFCURVE",
"395 -56 CURVE SMOOTH",
"395 -151 OFFCURVE",
"456 -220 OFFCURVE",
"557 -220 CURVE"
);
}
);
width = 643;
},
{
associatedMasterId = "7891CA1A-7632-4D56-9F64-CBE5433B6847";
layerId = "EBCD298A-9C51-488A-B43D-5D3FB5B7406C";
width = 600;
},
{
guideLines = (
{
position = "{0, -220}";
}
);
hints = (
{
horizontal = 1;
place = "{9223372036854775808.000000, 0.000000}";
type = Tag;
name = hr01;
}
);
layerId = "23D188E6-7019-4CFD-8C83-9B160EBC8A6F";
name = Bold;
paths = (
{
closed = 1;
nodes = (
"603 -98 LINE SMOOTH",
"618 -98 OFFCURVE",
"630 -110 OFFCURVE",
"630 -125 CURVE SMOOTH",
"630 -193 LINE SMOOTH",
"630 -208 OFFCURVE",
"618 -220 OFFCURVE",
"603 -220 CURVE SMOOTH",
"589 -220 LINE SMOOTH",
"468 -220 OFFCURVE",
"417 -144 OFFCURVE",
"417 -49 CURVE SMOOTH",
"417 -31 OFFCURVE",
"419 -16 OFFCURVE",
"422 0 CURVE",
"82 0 LINE SMOOTH",
"67 0 OFFCURVE",
"55 12 OFFCURVE",
"55 27 CURVE SMOOTH",
"55 673 LINE SMOOTH",
"55 688 OFFCURVE",
"67 700 OFFCURVE",
"82 700 CURVE SMOOTH",
"595 700 LINE SMOOTH",
"610 700 OFFCURVE",
"622 688 OFFCURVE",
"622 673 CURVE SMOOTH",
"622 532 LINE SMOOTH",
"622 517 OFFCURVE",
"610 505 OFFCURVE",
"595 505 CURVE SMOOTH",
"295 505 LINE",
"295 442 LINE",
"573 442 LINE SMOOTH",
"588 442 OFFCURVE",
"600 430 OFFCURVE",
"600 415 CURVE SMOOTH",
"600 285 LINE SMOOTH",
"600 270 OFFCURVE",
"588 258 OFFCURVE",
"573 258 CURVE SMOOTH",
"295 258 LINE",
"295 195 LINE",
"603 195 LINE SMOOTH",
"618 195 OFFCURVE",
"630 183 OFFCURVE",
"630 168 CURVE SMOOTH",
"630 27 LINE SMOOTH",
"630 12 OFFCURVE",
"618 0 OFFCURVE",
"603 0 CURVE SMOOTH",
"593 0 LINE SMOOTH",
"554 0 OFFCURVE",
"543 -28 OFFCURVE",
"543 -49 CURVE SMOOTH",
"543 -70 OFFCURVE",
"554 -98 OFFCURVE",
"593 -98 CURVE SMOOTH"
);
}
);
width = 667;
},
{
hints = (
{
horizontal = 1;
place = "{9223372036854775808.000000, 0.000000}";
type = Tag;
name = hr01;
},
{
horizontal = 1;
place = "{9223372036854775808.000000, 0.000000}";
type = Tag;
name = hr02;
}
);
layerId = "3B5D4880-7EC1-45C7-ACF2-835190E6862B";
name = SemiLight;
paths = (
{
closed = 1;
nodes = (
"522 -220 LINE SMOOTH",
"535 -220 OFFCURVE",
"544 -211 OFFCURVE",
"544 -198 CURVE SMOOTH",
"544 -170 LINE SMOOTH",
"544 -157 OFFCURVE",
"535 -148 OFFCURVE",
"522 -148 CURVE SMOOTH",
"507 -148 LINE SMOOTH",
"463 -148 OFFCURVE",
"441 -125 OFFCURVE",
"441 -74 CURVE SMOOTH",
"441 -23 OFFCURVE",
"463 0 OFFCURVE",
"507 0 CURVE SMOOTH",
"517 0 LINE SMOOTH",
"532 0 OFFCURVE",
"544 12 OFFCURVE",
"544 27 CURVE SMOOTH",
"544 63 LINE SMOOTH",
"544 78 OFFCURVE",
"532 90 OFFCURVE",
"517 90 CURVE SMOOTH",
"181 90 LINE",
"181 309 LINE",
"487 309 LINE SMOOTH",
"502 309 OFFCURVE",
"514 321 OFFCURVE",
"514 336 CURVE SMOOTH",
"514 372 LINE SMOOTH",
"514 387 OFFCURVE",
"502 399 OFFCURVE",
"487 399 CURVE SMOOTH",
"181 399 LINE",
"181 610 LINE",
"509 610 LINE SMOOTH",
"524 610 OFFCURVE",
"536 622 OFFCURVE",
"536 637 CURVE SMOOTH",
"536 673 LINE SMOOTH",
"536 688 OFFCURVE",
"524 700 OFFCURVE",
"509 700 CURVE SMOOTH",
"113 700 LINE SMOOTH",
"98 700 OFFCURVE",
"86 688 OFFCURVE",
"86 673 CURVE SMOOTH",
"86 27 LINE SMOOTH",
"86 12 OFFCURVE",
"98 0 OFFCURVE",
"113 0 CURVE SMOOTH",
"375 0 LINE",
"365 -20 OFFCURVE",
"360 -45 OFFCURVE",
"360 -74 CURVE SMOOTH",
"360 -169 OFFCURVE",
"422 -220 OFFCURVE",
"503 -220 CURVE SMOOTH"
);
}
);
width = 592;
}
);
leftKerningGroup = I;
rightKerningGroup = E;
unicode = 0118;
userData = {
com.typemytype.robofont.guides = (
{
angle = 90;
isGlobal = 0;
x = 355;
y = 0;
}
);
};
},
{
glyphname = F;
lastChange = "2015-11-19 08:48:24 +0000";
layers = (
{
guideLines = (
{
position = "{0, 320}";
},
{
position = "{0, 691}";
},
{
position = "{0, 649}";
},
{
position = "{0, 362}";
},
{
position = "{0, 9}";
},
{
angle = 90;
position = "{761, 0}";
},
{
angle = 90;
position = "{94, 0}";
},
{
angle = 90;
position = "{487, 0}";
},
{
angle = 90;
position = "{139, 0}";
}
);
hints = (
{
horizontal = 1;
origin = "{0, 0}";
type = Tag;
name = hr00;
}
);
layerId = "7891CA1A-7632-4D56-9F64-CBE5433B6847";
name = Light;
paths = (
{
closed = 1;
nodes = (
"116 700 LINE",
"103 700 OFFCURVE",
"94 691 OFFCURVE",
"94 677 CURVE SMOOTH",
"94 22 LINE SMOOTH",
"94 9 OFFCURVE",
"103 0 OFFCURVE",
"116 0 CURVE SMOOTH",
"134 0 LINE SMOOTH",
"148 0 OFFCURVE",
"157 9 OFFCURVE",
"157 22 CURVE SMOOTH",
"157 311 LINE",
"482 311 LINE SMOOTH",
"496 311 OFFCURVE",
"505 320 OFFCURVE",
"505 333 CURVE SMOOTH",
"505 348 LINE SMOOTH",
"505 362 OFFCURVE",
"496 371 OFFCURVE",
"482 371 CURVE SMOOTH",
"157 371 LINE",
"157 640 LINE",
"502 640 LINE SMOOTH",
"516 640 OFFCURVE",
"525 649 OFFCURVE",
"525 662 CURVE SMOOTH",
"525 677 LINE SMOOTH",
"525 691 OFFCURVE",
"516 700 OFFCURVE",
"502 700 CURVE SMOOTH"
);
}
);
width = 570;
},
{
associatedMasterId = "7891CA1A-7632-4D56-9F64-CBE5433B6847";
layerId = "2C2961A1-FB91-4944-9F77-3476E1CA3B43";
width = 600;
},
{
guideLines = (
{
angle = 90;
position = "{556, 0}";
}
);
hints = (
{
horizontal = 1;
place = "{9223372036854775808.000000, 0.000000}";
type = Tag;
name = hr00;
}
);
layerId = "794B2617-B5E8-46A3-BB57-9FF4B4129D38";
name = Regular;
paths = (
{
closed = 1;
nodes = (
"105 700 LINE SMOOTH",
"90 700 OFFCURVE",
"78 688 OFFCURVE",
"78 673 CURVE SMOOTH",
"78 27 LINE SMOOTH",
"78 12 OFFCURVE",
"90 0 OFFCURVE",
"105 0 CURVE SMOOTH",
"186 0 LINE SMOOTH",
"201 0 OFFCURVE",
"213 12 OFFCURVE",
"213 27 CURVE SMOOTH",
"213 256 LINE",
"512 256 LINE SMOOTH",
"527 256 OFFCURVE",
"539 268 OFFCURVE",
"539 283 CURVE SMOOTH",
"539 354 LINE SMOOTH",
"539 369 OFFCURVE",
"527 381 OFFCURVE",
"512 381 CURVE SMOOTH",
"213 381 LINE",
"213 575 LINE",
"532 575 LINE SMOOTH",
"547 575 OFFCURVE",
"559 587 OFFCURVE",
"559 602 CURVE SMOOTH",
"559 673 LINE SMOOTH",
"559 688 OFFCURVE",
"547 700 OFFCURVE",
"532 700 CURVE SMOOTH"
);
}
);
width = 597;
},
{
associatedMasterId = "7891CA1A-7632-4D56-9F64-CBE5433B6847";
layerId = "B59C78E1-B6F6-4A7C-9E53-DC2ADEC481BE";
width = 600;
},
{
guideLines = (
{
angle = 90;
position = "{586, 0}";
}
);
hints = (
{
horizontal = 1;
place = "{9223372036854775808.000000, 0.000000}";
type = Tag;
name = hr00;
}
);
layerId = "A67CAC85-0E07-4E45-8FAE-4EA88B7D3365";
name = SemiBold;
paths = (
{
closed = 1;
nodes = (
"97 700 LINE SMOOTH",
"82 700 OFFCURVE",
"70 688 OFFCURVE",
"70 673 CURVE SMOOTH",
"70 27 LINE SMOOTH",
"70 12 OFFCURVE",
"82 0 OFFCURVE",
"97 0 CURVE SMOOTH",
"228 0 LINE SMOOTH",
"243 0 OFFCURVE",
"255 12 OFFCURVE",
"255 27 CURVE SMOOTH",
"255 243 LINE",
"534 243 LINE SMOOTH",
"549 243 OFFCURVE",
"561 255 OFFCURVE",
"561 270 CURVE SMOOTH",
"561 376 LINE SMOOTH",
"561 391 OFFCURVE",
"549 403 OFFCURVE",
"534 403 CURVE SMOOTH",
"255 403 LINE",
"255 540 LINE",
"554 540 LINE SMOOTH",
"569 540 OFFCURVE",
"581 552 OFFCURVE",
"581 567 CURVE SMOOTH",
"581 673 LINE SMOOTH",
"581 688 OFFCURVE",
"569 700 OFFCURVE",
"554 700 CURVE SMOOTH"
);
}
);
width = 617;
},
{
associatedMasterId = "7891CA1A-7632-4D56-9F64-CBE5433B6847";
layerId = "EBCD298A-9C51-488A-B43D-5D3FB5B7406C";
width = 600;
},
{
guideLines = (
{
position = "{0, 350}";
},
{
angle = 90;
position = "{645, 0}";
}
);
hints = (
{
horizontal = 1;
place = "{9223372036854775808.000000, 0.000000}";
type = Tag;
name = hr00;
}
);
layerId = "23D188E6-7019-4CFD-8C83-9B160EBC8A6F";
name = Bold;
paths = (
{
closed = 1;
nodes = (
"82 700 LINE SMOOTH",
"67 700 OFFCURVE",
"55 688 OFFCURVE",
"55 673 CURVE SMOOTH",
"55 27 LINE SMOOTH",
"55 12 OFFCURVE",
"67 0 OFFCURVE",
"82 0 CURVE SMOOTH",
"273 0 LINE SMOOTH",
"288 0 OFFCURVE",
"300 12 OFFCURVE",
"300 27 CURVE SMOOTH",
"300 215 LINE",
"566 215 LINE SMOOTH",
"581 215 OFFCURVE",
"593 227 OFFCURVE",
"593 242 CURVE SMOOTH",
"593 393 LINE SMOOTH",
"593 408 OFFCURVE",
"581 420 OFFCURVE",
"566 420 CURVE SMOOTH",
"300 420 LINE",
"300 494 LINE",
"586 494 LINE SMOOTH",
"601 494 OFFCURVE",
"613 506 OFFCURVE",
"613 521 CURVE SMOOTH",
"613 673 LINE SMOOTH",
"613 688 OFFCURVE",
"601 700 OFFCURVE",
"586 700 CURVE SMOOTH"
);
}
);
width = 646;
},
{
guideLines = (
{
angle = 90;
position = "{531, 0}";
}
);
hints = (
{
horizontal = 1;
place = "{9223372036854775808.000000, 0.000000}";
type = Tag;
name = hr00;
}
);
layerId = "3B5D4880-7EC1-45C7-ACF2-835190E6862B";
name = SemiLight;
paths = (
{
closed = 1;
nodes = (
"113 700 LINE SMOOTH",
"98 700 OFFCURVE",
"86 688 OFFCURVE",
"86 673 CURVE SMOOTH",
"86 27 LINE SMOOTH",
"86 12 OFFCURVE",
"98 0 OFFCURVE",
"113 0 CURVE SMOOTH",
"154 0 LINE SMOOTH",
"169 0 OFFCURVE",
"181 12 OFFCURVE",
"181 27 CURVE SMOOTH",
"181 289 LINE",
"490 289 LINE SMOOTH",
"505 289 OFFCURVE",
"517 301 OFFCURVE",
"517 316 CURVE SMOOTH",
"517 352 LINE SMOOTH",
"517 367 OFFCURVE",
"505 379 OFFCURVE",
"490 379 CURVE SMOOTH",
"181 379 LINE",
"181 610 LINE",
"510 610 LINE SMOOTH",
"525 610 OFFCURVE",
"537 622 OFFCURVE",
"537 637 CURVE SMOOTH",
"537 673 LINE SMOOTH",
"537 688 OFFCURVE",
"525 700 OFFCURVE",
"510 700 CURVE SMOOTH"
);
}
);
width = 577;
}
);
leftKerningGroup = I;
unicode = 0046;
userData = {
com.typemytype.robofont.guides = (
{
angle = 0;
isGlobal = 0;
x = 0;
y = 320;
},
{
angle = 0;
isGlobal = 0;
x = 0;
y = 691;
},
{
angle = 0;
isGlobal = 0;
x = 0;
y = 649;
},
{
angle = 0;
isGlobal = 0;
x = 0;
y = 362;
},
{
angle = 0;
isGlobal = 0;
x = 0;
y = 9;
},
{
angle = 90;
isGlobal = 0;
x = 761;
y = 0;
},
{
angle = 90;
isGlobal = 0;
x = 94;
y = 0;
},
{
angle = 90;
isGlobal = 0;
x = 487;
y = 0;
},
{
angle = 90;
isGlobal = 0;
x = 139;
y = 0;
}
);
};
},
